<svg width="526" height="573" viewBox="0 0 526 573" fill="none" xmlns="http://www.w3.org/2000/svg">
<path d="M89.6 239.6C90.7 239.5 91.6 239.4 92.4 239.3C92 237.4 91.5 235.7 91.4 233.9C91.1 230 89.9 226.5 88 223.2C86.8 221.2 85.7 219.1 84.7 217C84 215.4 83.7 213.5 83.1 211.8C82.8 211 82.3 210.3 81.7 209.7C80.8 208.7 80 207.8 79.5 206.5C78.1 202.7 76.4 198.9 75.1 195.1C74.6 193.6 74.6 191.9 74.7 190.4C74.9 187.8 73.8 185.6 73 183.3C72.5 181.9 72 180.6 72 179.2C72 174.5 72.1 169.8 72 165.1C72 163.2 72.6 161.6 73.8 160.2C75.3 158.5 76.9 156.8 78.3 155C79.9 152.9 82 151.4 84.2 149.9C87.5 147.7 90.6 145.3 94.3 143.6C96 142.8 97.2 141.1 98.5 139.7C103.2 135 107.9 130.3 112.7 125.6C112.3 124 111.5 122.8 110 122.1C109.6 121.9 109.3 121.4 108.9 121C108 120 107.1 118.9 106.2 117.9C105.9 117.6 105.2 117.4 104.7 117.4C103.7 117.3 102.6 117.2 101.6 117.3C99.3 117.4 97.6 116.6 96.9 114.1C96.3 114.4 95.8 114.5 95.4 114.9C90.7 119.3 85.4 123.1 80.4 127.2C75.5 131.2 70.2 134.7 64.9 138.1C62.8 139.4 60.9 141 59.3 143C57.9 144.9 55.8 146 53.8 147.1C49.7 149.2 46.4 152.4 43.1 155.4C39.5 158.6 39.5 158.7 39.5 163.6C39.5 171.9 39.6 180.2 39.5 188.5C39.4 192.6 40.4 196.4 41.2 200.3C41.5 201.9 41.7 203.4 42 205C42.4 206.9 43.3 208.7 44.5 210.2C44.8 210.6 45 211 45.4 211.3C46.8 212.6 46.3 215 48.1 216.2C49.8 217.3 50.3 219.1 50.8 221C50.9 221.4 51 221.9 51.3 222.1C52.6 222.9 52.6 224.2 52.6 225.5C52.6 232.5 52.6 239.4 52.6 246.4C52.6 247.2 52.6 247.9 51.8 248.5C50.9 249.1 51.6 250.7 50.3 251.3C50 253.6 48.2 255 47 256.8C46.4 257.7 46 258.5 45.9 259.6C45.9 260.1 45.6 260.7 45.4 261.3C42.8 261.3 40.2 261.3 37.5 261.3C37.2 257.8 37.2 254.4 37.9 251C38.1 250 39 249.2 39.7 248.4C41.3 246.5 42.1 244.2 43.2 242C45 238.3 43.8 234.5 44 230.8C44 230.4 43.7 230 43.5 229.6C43.2 229.1 42.7 228.6 42.6 228C42.2 226.2 41.5 224.7 40 223.6C39.8 223.4 39.6 223.1 39.4 222.9C38 219.3 35.4 216.5 33.8 213C33.7 212.8 33.7 212.5 33.7 212.3C32.9 207.9 32 203.6 31.2 199.2C31.1 198.5 31 197.8 31 197.1C31 183.1 31 169.1 31 155.1C31 153 31.4 151.4 33.2 150C36.5 147.4 39.5 144.4 42.8 141.7C44 140.7 45.5 139.9 46.9 139.1C48.7 138.1 50.3 137.1 51.6 135.4C53.8 132.5 56.8 130.6 59.9 128.8C64.5 126 68.8 122.9 73 119.5C76.2 116.9 79.5 114.4 82.9 111.7C82.1 110.8 81.2 111.1 80.4 111.1C70.1 111.1 59.8 111.1 49.5 111.1C44.6 111.1 39.7 111 34.9 111.1C33.6 111.1 32.2 111.4 31 111.8C28.8 112.5 26.8 113.5 24.6 114.3C23.6 114.7 22.4 115 21.4 115C18.5 115.1 15.8 115.9 13 116.7C11.3 117.2 10.2 118.3 9.2 119.6C8.2 120.8 7.1 121.3 5.5 121.1C3.8 121 2 121.1 0 121.1C0 118.5 0 116.1 0 113.8C0 113.6 2.28733e-06 113.4 0.100002 113.3C2 111.7 3.2 109.4 5.8 108.7C8.9 107.9 12 106.8 15.3 106.6C17.4 106.5 19.6 105.4 21.6 104.5C24.9 103 28.3 102.3 32 102.4C49.9 102.5 67.8 102.5 85.7 102.5C86.5 102.5 87.3 102.5 88.2 102.5C88.4 101 87.5 100.1 86.8 99.2C86 98.1 85.4 97 85.1 95.7C84.9 94.8 84.4 93.8 83.8 93C81 89.9 78.1 86.9 74.1 85.3C69.5 83.4 64.7 81.9 59.6 81.9C57.9 81.9 56.4 81.5 54.8 80.9C52.5 80 50.1 79.6 47.7 79C45.5 78.4 43.4 78.2 41.7 76.1C40.9 75 39 74.6 37.6 74.3C36.1 73.9 34.9 74.8 33.7 75.7C31.6 77.3 29.2 77.9 26.7 78.1C24.1 78.2 21.6 78.1 19 78.1C17.5 78.1 16.4 77.5 15.9 76.1C15.5 75.2 15.2 74.2 14.8 73.2C13.8 70.5 12.8 67.7 11.9 65C11.7 64.4 11.6 63.8 11.5 63.2C11.4 61.8 11.5 60.3 11.4 58.9C11.4 57.8 11.8 56.5 10.6 55.6C10.5 55.5 10.5 55.1 10.5 54.9C10.5 52.6 10.5 50.3 10.5 47.8C13.1 47.8 15.4 47.8 17.6 47.8C18.5 47.8 19.7 49 19.6 50C19.1 55.1 20.7 59.8 22.5 64.5C23 65.9 23.3 67.4 23.8 69.2C25.1 68.5 26.3 68 27.2 67.3C28.5 66.2 29.9 65.8 31.5 65.8C35.3 65.9 39 65.8 42.8 65.8C45.7 65.8 47.9 67.2 50 69.1C50.6 69.6 51.2 70.1 51.9 70.3C54.3 70.9 56.8 71.2 59.1 72.1C62.2 73.2 65.4 73.4 68.6 73.9C73.5 74.6 78.4 75.8 82.8 78.2C86.4 80.2 89.3 83.1 92 86.2C92.5 86.8 92.9 87.5 93.1 88.2C93.9 90.9 93.9 91 96.2 93.8C102.3 87.5 106.9 80.3 110.4 72.2C112.3 67.8 114.4 63.4 117.3 59.5C122.1 53.1 126.8 46.5 131.4 40C134.6 35.5 137.6 30.8 140.8 26.2C141.6 25 142.4 23.6 144 23.4C144.3 23.4 144.6 23.2 144.8 22.9C145.9 21 147.6 20.9 149.5 21C153.6 21.1 157.6 21.1 161.7 21.2C163.6 21.2 165.1 21.9 166.5 23.5C170 27.3 174.1 30.5 179.5 31.3C180.4 31.4 181.2 32 182.1 32.4C184.5 33.5 186.4 33.2 188.2 31.3C192.2 27 196.3 22.9 200.4 18.8C203.2 16 206 13.3 208.3 10C208.7 9.4 209 8.6 209.6 8.4C213.4 7 215.1 2.4 219.5 1.9C219.8 1.9 220.1 1.7 220.3 1.4C221.4 -0.1 223 0.1 224.6 0.1C231.2 3.7998e-07 237.9 0 244.5 0C246.6 0 248.2 0.6 249.9 1.9C253.4 4.5 257.1 7 261.4 8C264.8 8.8 268.3 9.3 271.8 9.3C280.7 9.5 289.5 9.4 298.4 9.3C302 9.2 305.1 10.3 308.3 11.5C312.8 13.2 315.1 17 317.1 20.9C318.2 22.9 318.8 25.1 319.8 27.2C320.2 28 320.7 28.9 321.3 29.5C322.5 30.5 323.2 31.7 323.6 33.1C324.7 36.5 325.7 40 328.9 42.3C329.7 42.9 330.2 43.9 330.6 44.8C332.3 48.8 335.3 51.6 338.3 54.5C339.9 56 341.4 57.4 343.4 58.4C344.4 58.9 345 60.3 345.7 61.3C346.1 61.9 346.3 62.6 346.8 63.1C347.5 63.8 348.3 64.2 349.5 64C359.8 62.5 370.2 61 380.7 60.8C381.3 60.8 382 60.7 382.6 60.6C385.4 60.2 388.3 59.6 391.1 59.5C394.7 59.3 398.3 59.6 401.9 59.5C405.3 59.4 408.7 59.2 412.2 59C415.5 58.8 418.9 58.4 422.2 58.3C432.5 58.2 442.8 58.3 453.1 58.3C454 58.3 454.8 58.4 455.8 58.4C456 59.2 456.1 59.8 456.3 60.6C457 60.7 457.6 60.7 458.2 60.7C461.5 60.7 464.8 60.8 468 60.6C472.8 60.4 477.3 61.1 481.8 62.7C484.7 63.8 487.6 63.4 490.6 63.2C492.2 63.1 493.5 62 494.6 60.9C495.5 60.1 496.3 59.2 497.3 58.4C498.2 57.6 499.2 57.1 499.7 55.8C499.9 55.2 500.8 54.8 501.4 54.3C501.6 54.2 502 54.1 502 53.9C502.1 51.8 504.2 50.8 504.7 49C505 47.9 505.8 47.6 506.7 47.6C509.1 47.5 511.5 47.6 514 47.6C514 50.3 514 52.9 514 55.3C512.2 57.3 510.5 59.3 510.2 62.2C509.5 62.4 508.7 62.5 507.9 62.7C507.7 64.6 506.4 65.5 504.9 66.4C504 66.9 503.1 67.6 502.4 68.4C500.5 70.6 498.1 71.7 495.2 71.7C491.9 71.7 488.6 71.7 485.4 71.8C480.7 71.9 476.1 71.6 471.6 69.8C470.2 69.2 468.5 69.2 466.9 69.2C461.8 69.1 456.7 69.2 451.6 69.2C450.7 69.2 449.9 69.2 448.9 69.2C448.5 68.3 448.1 67.5 447.7 66.6C447 66.6 446.2 66.6 445.4 66.6C438.7 66.6 432 66.5 425.3 66.6C422.3 66.7 419.3 67.2 416.2 67.4C412.5 67.6 408.7 67.8 405 67.8C401.5 67.9 398 67.7 394.5 67.8C393.2 67.8 391.9 68 390.8 68.4C389 69.1 387.1 69.2 385.2 69.2C379.5 69.1 373.9 69.7 368.3 70.5C362.9 71.3 357.6 72.3 352.2 72.8C348.3 73.2 344.4 72.9 340.8 72.9C339.3 70.6 338.1 68.5 336.7 66.4C336.5 66.1 336.1 65.8 335.8 65.7C332.6 64.6 331 61.7 328.6 59.7C326.1 57.6 324.5 54.9 322.9 52.2C322.2 51 321.3 50 320.4 49C318.2 46.5 317 43.6 315.9 40.5C315.4 39 314.7 37.7 313.4 36.6C312.5 35.8 311.9 34.6 311.6 33.4C310.5 29.5 308.4 26.1 306.1 22.8C304.8 20.9 302.8 20.3 300.9 19.4C298.4 18.2 295.9 17.6 293.1 17.6C285.5 17.7 277.9 17.6 270.3 17.7C265.3 17.7 260.4 17.5 255.6 16.3C252.7 15.6 249.9 14.2 247.2 12.8C245.2 11.8 243.5 10.2 241.6 9.1C240.9 8.7 239.9 8.6 239.1 8.5C237.6 8.4 236 8.7 234.6 8.5C230.9 7.9 227.7 9.5 224.4 10.7C224 10.9 223.5 11.1 223.2 11.4C221.7 13.4 219.7 14.8 217.6 16.1C216.7 16.6 216.3 17.7 215.6 18.6C213.9 20.6 212.3 22.7 210.5 24.5C206.2 28.9 201.7 33.1 197.4 37.4C196.8 38 196.4 38.8 195.8 39.4C194.5 40.7 193.1 41.7 191.1 41.7C186.5 41.6 181.8 41.6 177.2 41.5C176.9 41.5 176.5 41.5 176.3 41.3C174.6 39.8 172.4 39.7 170.4 39C165.8 37.4 162 34.5 158.6 31C157.1 29.4 154.5 29.2 152.9 30.5C152.1 31.1 151.4 31.7 150.5 32.2C149.9 32.5 149.3 33.2 148.9 33.8C142.8 42.6 136.8 51.5 130.6 60.2C127.1 65.2 123 69.9 120.4 75.5C118.7 79.3 116.9 83 115.1 86.7C112.7 91.6 109.2 95.7 105.6 99.8C105.4 100 105.2 100.3 105.1 100.6C105 100.8 105.1 101 105.1 101.4C106.7 101.5 108.1 101.4 109.6 100.8C114.4 98.9 119.3 97.1 124.2 95.3C125.2 94.9 126.3 94.6 127.4 94.5C131.2 94.3 134.7 93.1 138.2 91.7C149.6 87.3 161.2 83.5 173.1 80.6C175.5 80 178 80.2 180.5 80C182.9 79.9 185.4 80.2 187.4 78.3C188 77.7 189.4 77.7 190.4 77.7C195.7 77.7 201 77.7 206.2 77.7C207.4 77.7 208.4 77.3 209.6 76.9C216.3 74.7 222.2 70.4 229.2 68.9C231.2 68.5 232.9 66.9 235.1 66.7C237.5 66.4 239.8 65.9 242.2 65.8C244.7 65.6 247.3 65.8 249.9 65.8C251.9 65.8 253.5 66.3 255.1 67.4C257.8 69.2 260.8 70.6 263.7 72C266.9 73.6 269.6 75.7 272 78.3C273.1 79.5 274.6 80.5 276.2 81.2C281 83.3 284.9 86.6 289.1 89.6C290.2 90.4 291.5 91.2 292.8 91.5C296.8 92.6 299.9 95 303.1 97.4C306.8 100.3 310.7 103 313.4 106.9C317.1 112.3 320.7 117.9 324.1 123.5C326.1 126.7 328.2 129.9 331.1 132.3C331.7 132.8 332.5 133.1 333.2 133.1C337.1 133.2 341 133.3 344.9 133C347.3 132.8 349.7 131.9 352.1 131.4C354.3 131 356.5 130.6 358.7 130.5C364.7 130 370.7 129.7 376.6 129.3C383.2 128.8 389.7 129.1 396.2 129.7C398.1 129.9 400 130.3 401.9 130.3C405.7 130.3 408.9 132.1 412.1 133.8C414.2 134.9 416.3 135.6 418.7 136C421.7 136.5 424.7 137.5 427.5 139.1C429.3 140.1 430.3 141.3 431.5 142.8C432.2 143.7 433.4 144.4 434.5 144.9C436.3 145.8 438.3 146.6 440.2 147.2C441.2 147.5 442.2 147.5 443.3 147.6C445.9 147.9 448.5 148.2 451.1 148.5C451.8 148.6 452.5 148.7 453.2 148.7C458.6 148.8 463.7 150.4 468.8 152C471.9 153 474.2 154.9 475.9 157.9C477.4 160.6 479.7 162.9 481.7 165.4C482 165.8 482.5 166.1 482.7 166.6C484.2 169.8 487.2 171.8 489.1 174.8C490 176.1 491.5 176.5 493 176.6C494.4 176.7 496.1 176.3 497.2 176.9C499.6 178.2 502.1 177.8 504.5 178.1C505.6 178.2 506.6 178.4 507.4 179.4C508.1 180.3 509.2 180.8 510.5 180.8C512 180.8 513.5 181.3 514.9 181.5C516.1 181.7 517.3 181.8 518.4 181.9C521.4 182.1 523.7 184.3 523.8 187.3C523.8 189.7 523.8 192.1 523.8 194.6C521 194.6 518.5 194.6 515.8 194.6C515.7 194.2 515.6 193.8 515.5 193.3C515.1 191.3 514.2 190.4 512.1 190.3C510.3 190.2 508.7 190 507 189.3C505.9 188.9 504.6 188.9 503.5 188.9C502.1 189 500.9 188.6 500.2 187.5C499.6 186.5 498.7 186.4 497.8 186.3C496.5 186.2 495.2 186.3 494 186.2C492.8 186.1 491.7 186.3 490.7 185.3C490.2 184.8 489 184.9 488.2 185C486.1 185.2 484.3 184.5 482.6 183.5C482 183.1 481.2 182.7 481 182.2C480.4 180.6 479.1 179.6 478 178.4C477.1 177.4 476.4 176.2 475.5 175.1C474.8 174.1 473.9 173.3 473.1 172.3C471.1 169.6 469 167 467.3 164.3C466.2 162.5 464.8 161.2 462.8 160.5C458 158.9 453.2 157.3 448 157.1C446.7 157.1 445.3 156.7 444 156.5C442.3 156.3 440.7 155.9 439 155.9C433.8 156.2 429.4 153.7 425 151.5C424.4 151.2 423.7 150.8 423.4 150.2C422.1 147.2 419.3 146.3 416.6 145.4C414.7 144.7 412.7 144.2 410.6 144C408.8 143.8 407.1 142.8 405.4 142C403.8 141.3 402.4 140.3 400.9 139.5C399.8 139 398.6 138.7 397.5 138.5C388.7 137.3 379.8 137.1 371 138.2C369.8 138.3 368.6 138.4 367.4 138.4C362.8 138.5 358.4 139.2 354 140.6C352.5 141.1 350.9 141.3 349.3 141.3C341.9 141.4 334.6 141.3 327.2 141.3C325.6 141.3 324.5 140.7 323.2 139.7C319.4 136.6 317.3 132.5 314.7 128.5C311.3 123.3 307.9 118.2 304.3 113.2C303.1 111.5 301.5 110 299.8 108.7C296.4 106.1 292.9 103.6 289.5 101.1C289.1 100.8 288.6 100.5 288.1 100.3C284 99.4 280.8 96.9 277.6 94.5C274.3 92.1 270.8 90.1 267.3 88.1C265.8 87.2 264.5 86.3 263.4 85C261.2 82.5 258.3 80.8 255.3 79.3C252.7 78 249.9 76.9 247.6 75C246.6 74.2 245.2 73.9 243.8 74.3C241.7 74.9 239.4 75.1 237.5 76.4C236.8 76.9 235.7 77.1 234.8 77.3C230.5 78.4 226.5 80.3 222.7 82.5C221.7 83.1 220.5 83.3 219.4 83.8C218.1 84.3 216.9 85 215.5 85.4C214.4 85.8 213.2 86 212 86C207.2 86 202.4 86 197.6 85.9C196.1 85.9 194.8 86.1 193.4 86.9C191.8 87.9 189.6 88.5 187.7 88.3C180.1 87.7 173.1 90.1 166.1 92.3C160.6 94 155.1 95.9 149.6 97.7C146 98.9 142.5 100.3 138.9 101.5C138.3 101.7 137.7 101.9 137.1 102C131.7 102.1 127 104.4 122.1 106.3C119.3 107.4 116.6 108.5 113.6 109.7C115.9 112.1 118 114.4 120.2 116.7C120.9 117.4 121.4 117.6 122.4 116.8C126.1 114 129.9 111.4 133.8 108.8C135.8 107.5 137.9 106.5 140.5 106.5C151.8 106.6 163.2 106.5 174.5 106.6C177.1 106.6 179.7 107.2 182.2 107.9C183.3 108.2 184.2 109.3 185 110.2C186.5 112 187.9 113.8 189.1 115.7C191 118.8 192.6 122.1 194.4 125.3C195 126.4 195.6 127.9 196.6 128.5C197.8 129.3 197.8 130.2 198 131.2C198.2 132.4 198.6 133.5 198.9 134.6C199.1 135.3 199.3 136 199.3 136.7C199.4 138.9 199.2 141 199.4 143.2C199.6 145.3 198.6 147 197.7 148.7C197.3 149.4 196.8 149.9 196.4 150.4C196.8 151.2 197.1 151.9 197.4 152.6C197.7 153.3 198.1 153.8 198.7 154.4C199.7 155.3 200.3 156.8 200.7 158.2C201 159.2 201.1 160 202.2 160.4C202.4 160.5 202.7 160.6 202.8 160.7C203.5 163.4 206 164.6 207.6 166.6C208.6 167.9 209.4 169.5 210.2 171C210.8 172.3 211.6 173.3 212.6 174.3C215.3 177 217.8 179.7 220.4 182.4C221.4 183.5 221.4 185.1 222.8 186.1C223.4 186.5 223.8 186.8 224.4 186.8C230.6 186.7 236.8 187.1 243 186.1C246.8 185.5 250 183.7 253.5 182.7C254.2 182.5 254.9 182 255.7 181.8C260.3 181.1 264.8 180.1 269.5 180.4C271.7 180.5 273.8 180.4 275.8 179.5C276.3 179.3 276.9 179.2 277.4 179.2C279.1 179.1 280.8 179.1 282.4 178.1C283 177.7 283.9 177.8 284.7 177.8C291.3 177.8 297.8 177.8 304.4 177.9C304.9 177.9 305.4 177.9 305.8 178.1C310.9 180.1 316.1 182 319.7 186.7C320.4 187.7 321.5 188.3 322.5 189.1C323.5 189.8 324.6 190.4 325.1 191.6C325.2 191.8 325.3 192.1 325.5 192.2C329 193.7 330 197.4 332.2 200C333 200.9 333.8 201.8 334.9 202.4C336 203 337 203.9 337.8 204.9C339.2 206.8 340.8 207.4 343.1 206.3C344.7 205.5 346.3 205 347.9 204.3C352.1 202.6 356.4 201.3 360.9 200.7C366.8 199.9 372.7 198.7 378.6 197.8C381.1 197.4 383.7 197.3 386.2 197.2C395.7 196.8 405.2 195.9 414.7 196.3C418.4 196.5 422.1 196.2 425.7 196.4C427.3 196.4 428.9 196.8 430.4 197.2C437.3 199.2 444.1 201.4 451 203.3C452.9 203.8 454.9 203.9 456.9 204.2C457.8 204.3 458.6 204.4 459.4 205.3C460.1 206.1 461.3 206.7 462.4 207C464.7 207.6 466.2 209.5 468.2 210.4C471.4 211.8 474.6 213.4 477.7 214.9C478 215.1 478.4 215.3 478.5 215.6C479.4 217.7 481.4 218.7 483 220.2C484.9 222 486.9 223.7 488.8 225.4C489 225.6 489.4 225.8 489.4 226C489.9 229 492.2 230.8 493.9 232.9C494.4 233.5 494.8 234 494.7 234.7C494.5 236.3 495.2 237.6 495.9 238.9C498.5 244.4 501.4 249.7 503.4 255.3C504.9 259.4 507.4 262.4 510.5 265.2C511.4 266.1 512.1 267.2 512.7 268.4C514 270.8 515.1 273.3 516.3 275.7C516.8 276.6 517.3 277.6 518.1 278.1C519.4 279 520.1 280.2 520.2 281.6C520.6 285.7 522 289.5 523.3 293.3C523.5 293.8 523.6 294.4 523.7 294.9C523.9 296.2 523.7 297.6 524.8 298.7C525.2 299.1 525.1 299.9 525.1 300.6C525.2 302.9 525.3 305.2 525.3 307.5C525.3 323.2 525.3 338.8 525.3 354.5C525.3 361.2 524.9 367.9 523 374.4C519.6 386.2 516.3 398 512.9 409.8C512.4 411.5 512.2 413.4 511.9 415.2C511.9 415.4 511.9 415.7 511.8 415.9C510.3 419.5 509.1 423.1 506.3 426C504.7 427.7 503.3 429.5 501.8 431.2C500.5 432.6 499.5 434.3 498 435.4C496.3 436.6 495.6 438.2 495.2 440.1C495 440.9 494.9 441.8 494.5 442.6C493.8 444.1 493.4 445.6 493.3 447.2C493.2 448.7 492.8 450.2 492.6 451.7C492.3 453.5 491.6 455 490.5 456.5C489.2 458.3 488.7 460.7 487.7 462.7C486.7 465 485.5 467.2 484.4 469.5C484.2 469.9 483.9 470.5 483.6 470.5C482.2 470.7 481.8 471.9 481.6 472.9C481.2 475 480 476.5 478.8 478.1C477.5 479.9 476.5 481.9 475 483.6C471.9 487.3 470.1 491.7 468 495.9C466.2 499.5 464.4 503.1 462.8 506.7C461.7 509.2 460.6 511.7 459.8 514.3C459.2 516.3 457.9 517.7 456.5 518.9C455.4 519.9 454.1 520.8 452.8 521.6C449.8 523.4 447 525.8 443.5 526.7C440.1 527.6 436.6 528.6 433.2 529.7C432.2 530 431.2 530.5 430.2 530.9C426.9 532.3 423.7 533.8 420.4 535.1C418.7 535.8 417.4 536.9 416.1 538.1C415.7 538.5 415.2 539 414.7 539.1C412.8 539.3 411.3 540.3 409.7 541.3C408.2 542.2 406.3 542.7 404.9 543.7C400.6 547 395.8 548.9 390.7 550.1C388.6 550.6 386.5 551 384.5 551.6C383.2 552 381.9 552.6 380.6 553.1C377.4 554.4 374.1 555.1 370.6 555.1C367.8 555.1 365.1 555.4 362.7 557.2C362.5 557.4 362.2 557.5 361.9 557.6C358.8 558.4 355.8 559.4 352.7 559.9C349.2 560.4 346 561.7 342.8 562.9C340.3 563.8 337.7 564 335.2 564.7C330.7 565.9 326.1 566.5 321.7 568.3C318.2 569.8 314.6 570.8 310.9 571.9C309.8 572.2 308.5 572.3 307.4 572.3C300.6 572.3 293.8 572.2 287 572.1C286.4 572.1 285.7 572.1 285.1 571.9C279.2 569.8 273 569.4 266.9 568.3C264.6 567.9 262.4 567.3 260.2 566.7C258.5 566.2 257 565.4 255.2 565.5C255 565.5 254.7 565.5 254.5 565.4C250.8 563.2 246.7 563 242.6 562.6C237.8 562.1 233 561 228.3 560C225 559.4 221.5 559.1 218.1 558.7C214.6 558.2 211.2 557.8 207.7 557.2C206.4 557 205.3 556.2 204 555.8C202.9 555.5 201.7 555.3 200.5 555.1C198.9 554.8 197.1 554.8 195.6 554.1C191.8 552.5 187.8 552.1 183.8 551.6C181.8 551.3 179.8 550.8 177.8 550.4C177 550.2 176.2 550.1 175.5 550.1C169 550.3 162.7 549.2 156.7 547.1C151.5 545.4 146.4 545 141.1 544.6C136.7 544.3 132.6 542.8 128.5 541.2C127.1 540.6 125.7 540.3 124.2 540C121.8 539.6 119.5 538.9 117.6 537.2C116.3 536.1 114.5 535.7 112.9 535.1C111 534.3 109 533.6 107.8 531.7C107.3 531 106.3 530.6 105.5 530.2C101.7 528.1 97.9 525.9 94.1 523.8C93.8 523.7 93.3 523.6 93.3 523.5C92.2 520.6 89 520.1 87.1 518.1C85.7 516.6 83.9 515.7 82.1 514.9C78.9 513.4 76.5 510.9 74 508.5C73.6 508.1 73.2 507.5 72.6 507.3C69.8 506.2 68.1 504 66.5 501.6C66 500.8 65.4 499.9 64.2 499.7C63.6 499.6 63.1 498.7 62.7 498C59.9 494.2 57.1 490.4 54.5 486.4C53.4 484.8 52.9 482.9 52.2 481C50.3 476.1 48.5 471.1 46.7 466.1C46.4 465.2 46.1 464.2 46.1 463.3C46.2 460.5 45.4 457.9 44.5 455.4C43.8 453.6 43.5 451.7 43.5 449.8C43.5 447.6 43.5 445.5 43.6 443.3C43.7 441.6 43.2 440.2 41.8 439.2C40.2 438 39.4 436.3 38.8 434.4C38.1 432.2 37.3 430 36 428C35.8 427.7 35.8 427.3 35.7 426.9C35.6 426.2 35.6 425.5 35.6 424.7C35.8 420.6 35.3 416.6 34 412.7C33.2 410.2 32.9 407.6 32.9 404.9C33 389 33 373.1 33 357.2C33 354 33.1 350.8 32.9 347.6C32.6 341.4 33.8 335.4 34.6 329.3C34.9 327.4 35 325.5 35.4 323.6C35.7 322.2 36.3 321 36.8 319.6C37 319.1 37.3 318.6 37.3 318C37.9 313.3 39.6 308.9 40.6 304.3C41.6 299.8 44.1 296.3 47.2 293L49.1 289.9C49.5 289.3 49.8 288.6 50.3 288.3C53.3 286.2 55 283 57.4 280.4C58.3 279.4 59.2 278.3 60 277.2C61 276 62.1 274.7 63 273.5C64.3 271.8 65.5 270.1 67.7 269.2C68.4 268.9 69 268.2 69.5 267.5C70.4 266.2 71 264.8 71.8 263.4C72.4 262.4 73 261.6 74.3 261.3C75.3 261 76.2 259.8 76.9 258.8C79.7 255 82.5 251.1 85.2 247.2C86.5 245 87.9 242.3 89.6 239.6ZM52.2 448.4C52.3 449.1 52.4 449.4 52.5 449.8C53 451.7 53.4 453.7 53.9 455.6C54.3 457.5 54.5 459.5 55.1 461.4C56.8 466.5 58.7 471.7 60.7 476.7C61.1 477.8 61.9 478.7 62.5 479.7C63.6 481.3 64.8 482.8 65.9 484.4C67.4 486.5 68.9 488.7 70.4 490.9C70.6 491.1 70.8 491.5 71.1 491.5C72.5 491.6 72.9 492.9 73.6 493.8C75.2 496.1 76.9 498.3 79.6 499.4C80 499.6 80.3 499.9 80.6 500.3C82.8 502.5 84.9 504.9 87.8 506.3C90.8 507.7 93.4 509.8 96 511.8C97.6 513 99.8 513.6 100.7 515.7C100.9 516 101.5 516.1 101.9 516.4C105.9 518.7 109.9 520.9 113.9 523.2C114.2 523.4 114.6 523.6 114.8 523.9C115.7 525.3 117.1 526 118.5 526.6C120.4 527.4 122.6 528 124.2 529.2C126.3 530.7 128.4 531.5 130.9 531.9C132.1 532.1 133.4 532.3 134.6 532.8C138.5 534.5 142.5 535.9 146.8 536.3C150.7 536.6 154.6 537 158.5 537.4C160.1 537.5 161.3 538.8 162.8 539.1C168.6 540.3 174.3 542 180.3 541.6C181.4 541.5 182.6 541.6 183.6 542C186.1 543 188.7 543.3 191.3 543.5C194.9 543.9 198.4 544.3 201.7 545.8C203.3 546.5 205.3 546.4 207 546.8C208.1 547 209.3 547.3 210.4 547.6C211.3 547.9 212.1 548.5 213 548.7C215.8 549.3 218.6 549.8 221.5 550.2C225.8 550.9 230.3 550.6 234.5 551.7C238.8 552.9 243.2 553.8 247.6 554.2C250.5 554.5 253.3 555.1 256.1 555.4C259 555.7 261.3 557.8 264.3 557.5C264.5 557.5 264.7 557.6 264.9 557.7C267.4 559.2 270.3 559.6 273 560.1C276.7 560.8 280.5 561 284.1 562C289.9 563.5 295.6 564.2 301.6 563.9C302.5 563.8 303.5 563.8 304.4 563.5C307.6 562.5 310.8 561.7 313.8 560.4C316.5 559.3 319.3 558.4 322.2 557.8C324.5 557.3 326.8 556.2 329.1 556C333.1 555.7 336.6 554.3 340.2 552.8C340.9 552.5 341.7 552.3 342.5 552.1C345 551.5 347.5 551.1 349.9 550.4C352.3 549.7 355 549.6 357.1 547.8C357.3 547.6 357.7 547.7 358 547.6C360.4 546.8 362.8 546.7 365.3 546.5C367.4 546.4 369.7 546.3 371.6 545.4C375 543.8 378.7 543.1 382.2 542.1C385.8 541.1 389.6 540.2 392.9 538.3C396.3 536.3 399.8 534.4 403.1 532.2C404.4 531.4 405.5 530.6 407.1 530.6C407.5 530.6 408 530.1 408.4 529.7C409.5 528.7 410.7 527.7 412.1 527.1C414.2 526.2 416.2 525.1 418.3 524.3C422 522.9 425.5 521.1 429.4 520.3C432.8 519.6 436.1 518.4 439.2 516.8C442.9 514.9 446.3 512.5 449.4 509.8C450.2 509.1 450.8 508.4 451 507.3C451.8 504 453.3 501 454.8 497.9C456.9 493.5 459.2 489.2 461.2 484.9C462.4 482.4 463.6 479.8 465.3 477.5C467.5 474.6 469.6 471.7 471.6 468.7C472.2 467.8 472.5 466.6 472.9 465.6C473.4 464.3 473.6 462.7 475 462.1C475.9 461.7 476.3 461 476.7 460.3C477.6 458.4 478.4 456.6 479.2 454.7C480.4 452.1 481.1 449.2 483.2 447.1C483.5 446.8 483.6 446.2 483.6 445.8C484.1 441.1 485.2 436.6 486.6 432.1C487.2 430.1 488.2 428.5 489.7 427.1C491 425.9 492.4 424.8 493.5 423.4C495.1 421.2 496.7 418.9 498.7 417C499.6 416.2 500.3 415 500.9 413.8C502 411.4 503.3 409 503.2 406.2C503.2 405.6 503.5 405 503.7 404.4C505.8 397.3 507.9 390.3 509.9 383.2C511.4 378 512.9 372.8 514.1 367.6C515 363.6 516.1 359.5 516.1 355.4C516.3 339.3 516.2 323.3 516.2 307.2C516.2 306.5 516.3 305.6 515.9 305.1C515 304.1 515.1 302.9 514.9 301.7C514.8 300.8 514.8 299.9 514.4 299.1C512.9 295.6 512 291.9 511.4 288.1C511.3 287.1 510.8 286 510.1 285.4C508.8 284.4 508 283.2 507.4 281.8C506.5 279.7 505.5 277.7 504.5 275.7C503.7 274.2 502.7 272.8 501.5 271.6C499.7 269.9 498.1 268.1 496.6 266.1C495.5 264.5 495.2 262.6 494.4 260.9C491.9 255.7 489.6 250.5 487.2 245.3C486.5 243.9 485.8 242.5 485.9 240.9C485.9 240.5 485.5 240 485.2 239.5C483.6 237.1 481.2 235.4 480.6 232.3C480.6 232 480 231.9 479.7 231.6C476.5 228.7 473.4 225.8 470.2 222.9C469.9 222.6 469.5 222.3 469.1 222.1C466.9 221 464.7 220.1 462.5 219C460.9 218.2 459.4 217.2 457.9 216.3C456.8 215.6 455.6 214.9 454.4 214.4C453.5 214 452.5 213.8 451.8 212.9C451 211.9 449.9 211.6 448.7 211.5C447 211.3 445.2 211.2 443.5 210.7C436.5 208.7 429.5 206.6 422.5 204.5C421.4 204.2 420.2 203.9 419 203.9C408.4 203.6 397.8 204.3 387.2 205C385.5 205.1 383.7 205.3 382 205.6C377.9 206.3 373.9 207.1 369.8 207.7C363.9 208.5 358.3 209.7 352.9 212.3C350.8 213.3 348.4 214.1 346.1 214.3C342.1 214.6 338 214.4 333.9 214.4C332.7 214.4 331.7 213.9 330.8 213C329.1 211.5 327.9 209.3 325.5 208.7C325 208.6 324.7 207.8 324.3 207.3C322.7 205.2 321.2 203.1 319.6 201.1C319.3 200.7 319 200.2 318.7 200.1C317.5 199.9 317.2 198.8 316.5 198.1C316.1 197.7 315.8 197 315.3 196.7C312.9 195.4 311.3 193.4 309.5 191.5C309 190.9 308.4 190.4 307.8 190C303.5 187.1 298.9 185 293.5 185.4C292.9 185.4 292.2 185.3 291.6 185.4C288 186 284.5 186.6 280.9 187.2C279.5 187.4 278.1 187.9 276.7 188C272.6 188.2 268.5 188.1 264.3 188.9C260.7 189.6 257.5 191.2 254 192.3C253.2 192.6 252.4 193.1 251.6 193.2C245.8 194.1 239.9 195 234 194.7C232.6 194.6 231.3 194.7 229.9 194.7C229.4 194.7 228.9 194.8 228.3 194.9C228.8 196.1 228.9 197.5 229.6 198.1C231.7 199.8 232.6 202.3 234 204.4C237.4 209.5 239.6 215.5 243.5 220.3C244.8 221.9 245.6 224 247.7 224.9C248.4 225.2 248.8 226 248.7 226.9C248.4 229.5 249.6 232.3 247.5 234.6C247.4 236.6 245.5 238.2 246 240.4C246.1 240.7 246 241.1 245.8 241.3C243.2 243.4 244.3 247.1 242.2 249.4C242.3 250.9 241.3 252 240.6 253.2C238.7 256.3 235.8 258.3 233.4 261C230.8 263.9 227.5 266.2 225.6 269.7C225.5 269.9 225.4 270.1 225.2 270.3C223.1 271.8 221 273.5 218.7 274.6C217.2 275.3 216 276.1 215.6 277.6C213.1 278 213.1 278 211.5 279.9C211.1 280.3 210.6 280.7 210.1 281C208.7 281.7 207 282.2 206 283.2C204.4 284.7 202.7 285.9 200.9 287C198.3 288.6 196.1 290.9 193.2 292.1C192.6 292.3 192.1 293 191.7 293.5C190.4 294.8 189.1 296.1 187.8 297.5C186.9 298.4 185.9 298.9 184.6 299C183.7 299.1 182.8 299.4 181.9 299.7C180.2 300.3 178.5 301 176.8 301.4C171.5 302.6 166.1 303.6 160.7 304.6C159.2 304.9 157.7 305 156.3 305.5C154.2 306.3 152 306.6 149.8 306.6C144.1 306.7 138.5 306.8 132.8 306.9C132 306.9 131.1 307 130.4 307.1C130.3 308.3 130.2 309.3 130 310.3C127.3 310.3 124.8 310.3 122.3 310.3C122 309 122 307.8 121.5 306.7C120.7 304.9 120.6 303 120.6 301.1C120.6 298.7 120.6 296.3 120.5 293.9C120.5 293.1 120.3 292.3 120.2 291.6C119.9 290.3 119.6 289 119.4 287.6C119.3 286.8 119.1 286.2 118.2 285.8C116.9 285.1 115.6 284.1 114.5 283C111.2 279.4 106.7 277.5 102.5 275.4C100.7 274.5 99.5 273.4 99 271.5C98.7 270.4 98.4 269.3 97.7 268.5C95.7 265.9 94.9 262.8 94.2 259.7C93.8 258 93.4 256.2 92.9 254.2C89.7 258.7 86.8 262.8 83.7 266.9C82.9 267.9 82.1 269.3 81 269.6C79.6 270 79.2 270.9 78.6 271.9C78 272.9 77.5 274 76.9 275C76.3 276.2 75.3 277.2 74.1 277.6C72.3 278.2 71.2 279.5 70.4 281C69.5 282.7 68.2 283.9 67 285.3C66.1 286.4 65.1 287.3 64.2 288.4C62.6 290.3 61.1 292.4 59.4 294.2C57.7 295.9 55.7 297.4 56.3 300.1C55.3 300.9 54.2 300.5 53.4 301.6C51.2 304.6 48.9 307.5 48.1 311.3C47.2 315.6 46 319.8 44.9 324C44.7 324.9 44.5 325.9 44.2 326.8C43.8 328.1 43.1 329.4 42.8 330.8C42.1 335.2 41.5 339.6 40.9 344.1C40.7 345.9 40.5 347.8 40.5 349.6C40.5 366.6 40.5 383.6 40.5 400.7C40.5 402.3 40.7 404 41.2 405.6C42.5 410.1 43.7 414.7 43.3 419.5C43.3 420 43.2 420.5 43.4 420.9C44.3 423.2 45.4 425.5 46.1 427.9C46.5 429.3 47.3 429.6 48.5 429.6C49.7 429.6 51 429.9 52 430C52.9 432.6 52.1 435.5 54.8 437C55 437.1 55 437.6 55.1 437.9C56.5 440.8 55.9 443.8 56 446.8C56 447.8 55.2 448.3 54.3 448.4C53.9 448.4 53.1 448.4 52.2 448.4ZM188.6 159C188.1 159.3 187.7 159.4 187.6 159.6C186.6 161.4 185.1 161.7 183.2 161.5C182.6 161.4 181.9 161.4 181.3 161.5C180.8 161.6 180.2 161.7 179.8 162C178.6 162.8 177.2 163.1 175.8 163.4C174.7 163.6 173.6 163.8 172.6 164.3C169.4 165.8 166.5 167.8 163.1 168.7C162.6 168.8 162 169.1 161.7 169.5C159.9 171.8 157.2 172.9 155 174.8C153.8 175.8 152.5 176.4 151.1 176.9C148.4 177.9 145.7 177.9 142.9 177.9C142 177.9 140.8 177.7 140.4 178.2C139.2 179.6 137.6 179.2 136.2 179.6C133.4 180.3 130.7 181.3 128 182.7C125.1 184.2 122.1 185.5 119.2 187C117.8 187.7 116.6 188.9 115.1 189.5C112.7 190.5 110.3 191.6 107.6 191.4C107.2 191.4 106.7 191.4 106.4 191.6C105.1 192.6 103.5 192.5 102 192.5C97 192.6 92.1 192.6 87.1 192.6C86.4 192.6 85.7 192.7 84.8 192.8C85.6 194.8 86.4 196.5 87 198.3C87.6 200 88.5 201.5 89.9 202.7C90.5 203.2 91 204 91.2 204.8C91.8 206.5 92 208.4 92.7 210C93.7 212.3 94.8 214.5 96.2 216.6C98.4 220 99.2 223.8 99.6 227.8C99.7 229.2 99.9 230.5 100.7 231.8C101.3 232.7 101.4 233.9 101.4 235C101.5 238 101.6 241.1 101.4 244.1C101.1 247.9 102.1 251.5 102.9 255.2C103.3 256.9 103.9 258.7 104.8 260.2C105.8 261.9 106.8 263.5 107.4 265.4C107.6 266.1 108.2 267 108.9 267.3C111.4 268.3 113.7 269.7 116 271.1C118.1 272.5 120.2 274 122.2 275.5C122.9 276 123.5 276.9 124.2 277.3C126.3 278.6 128.1 279.9 127.8 282.7C127.8 283.1 128.1 283.6 128.1 284.1C128.4 285.9 128.8 287.7 128.9 289.5C129.1 291.8 129 294.1 129.1 296.4C129.1 297.2 129.2 297.9 129.3 298.7C129.7 298.8 129.9 298.9 130.2 298.9C137 298.7 143.9 299.5 150.6 297.5C153.8 296.5 157.1 296.2 160.4 295.5C161.3 295.3 162.1 295.2 163 295C165.8 294.4 168.6 293.9 171.4 293.2C173.8 292.6 176.1 291.3 178.6 291C179.3 290.9 180 290.3 180.5 289.9C182.4 288.2 184.1 285.9 186.3 284.7C189.8 282.7 192.5 279.7 196.3 278.2C196.8 278 197.4 277.5 197.7 277C198.5 275.7 199.8 274.9 201.2 274.4C203.2 273.7 204.9 272.7 205.3 270.4C206 270.3 206.6 270.3 207.1 270.1C207.6 270 208.4 269.8 208.5 269.4C209.1 267.9 210.3 267.4 211.7 266.9C212.4 266.7 213.1 266.2 213.7 265.8C215.8 264.1 218.5 263.1 219.3 260.2C222.4 257.1 225.5 254.1 228.6 251C231.1 248.5 234 246.3 234.3 242.3C234.3 242.1 234.5 241.8 234.6 241.7C235.7 240.6 235.7 239.1 236.1 237.8C236.4 236.8 236.7 235.8 237.2 235C238.4 232.9 238.4 231.8 236.7 229.9C235.5 228.5 234.5 226.9 233.4 225.5C231.6 223 230.4 219.9 228.9 217.1C226.9 213.4 224.9 209.6 222.1 206.3C221.7 205.8 221.3 205.3 221 204.7C219.3 201.6 217.5 198.7 215.8 195.7C215.7 195.6 215.6 195.5 215.4 195.4C213.9 194.8 213.6 193.3 212.9 192.1C212.1 190.8 211.5 189.3 210.5 188.2C208.7 186.2 206.5 184.4 204.6 182.4C203.3 181.1 202.1 179.7 201.4 177.9C200.8 176.4 199.9 174.9 198.9 173.7C197 171.5 194.8 169.5 192.8 167.3C192.4 166.8 192.2 166 192 165.4C191.6 164.5 191.5 163 190.8 162.7C189.4 161.8 189.2 160.4 188.6 159ZM112.9 140.8C110.4 143.2 108.4 145.2 106.4 147.1C104.8 148.7 103.4 150.7 101.3 151.7C97.5 153.3 94.4 156 91 158.1C89.6 158.9 88.4 160 87.3 161.2C85.6 163 84.2 165.1 82.5 166.8C79.7 169.6 80.2 172.8 81.1 176C81.5 177.7 82.4 179.2 82.8 180.8C83.5 183.1 84.3 184 86.7 183.9C91.4 183.7 96 184.5 100.7 183.1C102.9 182.4 105.4 182.6 107.5 181.4C108.6 180.8 109.7 180.2 110.8 179.6C113.6 177.9 116.5 176.4 119.5 175.1C123.3 173.4 127 171.5 131.3 170.9C131.7 170.9 132.2 170.7 132.4 170.5C133.5 169.3 134.9 169.3 136.4 169.3C137.9 169.3 139.5 169.5 140.9 169.2C142.7 168.9 144.6 168.7 146.1 167.8C149 166 151.6 163.8 154.4 161.8C155.1 161.3 155.7 160.5 156.4 160.3C158.8 159.9 160.7 158.4 162.9 157.5C165.5 156.4 167.8 154.6 170.8 154.7C171.4 154.7 172.1 154.2 172.7 153.8C174.4 152.8 175.9 151.4 177.7 150.9C180.7 150.1 182.4 148.1 184 145.9C185.1 144.4 186.3 142.9 188.2 142.1C189.8 141.5 190.1 137.9 189.1 136.5C188.1 135.1 187 133.8 186.4 132.2C185.1 128.9 182.5 126.3 181.5 122.9C181.4 122.5 181.1 122.2 180.9 121.9C179.6 120.3 178.4 118.8 177.1 117.2C176.6 116.6 175.9 115.8 175.1 115.7C172.5 115.1 170 114.5 167.4 114.4C160.9 114.2 154.3 114.5 147.7 114.3C144.9 114.2 142.7 115.3 140.5 116.6C137.7 118.3 135.2 120.5 132.4 122.3C128.9 124.5 125.9 127.3 123.2 130.3C122.5 131 121.6 131.8 121.5 132.7C121.3 134.4 121.3 136.3 121.9 137.8C123.3 141.3 122.5 144.8 122.5 148.3C119.7 148.3 117.2 148.3 114.7 148.3C114 146 112.3 143.9 112.9 140.8Z" fill="black"/>
</svg>
