<svg width="1778" height="998" viewBox="0 0 1778 998" fill="none" xmlns="http://www.w3.org/2000/svg">
<path d="M39.8632 369.4C31.4332 370.81 25.4532 367.87 22.0532 359.81C14.3732 341.63 4.99324 323.93 1.48324 304.36C-0.29676 294.44 -0.446761 283.84 0.883239 273.85C3.31324 255.54 8.32324 237.55 10.4332 219.21C11.8632 206.81 10.2432 194.05 9.84324 181.45C9.70324 176.85 8.94324 172.26 8.82324 167.66C8.39324 150.7 7.44324 133.71 8.05324 116.77C8.38324 107.44 11.1532 98.1501 13.3032 88.9501C15.5232 79.4301 17.9632 69.9401 20.9832 60.6501C22.8932 54.7801 26.9632 50.4901 33.7932 49.8701C41.2932 49.1901 46.1132 53.4701 49.5432 59.1201C52.2132 63.5201 53.6432 68.6601 55.1632 72.3401C67.7632 70.8401 80.4732 69.7401 93.0332 67.6901C102.033 66.2201 110.903 63.7801 119.683 61.2701C137.993 56.0301 156.323 51.3601 175.543 50.7401C192.403 50.1901 209.283 49.2901 226.073 47.7301C246.633 45.8201 266.733 41.4301 286.643 35.7101C300.573 31.7001 315.083 29.6301 329.373 26.9201C344.153 24.1101 359.073 21.9301 373.783 18.8001C387.223 15.9401 400.053 17.5501 412.333 22.9501C433.123 32.0901 453.673 41.7701 474.333 51.2001C477.773 52.7701 481.173 54.4601 484.713 55.7701C493.433 59.0201 495.403 65.9101 489.573 73.2001C489.293 73.5501 489.213 74.0501 488.713 75.2701C500.843 72.5001 512.383 69.6101 524.023 67.2801C542.293 63.6101 560.603 60.1001 578.963 56.9301C596.063 53.9801 613.223 51.3301 630.423 48.9601C642.983 47.2401 655.633 46.2101 668.243 44.8501C686.543 42.8801 704.823 40.5601 723.163 38.9901C747.433 36.9201 770.893 31.2601 794.433 25.3501C809.463 21.5801 825.083 19.9301 840.513 18.0101C853.093 16.4501 865.793 15.6601 878.453 14.9501C899.853 13.7501 921.273 12.8101 942.683 11.9101C968.563 10.8201 994.463 10.1501 1020.33 8.81006C1036.46 7.97006 1052.55 6.26006 1068.65 4.88006C1083.43 3.61006 1098.18 1.91007 1112.97 1.00007C1125.9 0.200067 1138.88 0.0500665 1151.84 6.64882e-05C1155.71 -0.00993351 1159.62 1.11007 1163.44 2.02007C1168.12 3.14007 1169.99 6.88006 1170.52 11.1501C1171.03 15.3301 1167.52 22.1001 1164.02 22.3201C1156.06 22.8301 1155.93 28.7901 1155.78 33.7701C1155.33 49.2701 1154.44 64.9001 1155.95 80.2701C1157.49 96.0001 1160.67 111.75 1164.96 126.98C1169.78 144.1 1176.74 160.61 1182.54 177.46C1183.78 181.06 1185.38 181.15 1188.29 179.6C1212.93 166.37 1237.41 152.83 1262.32 140.14C1281.91 130.16 1301.98 121.14 1321.94 111.91C1338.49 104.26 1355.33 97.2201 1371.8 89.4001C1392.74 79.4501 1413.64 69.3801 1434.17 58.6101C1446.65 52.0601 1458.34 44.0201 1470.48 36.7901C1481.79 30.0501 1493.19 23.4701 1504.59 16.8801C1508.34 14.7101 1514.53 15.7001 1516.95 18.6901C1520.43 22.9801 1520.5 27.5001 1517.15 31.7401C1516.65 32.3701 1516.1 32.9601 1514.81 34.4401C1524.68 49.9501 1534.46 65.6601 1544.58 81.1601C1557.67 101.2 1571.45 120.81 1584.07 141.14C1589.92 150.56 1593.43 161.4 1598.56 171.31C1603.38 180.64 1608.92 189.6 1614.19 198.69C1614.58 199.36 1615.36 199.81 1617.1 201.4C1620.8 186.17 1624.6 171.9 1627.65 157.48C1629.58 148.36 1630.67 139.02 1631.59 129.73C1632.01 125.52 1631.45 121.12 1630.68 116.92C1629.86 112.43 1631.45 109.08 1634.68 106.54C1637.84 104.05 1641.56 103.66 1645.3 105.66C1649 107.65 1651.3 110.64 1650.54 114.9C1649.02 123.42 1647.29 131.91 1645.37 140.35C1640.87 160.1 1636.3 179.84 1631.55 199.53C1630.21 205.08 1628.56 210.62 1626.31 215.85C1624.94 219.04 1624.97 221.31 1626.37 224.51C1635.83 246.18 1645.78 267.55 1658.05 287.84C1664.5 298.51 1669.23 310.22 1675.51 321.01C1682.08 332.32 1689.17 343.39 1696.81 354C1701.45 360.45 1708.18 363.64 1716.83 363.88C1724.89 364.1 1733.25 365.69 1740.79 368.51C1748.34 371.34 1756 371.36 1763.57 372.84C1767.06 373.52 1770.63 376.25 1773.11 378.99C1775.92 382.09 1775.64 386.28 1773.31 389.97C1770.35 394.67 1765.33 395.66 1761.04 394.07C1752.31 390.81 1744.72 393.61 1737.62 397.51C1720.39 406.97 1703.5 417.05 1686.53 426.98C1676.32 432.95 1666.31 439.3 1655.99 445.07C1652.61 446.96 1651.48 448.95 1651.51 452.75C1651.63 468.62 1651.42 484.57 1658.11 499.4C1666.1 517.11 1674.79 534.5 1682.88 552.16C1692.65 573.51 1701.99 595.05 1711.75 616.39C1714.6 622.62 1718.25 628.49 1721.33 634.17C1726.39 628.47 1730.79 622.96 1735.77 618.04C1741.37 612.5 1748.43 610.95 1755.85 613.56C1765.91 617.11 1773.39 623.25 1776.8 634.11C1779.8 643.68 1773.87 655.05 1763.52 658.99C1753.4 662.85 1742.83 663.95 1732.17 661.45C1729.4 660.8 1727.85 661.53 1727.27 663.97C1725.28 672.38 1722.82 680.76 1721.8 689.31C1720.73 698.31 1721.41 707.5 1720.75 716.57C1720.14 724.96 1714.94 730.58 1707.9 734.63C1688.55 745.76 1669.02 756.6 1649.86 768.06C1638.42 774.9 1627.16 774.45 1615.12 770.24C1603.48 766.17 1591.24 764.98 1579.01 766.14C1569.52 767.04 1562.03 772.84 1554.71 778.43C1548.05 783.51 1541.7 789.01 1534.91 793.91C1532.88 795.37 1529.78 796.09 1527.23 795.96C1522.53 795.72 1519.8 796.71 1518.06 801.73C1508.02 830.77 1495.1 858.51 1479.63 885.09C1468.75 903.79 1458.61 922.93 1447.57 941.52C1439.93 954.39 1427.86 962.45 1414.5 968.69C1399.1 975.87 1382.88 980.28 1366.11 982.64C1358.45 983.72 1350.7 984.43 1342.97 984.74C1328.45 985.32 1313.91 985.92 1299.4 985.71C1273.18 985.34 1247.48 988.56 1222.21 995.4C1205.45 999.94 1190.31 998.05 1179.12 983.45C1174.79 977.81 1170.76 971.47 1168.5 964.81C1163.31 949.54 1158.85 933.98 1154.91 918.33C1149.46 896.69 1144.76 874.86 1139.71 853.02C1133.17 858.3 1127.09 863.44 1120.76 868.25C1114.81 872.77 1108.13 874.04 1100.78 871.92C1091.11 869.12 1081.55 866.15 1075.11 857.69C1069.54 850.37 1067.79 841.48 1066.93 832.76C1064.77 810.94 1063.32 789.04 1061.82 767.15C1061.17 757.74 1060.44 748.25 1060.92 738.86C1061.53 727.06 1063.37 715.33 1064.64 703.57C1064.74 702.65 1064.57 701.69 1064.51 700.38C1059.11 714.88 1053.79 728.94 1048.63 743.06C1039.13 769.08 1030.29 795.4 1017.03 819.83C1007.82 836.81 997.563 853.36 983.243 866.55C969.473 879.23 955.283 892.16 936.583 897.03C924.443 900.19 911.733 901.58 899.183 902.71C886.993 903.8 874.673 903.99 862.413 903.78C841.463 903.42 820.333 902.04 801.663 891.59C788.553 884.25 776.673 874.68 764.383 865.9C760.893 863.41 758.003 860.11 754.653 857.42C753.693 856.65 751.863 856.06 750.803 856.43C736.613 861.5 722.373 866.46 708.423 872.14C704.343 873.8 700.813 877.32 697.623 880.57C693.713 884.55 695.113 895.3 700.003 900.08C706.913 906.84 713.803 913.72 717.213 922.88C719.203 928.22 720.503 934.22 720.343 939.88C720.053 949.91 710.063 954.4 701.443 949.05C694.503 944.74 690.643 937.96 687.943 930.75C685.273 923.61 683.963 915.96 681.623 908.68C681.023 906.81 679.103 904.78 677.283 903.99C664.133 898.3 650.583 898.06 637.593 903.85C624.263 909.79 611.503 916.99 598.403 923.47C573.773 935.66 549.173 947.93 524.363 959.74C515.053 964.17 505.133 965.05 494.543 964.21C481.313 963.16 467.883 964.33 454.553 964.87C447.163 965.17 439.733 965.73 432.433 966.9C416.913 969.39 401.463 972.34 385.993 975.14C383.423 975.61 380.753 975.97 378.373 976.98C374.023 978.82 370.743 977.61 367.733 974.38C365.163 971.62 363.973 968.62 365.353 964.9C367.003 960.46 370.323 957.85 374.833 957.17C390.893 954.74 406.963 952.31 423.083 950.29C434.203 948.89 445.423 948.19 456.593 947.15C463.153 946.54 469.703 945.47 476.283 945.32C483.383 945.17 490.563 945.41 497.603 946.29C507.503 947.53 516.653 945.17 525.343 941.18C547.453 931.01 569.453 920.61 591.303 909.9C601.783 904.77 611.743 898.57 622.093 893.16C635.413 886.21 649.633 883.01 664.673 884.3C668.553 884.63 672.363 885.84 676.453 886.7C677.363 872.85 686.303 864.72 697.523 859.51C710.863 853.31 724.913 848.65 738.663 843.32C739.553 842.98 740.433 842.62 741.063 842.37C738.903 836.01 736.023 830.04 734.973 823.77C733.753 816.5 733.803 808.96 733.923 801.55C734.013 796.16 735.503 790.79 735.683 785.39C736.523 760.51 736.833 735.61 737.933 710.75C738.463 698.78 740.163 686.85 741.623 674.93C743.173 662.23 745.063 649.57 746.763 636.88C746.863 636.1 746.603 635.27 746.563 634.94C734.263 634.17 722.233 633.42 710.443 632.69C712.843 639.26 715.933 645.99 717.763 653.04C723.273 674.35 721.323 694.94 711.733 715.02C705.963 727.09 701.513 739.8 696.603 752.27C691.763 764.57 684.073 774.41 673.243 782.19C642.603 804.19 608.763 819.72 573.273 831.82C546.273 841.03 519.133 849.85 491.843 858.13C479.643 861.83 466.893 862.77 454.313 858.92C447.023 856.69 440.983 852.57 436.333 846.05C430.573 854.04 425.213 862.04 419.273 869.59C412.513 878.18 402.563 882.45 392.953 886.66C359.843 901.17 327.623 917.25 298.373 938.7C288.823 945.7 277.833 948.3 266.573 949.74C235.123 953.75 204.193 960.2 173.593 968.32C156.523 972.85 139.123 975.04 121.593 973.63C108.253 972.55 95.8832 968.27 87.4632 956.37C84.8432 952.67 80.6532 950.11 77.3332 946.87C75.3332 944.91 73.6732 942.61 71.7932 940.53C69.3132 937.8 67.1432 935.3 62.7732 934.59C54.6132 933.27 47.9532 921.78 50.1732 913.2C51.4932 908.11 50.5032 904.8 46.7532 901.18C40.9832 895.62 39.0732 887.94 37.8632 880.33C36.4732 871.58 35.2232 862.75 34.8632 853.92C34.1532 836.51 33.6832 819.07 33.8632 801.66C34.1632 773.61 35.1532 745.57 35.7132 717.52C35.9232 707.3 35.6232 697.07 35.7832 686.85C35.9132 678.92 36.7932 671 36.6232 663.09C36.4432 654.7 34.8932 646.32 34.9032 637.94C34.9132 629.56 35.1432 620.93 37.1732 612.88C38.4432 607.86 42.7732 603.32 46.5332 599.31C50.9132 594.64 56.2232 590.84 61.0032 586.53C62.1732 585.47 63.4932 583.96 63.6832 582.52C64.9432 573.05 71.6132 568.42 79.0832 564.07C93.8232 555.48 108.223 546.33 123.023 537.86C133.833 531.68 145.493 527.97 158.143 527.37C166.323 526.98 174.473 525.62 182.613 524.59C190.303 523.61 197.933 531.2 196.663 539.32C195.583 546.23 193.623 553.01 191.913 560.48C193.293 559.94 194.583 559.55 195.773 558.97C213.663 550.21 231.533 541.41 249.413 532.63C265.623 524.67 282.773 521.17 300.823 520.34C319.103 519.5 337.413 517.91 355.523 515.35C377.933 512.19 400.093 507.3 422.483 503.91C436.343 501.81 450.333 500.19 464.473 502.44C479.113 504.77 492.853 502.58 505.493 493.96C516.403 486.52 528.643 483.93 541.663 487.6C549.303 489.75 555.433 494.48 561.233 499.73C566.003 504.04 570.933 508.17 576.903 513.34C572.693 489.25 568.633 466.66 564.903 444.02C564.203 439.77 561.783 438.58 558.313 438.4C549.883 437.95 541.443 437.47 533.013 437.49C530.593 437.49 527.673 438.55 525.833 440.13C515.333 449.15 498.683 443.69 493.653 429.34C487.633 412.16 488.823 395.15 494.523 378.19C494.973 376.85 495.373 375.5 495.273 373.97C491.373 379.25 487.823 384.84 483.503 389.75C474.073 400.49 461.343 406.12 448.383 411.25C425.023 420.5 401.503 429.37 378.323 439.06C351.193 450.4 323.503 460.04 295.693 469.54C268.523 478.83 242.073 490.25 215.583 501.4C204.983 505.86 195.053 511.95 184.963 517.56C175.243 522.96 164.603 524.66 153.853 526.3C136.823 528.9 119.833 531.72 102.843 534.6C88.4532 537.04 74.1432 539.95 59.7132 542.13C50.3932 543.54 42.3932 539.84 38.0532 531.63C31.7332 519.67 25.2932 507.47 21.4032 494.62C18.8932 486.34 20.6132 476.69 20.9032 467.67C21.1232 460.79 22.7932 453.91 22.5832 447.06C22.1632 433.45 24.5832 420.62 29.8332 408.07C31.8032 403.35 31.8332 397.86 33.1732 392.84C34.9732 386.05 37.1832 379.38 39.1832 372.64C39.5232 371.78 39.6032 370.84 39.8632 369.4ZM68.0432 915.28C68.5532 914.99 69.0632 914.71 69.5732 914.42C73.6932 916.72 79.4132 918.02 81.6332 921.53C87.3232 930.52 94.2832 938.23 102.153 945.07C106.503 948.86 111.803 952.01 117.213 954.04C125.043 956.97 133.393 956.36 141.663 955.21C151.593 953.83 161.703 953.49 171.533 951.66C199.443 946.46 227.253 940.68 255.123 935.21C267.433 932.8 279.453 929.96 290.373 923.18C303.373 915.1 316.633 907.39 330.173 900.25C347.963 890.86 366.243 882.42 384.053 873.07C390.833 869.51 398.223 865.7 402.993 860.03C413.293 847.8 423.713 835.27 427.033 818.76C427.893 814.48 430.813 811.36 435.173 810.4C439.493 809.45 443.233 811.3 445.403 814.97C446.743 817.24 447.363 820.21 447.453 822.9C447.803 832.72 453.003 840.54 462.663 842.14C469.833 843.32 477.743 843.6 484.713 841.85C509.853 835.54 534.893 828.72 559.673 821.11C592.713 810.96 623.283 795.44 652.363 776.76C667.243 767.21 678.193 755.17 683.683 738.12C686.493 729.39 690.273 720.92 694.233 712.63C701.493 697.45 705.663 681.97 702.913 664.88C699.773 645.38 690.253 631.24 670.283 626.11C663.183 624.29 655.943 622.59 649.213 619.78C639.093 615.55 628.733 613.84 617.903 614.18C607.213 614.51 596.893 615.91 588.853 624.09C588.233 624.72 587.083 624.92 586.143 625.15C581.103 626.39 576.723 624.14 574.113 619.02C571.213 613.33 572.753 606.52 577.253 602.33C579.233 600.49 581.093 597.88 581.683 595.32C584.123 584.68 583.323 573.89 580.633 563.5C577.023 549.58 575.653 534.48 562.193 524.99C556.953 521.29 552.813 516.08 547.803 512.01C544.543 509.35 540.843 506.9 536.943 505.41C528.213 502.09 520.473 506.02 513.173 510.2C500.383 517.52 487.193 522.49 472.053 520.35C464.733 519.31 457.203 517.81 449.963 518.5C432.343 520.19 414.623 522.01 397.343 525.65C369.193 531.59 340.663 533.56 312.163 536.15C294.753 537.73 277.343 539.55 261.373 547.02C236.483 558.66 211.803 570.77 187.353 583.3C179.543 587.3 168.243 585.62 167.633 578.5C167.333 574.99 168.053 571.16 169.233 567.8C171.933 560.08 175.193 552.56 178.373 544.61C161.013 543.27 145.093 544.32 130.713 552.75C116.503 561.08 102.553 569.89 88.7332 578.85C86.3732 580.38 85.2232 583.75 83.4932 586.26C79.8932 591.46 76.9832 597.38 72.5032 601.66C65.9532 607.91 58.9632 613.66 55.5932 622.32C52.1932 631.05 53.1732 640.24 54.0432 649.25C55.0332 659.55 57.6832 669.71 55.5332 680.21C54.5132 685.19 53.7632 690.3 53.6132 695.37C53.3132 705.28 53.7232 715.21 53.4632 725.11C52.9732 743.82 51.8632 762.51 51.6532 781.22C51.3232 810.14 50.3332 839.1 53.6232 867.93C54.2632 873.55 56.0532 879.04 57.3132 884.59C57.8232 884.55 58.3332 884.51 58.8532 884.48C61.1732 877.64 63.8932 870.9 65.6932 863.93C67.2232 858.02 71.1132 854.79 78.0132 855.27C82.9532 855.61 86.2732 859.59 86.5532 865.06C87.0832 875.77 85.1332 886.11 81.3332 895.99C79.1832 901.58 76.8632 907.4 70.4532 910.14C69.1532 910.7 68.8232 913.51 68.0432 915.28ZM32.3232 87.5001C24.5232 106.46 23.3032 126.25 25.5832 146.53C27.2232 161.11 29.0232 175.75 29.3432 190.39C29.8032 211.67 26.5332 232.6 21.0732 253.26C16.7832 269.5 16.1632 286.07 19.4432 302.74C22.4832 318.16 30.0732 331.71 36.3332 345.82C36.7532 346.77 39.0032 347.62 40.2032 347.41C46.3732 346.31 52.4932 345.55 55.3632 338.13C56.7632 334.49 61.3532 332.72 65.5832 333.91C70.1932 335.2 73.2532 338.34 73.5832 343.51C73.6532 344.61 73.8332 345.8 74.3232 346.77C78.8532 355.64 75.2432 362.32 65.3632 363.5C63.9932 363.66 62.1232 364.59 61.5632 365.71C56.0532 376.65 51.5632 387.87 51.4032 400.48C51.3532 404.59 50.3032 408.93 48.6732 412.72C44.4032 422.63 40.3432 432.35 41.3632 443.61C41.8132 448.6 40.1732 453.75 39.7732 458.85C39.1432 466.87 38.2032 474.92 38.3832 482.93C38.6932 496.84 46.4032 508.18 52.8332 519.81C53.9032 521.75 57.5032 523.42 59.8632 523.33C68.2632 523.01 76.6832 522.26 84.9832 520.96C101.353 518.39 117.693 515.54 133.963 512.43C145.403 510.25 157.193 508.7 167.983 504.64C182.373 499.22 195.883 491.52 209.873 485.01C222.013 479.36 233.013 471.18 246.553 468.57C250.223 467.86 253.813 466.57 257.353 465.31C271.113 460.43 284.573 454.5 298.623 450.72C321.933 444.44 344.773 437.05 366.993 427.63C391.013 417.45 415.143 407.52 439.293 397.64C451.253 392.74 463.273 387.71 471.463 377.31C484.843 360.31 495.853 341.79 503.833 321.61C506.213 315.59 508.493 309.44 507.703 304.07C501.903 302.06 497.213 300.3 492.433 298.87C490.973 298.43 489.123 298.57 487.653 299.04C482.773 300.59 477.763 301.62 473.793 297.71C469.903 293.87 469.823 288.73 471.893 283.87C476.213 273.72 484.143 266.92 493.443 261.48C498.383 258.59 504.343 256.6 508.023 252.55C516.523 243.2 523.663 232.65 531.793 222.95C542.873 209.73 554.063 196.56 565.783 183.91C575.203 173.74 585.963 164.78 595.253 154.5C602.483 146.5 606.563 136.76 607.093 125.49C607.853 109.29 596.423 93.3801 584.783 91.5201C577.813 90.4101 570.403 91.6101 563.243 92.2401C552.913 93.1501 542.643 95.0701 532.303 95.4401C524.163 95.7301 515.973 94.0901 507.783 93.7401C490.873 93.0301 474.243 95.2301 457.783 99.0001C452.683 100.17 447.483 101.37 442.293 101.53C435.983 101.72 430.543 96.1501 430.853 90.9401C431.203 85.1101 436.213 81.2301 442.763 80.8001C455.573 79.9501 468.343 78.6901 481.613 77.5601C477.343 74.0701 474.243 71.2001 470.823 68.7801C454.003 56.9101 435.883 47.4301 416.623 40.1801C404.923 35.7701 392.803 33.2301 380.283 35.0401C367.333 36.9101 354.543 40.2001 341.553 41.5101C323.823 43.2901 306.443 46.2501 289.453 51.6201C264.713 59.4501 239.303 63.4701 213.413 64.7001C200.863 65.3001 188.323 66.1001 175.773 66.6901C157.043 67.5801 139.283 72.8601 121.463 78.1201C110.633 81.3201 99.7432 85.1501 88.6232 86.3001C73.7932 87.8401 59.7432 90.5001 46.9032 98.4201C42.3932 101.2 35.8332 98.4001 33.8632 93.3601C33.1432 91.4301 32.8032 89.3501 32.3232 87.5001ZM1228.46 396.73C1226.01 401.07 1223.67 404.99 1221.58 409.04C1220.95 410.25 1220.77 411.81 1220.77 413.21C1220.72 427.27 1220.63 441.33 1220.8 455.38C1220.88 462.29 1219.69 469.96 1222.24 475.94C1227.89 489.22 1225.97 502.82 1226.4 516.28C1226.66 524.29 1217.45 528.11 1210.55 523.72C1207.94 522.06 1205.25 519.86 1202.37 519.43C1187.9 517.25 1173.29 516.34 1158.74 518.28C1147.4 519.79 1136.25 522.85 1124.89 524.02C1113.84 525.16 1107.45 530.28 1102.75 540.38C1092.51 562.35 1080.19 583.48 1075.27 607.48C1073.76 614.84 1071.57 623.47 1079.42 629.84C1087.08 636.05 1090.08 645.05 1089.36 654.16C1088.31 667.48 1085.88 680.78 1083.01 693.86C1079.34 710.6 1075.85 727.31 1076.7 744.53C1077.8 766.82 1078.77 789.14 1080.85 811.35C1081.83 821.84 1084.57 832.32 1087.78 842.41C1090.75 851.76 1106.37 856.24 1114.54 850.91C1118.12 848.57 1121.92 846.35 1124.85 843.33C1127.93 840.15 1131.88 836.25 1132.26 832.36C1132.86 826.11 1135.14 821.27 1139.03 816.94C1143.39 812.09 1149.98 810.77 1154.12 813.47C1158.44 816.28 1160.82 823.87 1157.13 828.49C1151.89 835.06 1153.86 841.73 1154.85 848.36C1157.12 863.44 1159.95 878.43 1162.65 893.45C1166.75 916.24 1171.81 938.82 1181.85 959.82C1191.33 979.65 1200.43 983.72 1218.02 979.81C1244.55 973.91 1271.38 971.87 1298.42 971.11C1315.49 970.63 1332.6 970.42 1349.59 968.97C1361.8 967.93 1374.13 966.05 1385.91 962.79C1407.37 956.85 1426.32 946.45 1438 926.34C1444.3 915.49 1450.09 904.35 1456.02 893.29C1467.77 871.38 1479.67 849.54 1491.07 827.45C1495.09 819.65 1497.83 811.19 1500.95 803.54C1497.18 802.76 1493.36 802.98 1490.85 801.27C1483.09 795.97 1484.81 787.38 1492.45 782.3C1496.25 779.77 1501.23 778.77 1505.82 777.79C1508.83 777.14 1510.2 776.08 1511.06 773.04C1520.3 740.27 1534 709.34 1549.79 679.24C1555.24 668.85 1559.67 657.93 1564.56 647.25C1553.57 650.43 1545.71 657.14 1538.27 664.21C1530.22 671.86 1522.86 680.24 1515.07 688.18C1510.5 692.83 1505.01 693.12 1500.49 689.31C1496.75 686.15 1495.77 678.88 1499.84 675.27C1505.22 670.47 1504.25 664.66 1503.63 659.2C1501.36 639.31 1497.2 619.75 1490.79 600.76C1484.51 582.16 1478.18 563.53 1467.07 547.06C1466.16 545.72 1464.2 544.85 1462.55 544.29C1459.04 543.1 1455.2 542.72 1451.92 541.14C1449.54 539.99 1447.95 539.91 1445.75 541.21C1427.56 551.98 1409.05 562.23 1391.15 573.47C1371.73 585.67 1352.87 598.76 1333.76 611.45C1325.02 617.26 1315.13 621.9 1307.8 629.14C1299.27 637.56 1292.64 648.01 1285.85 658.03C1282.63 662.78 1279.62 667.12 1274.04 669.2C1271.61 670.1 1269.71 671.4 1269.26 674.61C1268.98 676.58 1267.23 678.78 1265.52 680.03C1261.81 682.75 1257.61 683.33 1253.62 680.37C1248.83 676.82 1246.18 670.99 1248.39 666.57C1250.47 662.41 1253.95 658.96 1256.94 655.03C1251.02 648.2 1251.69 643.68 1260.04 637.63C1261.14 636.83 1262.42 635.7 1262.73 634.5C1263.66 630.87 1264.28 627.14 1264.79 623.42C1267.52 603.76 1270.67 584.13 1272.73 564.4C1274.7 545.54 1276.21 526.58 1276.62 507.64C1276.97 491.32 1276.13 474.91 1274.52 458.66C1273.81 451.44 1271.3 443.59 1267.21 437.67C1256.47 422.13 1242.95 408.93 1228.46 396.73ZM1281.5 624.49C1289.36 620.4 1294.57 615.31 1297.88 607.78C1301.93 598.58 1306.92 589.81 1314.75 583.02C1323.61 575.35 1332.33 567.51 1341.07 559.7C1349.59 552.08 1357.91 544.23 1366.59 536.8C1381.6 523.97 1399.07 515.06 1416.8 506.77C1420.73 504.93 1426.29 504.58 1430.47 505.75C1435.78 507.24 1440.92 510.42 1445.28 513.93C1450.1 517.81 1454.27 520.53 1460.26 516.54C1462.42 515.1 1465.13 514.53 1467.54 513.43C1484.29 505.82 1501.13 498.37 1517.75 490.48C1539.71 480.06 1561.35 468.94 1583.43 458.78C1599.38 451.44 1615.86 445.24 1632.02 438.34C1633.28 437.8 1634.67 435.83 1634.73 434.46C1635.4 420.22 1633.6 406.17 1629.69 392.52C1624.29 373.65 1614.78 356.56 1605.3 339.54C1593.41 318.21 1580.93 297.08 1577.37 272.43C1575.31 258.2 1576.83 247.29 1589.81 237.82C1594.96 234.06 1599.4 229.32 1604.08 224.93C1606.21 222.93 1606.7 220.73 1605.01 217.9C1600.48 210.32 1596.52 202.39 1591.81 194.93C1585.52 184.97 1578.83 175.41 1574.8 164.08C1570.92 153.19 1566.7 142.07 1560.48 132.43C1541.38 102.84 1521.18 73.9501 1501.61 44.6501C1499.43 41.3901 1497.65 41.3901 1494.82 43.0601C1489.32 46.2901 1483.8 49.5001 1478.24 52.6201C1463.1 61.1201 1448.3 70.3201 1432.71 77.8801C1398.6 94.4101 1364.09 110.12 1329.71 126.09C1314.84 133 1299.75 139.46 1284.99 146.59C1267.58 155 1250.38 163.86 1233.15 172.64C1219.56 179.57 1206.09 186.73 1192.49 193.64C1189.72 195.05 1189.34 196.38 1190.31 199.39C1196.4 218.17 1200.25 237.45 1201.55 257.14C1202.62 273.33 1202.86 289.57 1203.72 305.78C1204.1 313.01 1204.9 320.24 1205.87 327.42C1207.3 337.97 1209.02 348.48 1210.68 359C1211.54 364.45 1212.53 369.88 1213.55 375.84C1220.86 371.2 1226.78 373.01 1232.18 377.73C1238.64 383.37 1245.13 388.98 1251.34 394.89C1258.46 401.66 1264.76 409.37 1272.33 415.54C1286.36 426.98 1290.48 442.35 1290.5 459.08C1290.52 479.6 1289.5 500.12 1288.63 520.63C1287.85 538.76 1286.68 556.87 1285.63 574.98C1285.35 579.75 1284.94 584.51 1284.54 589.27C1283.55 600.74 1282.56 612.18 1281.5 624.49ZM935.533 316.1C930.603 317.98 926.453 319.78 922.153 321.13C917.543 322.58 911.363 319.28 909.993 314.96C908.423 310.03 911.713 303.65 915.953 301.63C924.033 297.77 931.883 293.43 939.743 289.14C940.673 288.63 941.603 287.31 941.743 286.26C942.873 277.81 944.403 269.35 944.693 260.85C945.173 246.68 945.223 232.46 944.673 218.29C944.313 208.99 941.463 200.46 933.763 193.92C923.603 185.29 914.773 175.14 910.433 162.46C906.183 150.05 886.773 145.3 877.133 147.67C870.013 149.42 863.203 153.21 856.833 157.04C841.233 166.44 826.193 176.78 810.433 185.89C805.253 188.89 803.023 191.6 803.503 197.56C804.223 206.32 799.243 209.05 793.923 210.35C789.893 211.33 784.843 207.24 782.933 201.55C780.503 194.3 775.723 189.2 769.253 185.43C747.723 172.88 725.063 171.83 701.733 179.05C687.083 183.58 673.333 190.14 660.273 198.23C642.423 209.28 625.873 222.09 611.593 237.37C596.523 253.48 582.293 270.41 568.313 287.48C555.953 302.57 544.573 318.28 537.403 336.86C533.013 348.24 527.553 359.65 520.303 369.37C510.863 382.02 506.323 395.27 507.633 410.73C508.053 415.73 508.713 420.74 512.453 424.78C520.713 420.48 528.813 416.86 538.083 417.6C545.983 418.23 553.893 418.78 561.763 419.66C572.353 420.84 579.053 422.57 582.493 435.01C583.793 439.72 584.063 444.71 584.673 449.6C586.023 460.37 587.043 471.19 588.643 481.93C590.353 493.42 591.423 505.19 594.833 516.21C602.313 540.43 616.923 560.93 631.893 581.04C633.263 582.88 636.873 584.6 638.953 584.15C655.253 580.6 671.353 576.06 687.693 572.7C703.593 569.43 719.683 567.04 735.743 564.57C743.213 563.42 750.883 563.46 758.323 562.14C772.683 559.59 786.873 556.05 801.263 553.63C828.933 548.98 856.653 544.56 884.433 540.59C898.293 538.61 912.323 537.79 926.273 536.53C941.713 535.14 957.223 534.29 972.603 532.39C991.243 530.08 1009.78 526.9 1027.92 524.17C1022.99 501.92 1018.08 479.79 1013.1 457.34C1010.58 457.34 1007.84 456.88 1005.31 457.43C999.193 458.75 993.073 459.65 990.113 467C987.763 472.84 983.743 478.07 980.093 483.32C974.623 491.18 963.893 486.38 961.053 480.09C958.013 473.38 960.163 464.69 966.733 458.1C973.173 451.63 982.593 447.74 984.523 437.34C984.903 435.29 986.043 433.38 986.883 431.42C998.083 405.43 1003.56 378.41 1001.78 351.14C997.743 348.49 993.983 346.75 991.183 344.02C986.603 339.55 983.053 334.02 978.363 329.7C971.813 323.66 963.913 319.71 955.193 317.28C953.303 329.56 950.343 332.71 942.243 331.42C936.323 330.47 933.543 324.7 935.533 316.1ZM771.083 850.24C773.033 851.92 775.493 854.01 777.933 856.12C788.863 865.53 800.723 873.43 813.983 879.25C832.803 887.51 852.943 887.13 872.773 887.98C884.443 888.48 896.213 886.94 907.933 886.2C918.693 885.52 929.213 883.22 938.663 878.13C955.373 869.13 970.013 857.35 982.013 842.51C996.073 825.11 1008.13 806.34 1016.44 785.61C1025.78 762.3 1034.14 738.58 1042.16 714.78C1046.85 700.86 1050.42 686.52 1053.78 672.2C1055.83 663.47 1056.25 654.38 1057.91 645.54C1059 639.71 1059.2 634.24 1056.96 628.6C1055.96 626.09 1055.52 622.99 1055.96 620.35C1057.41 611.7 1057.84 603.21 1057.06 594.36C1055.74 579.31 1052.77 564.8 1046.55 551.12C1044.64 546.91 1041.25 543.01 1037.62 540.1C1035.94 538.75 1032.05 539.95 1029.19 540.29C1017.92 541.6 1006.64 542.84 995.413 544.45C983.413 546.17 971.533 548.9 959.493 550.09C940.743 551.95 921.883 552.62 903.113 554.31C892.183 555.3 881.313 557.1 870.483 558.9C854.973 561.49 839.533 564.47 824.043 567.18C812.263 569.24 800.423 570.93 788.673 573.17C777.733 575.25 766.973 578.33 755.983 580.05C746.883 581.47 737.453 580.85 728.373 582.39C709.503 585.59 690.763 589.52 672.013 593.36C665.623 594.67 659.353 596.61 651.883 598.56C656.643 600.89 660.073 602.89 663.723 604.31C688.543 614 714.543 616.37 740.883 616.39C747.123 616.4 750.643 612.73 750.813 606.48C750.913 602.99 750.683 599.48 750.863 595.99C751.263 588.3 759.113 582.79 765.593 585.54C770.523 587.63 772.703 593.41 771.283 599.92C768.643 612.04 765.873 624.14 763.663 636.34C761.593 647.77 760.053 659.31 758.543 670.83C757.053 682.22 755.153 693.63 754.743 705.08C753.903 728.49 754.023 751.93 753.583 775.35C753.473 781.44 752.793 787.51 752.283 793.59C751.363 804.8 750.333 816.04 754.253 826.91C755.363 829.99 757.343 832.75 759.093 835.95C762.713 833.37 765.273 831.28 768.073 829.6C775.063 825.4 781.813 820.47 789.313 817.51C798.253 813.98 807.823 811.92 817.233 809.73C838.643 804.73 860.183 800.29 881.543 795.11C890.073 793.04 898.293 789.66 906.633 786.8C910.713 785.4 914.313 785.8 917.633 788.78C921.263 792.04 921.533 796.14 920.023 800.13C918.623 803.85 915.623 805.89 911.173 806.11C903.623 806.49 896.013 807.03 888.573 808.34C873.913 810.93 859.293 813.81 844.773 817.07C818.103 823.04 791.363 829 771.083 850.24ZM504.533 357C505.093 357.29 505.653 357.58 506.213 357.87C510.083 350.56 514.403 343.45 517.733 335.9C525.093 319.21 531.783 302.1 543.923 288.18C557.743 272.34 571.733 256.58 586.583 241.73C601.033 227.28 616.213 213.46 631.933 200.39C647.693 187.29 664.713 175.7 684.003 168.21C702.333 161.09 720.983 155.91 741.213 158.6C757.203 160.73 771.913 165.4 785.113 174.71C785.813 175.2 786.963 175.69 787.673 175.46C793.193 173.65 798.733 171.84 804.123 169.68C820.613 163.08 834.893 152.79 848.853 142.13C863.213 131.16 878.283 125.6 896.643 130.67C911.343 134.73 922.733 141.48 927.823 156.84C930.483 164.85 935.453 171.87 942.193 177.12C954.413 186.63 960.643 198.61 959.703 214.31C958.753 230.32 958.303 246.37 957.603 262.4C957.383 267.38 957.073 272.36 956.783 277.54C974.263 267.07 991.063 256.55 1008.31 246.84C1021.75 239.28 1035.32 231.57 1049.63 226C1069.59 218.23 1090.25 212.23 1110.7 205.75C1128.17 200.21 1145.78 195.12 1163.28 189.7C1169.38 187.81 1169.28 187.66 1167.3 181.54C1161.58 163.86 1155 146.4 1150.47 128.43C1146.13 111.2 1143.34 93.5101 1140.94 75.8801C1138.61 58.7601 1136.87 41.4901 1138.82 24.1401C1139.08 21.8001 1139.44 19.4801 1139.81 16.7401C1138.21 16.7401 1137.22 16.6901 1136.24 16.7501C1117.9 17.7201 1099.56 18.7501 1081.22 19.6601C1066.03 20.4201 1050.83 21.0601 1035.63 21.7201C1019.95 22.4101 1004.27 23.1701 988.583 23.7001C973.973 24.1901 959.343 24.1601 944.753 24.8001C928.753 25.5001 912.763 26.4601 896.803 27.7501C879.583 29.1401 862.343 30.5801 845.213 32.8301C830.463 34.7601 815.673 37.0501 801.253 40.6201C772.823 47.6601 744.293 53.5501 714.923 54.7401C704.043 55.1801 693.143 55.7601 682.303 56.7501C662.583 58.5401 642.863 60.3601 623.213 62.7901C605.323 65.0001 587.503 67.8501 569.713 70.8001C559.893 72.4301 550.203 74.8401 540.453 76.8901C544.353 77.5001 548.053 77.0301 551.733 76.3701C559.813 74.9201 567.813 72.6501 575.953 72.0401C588.563 71.1001 598.873 76.5601 607.703 85.4601C626.903 104.83 628.343 131.67 614.643 153.96C607.633 165.36 598.193 174.74 588.263 183.82C576.463 194.6 565.413 206.27 554.713 218.15C545.593 228.26 537.383 239.2 528.893 249.87C528.163 250.78 527.753 252.96 528.313 253.72C533.473 260.73 531.233 266.98 526.663 273.02C523.513 277.19 520.183 281.22 516.933 285.31C525.043 290.84 526.633 298.55 525.053 307.53C522.493 322.15 516.193 335.25 508.903 347.98C507.233 350.86 505.973 353.98 504.533 357ZM1153.99 471.14C1157.73 464.1 1160.83 456.11 1165.76 449.47C1174.69 437.42 1184.78 426.24 1194.23 414.57C1198.34 409.5 1203.67 405.69 1201.19 396.87C1197.23 382.76 1195.2 368.07 1192.92 353.54C1191.37 343.65 1190.74 333.6 1189.75 323.62C1188.42 310.2 1186.98 296.79 1185.86 283.35C1184.37 265.59 1183.7 247.74 1181.57 230.07C1180.41 220.5 1176.93 211.22 1174.73 202.71C1151.07 209.52 1128.35 216.15 1105.57 222.59C1083.52 228.82 1061.43 234.95 1040.93 245.47C1027.06 252.59 1013.03 259.51 999.783 267.67C984.263 277.24 969.513 288.06 954.283 298.44C955.423 299.7 955.603 300.11 955.873 300.17C972.803 304.27 987.053 313.04 999.523 324.97C1000.38 325.79 1001.94 326.7 1002.9 326.46C1013.33 323.83 1018.96 330.95 1018.59 340.13C1018.03 353.9 1018.17 367.79 1016.37 381.41C1014.52 395.44 1010.85 409.25 1007.64 423.08C1006.46 428.18 1004.33 433.05 1002.8 437.53C1007.83 437.53 1012.41 437.52 1016.99 437.53C1024.66 437.55 1028.96 440.63 1030.6 448.31C1032 454.87 1032.04 461.75 1033.66 468.24C1037.73 484.56 1042.35 500.74 1046.75 516.98C1047.88 521.14 1050.7 522.14 1054.68 521.47C1059.36 520.67 1064.11 520.27 1068.78 519.44C1078.3 517.75 1087.81 515.98 1097.28 514.01C1098.8 513.69 1100.66 512.47 1101.36 511.14C1106.2 501.95 1111.05 492.74 1115.27 483.26C1116.89 479.61 1119.19 475.68 1116.8 471.06C1113.46 464.6 1114.17 459.49 1118.23 455.61C1121.34 452.64 1128.4 452.44 1133.45 455.91C1140.67 460.86 1147.5 466.29 1153.99 471.14ZM1634.39 455.68C1621.89 460.67 1609.48 465.32 1597.32 470.56C1582.75 476.84 1568.23 483.29 1554.02 490.32C1542.57 495.99 1531.86 503.14 1520.38 508.73C1506.12 515.67 1491.4 521.67 1476.75 528.13C1496.51 569.22 1509.74 612.69 1520.4 657.75C1521.83 656.68 1523.13 655.83 1524.28 654.82C1531.39 648.64 1538.26 642.16 1545.63 636.3C1551.95 631.28 1559.42 627.6 1565.27 622.15C1570.42 617.34 1577.66 618.32 1581.29 623.66C1585.47 629.82 1585 636.8 1583.01 642.92C1579.3 654.36 1574.99 665.8 1569.37 676.4C1556.77 700.17 1544.09 723.85 1535.05 749.26C1531.96 757.96 1529.26 766.79 1526.39 775.57C1534.61 770.91 1541.95 765.67 1549.23 760.34C1557.54 754.25 1566.28 749.04 1576.84 748.38C1590.94 747.51 1604.88 749.08 1618.49 752.8C1628.57 755.55 1637.95 755.41 1647.24 749.7C1663.07 739.97 1679.22 730.75 1695.26 721.36C1700.83 718.1 1703.14 713.39 1702.91 706.92C1702.27 688.88 1705.97 671.64 1712.78 654.96C1713.45 653.33 1712.81 650.65 1711.86 648.98C1709.43 644.73 1705.83 641.07 1703.84 636.66C1696.9 621.29 1690.94 605.47 1683.67 590.26C1672.29 566.43 1660.16 542.96 1648.35 519.34C1642.49 507.62 1636.92 495.76 1635.84 482.46C1635.13 473.74 1634.88 464.97 1634.39 455.68ZM1614.69 239.19C1610.18 243.42 1606.08 247.52 1601.7 251.29C1598.25 254.26 1595.59 257.33 1594.51 262.08C1592.24 272.08 1595.27 281.33 1598.14 290.44C1604.51 310.64 1616.87 327.9 1626.81 346.34C1634.54 360.68 1642.17 375.15 1645.54 391.22C1648.15 403.64 1649.68 416.28 1651.84 429.73C1676.63 414.33 1701.55 398.84 1726.47 383.35C1723.6 382.39 1721.1 382.12 1718.68 382.43C1703.21 384.42 1692.39 376.34 1684.31 364.94C1675.24 352.13 1667.44 338.38 1659.59 324.75C1649.34 306.97 1639.33 289.04 1629.7 270.92C1624.17 260.52 1619.59 249.62 1614.69 239.19ZM1205.15 429.06C1204.68 428.95 1204.22 428.85 1203.75 428.74C1191.76 440.81 1180.31 453.38 1173.77 469.38C1171.28 475.48 1170.01 482.15 1168.76 488.67C1167.92 493.03 1171.02 499.41 1173.49 499.45C1184.51 499.59 1195.54 499.51 1207.1 499.51C1206.79 495.93 1207.57 491.44 1205.9 488.23C1200.22 477.33 1202.02 466.31 1203.42 455.01C1204.49 446.42 1204.61 437.71 1205.15 429.06ZM1334.65 589.83C1368 569.94 1398.17 545.09 1433.45 527.81C1429.02 523.22 1424.68 523.55 1420.39 525.42C1412.11 529.02 1403.74 532.47 1395.78 536.69C1371.39 549.62 1353.57 570.29 1334.65 589.83ZM1060.54 536.9C1063.96 548.73 1067.45 560.85 1071.1 573.47C1077.73 559.52 1084.1 546.1 1090.6 532.41C1080.33 533.94 1070.47 535.41 1060.54 536.9ZM1136.85 480.14C1131.62 489.63 1126.62 498.71 1121.24 508.46C1131.91 506.28 1141.79 504.26 1152.19 502.13C1148.98 493.02 1143.71 486.04 1136.85 480.14ZM601.203 595.07C606.443 593.34 611.773 591.57 617.643 589.63C610.973 580.24 604.693 571.39 597.753 561.61C598.953 573.32 600.043 583.86 601.203 595.07ZM1736.85 643.12C1737.22 643.88 1737.58 644.63 1737.95 645.39C1744.05 644.06 1750.15 642.75 1756.24 641.38C1759.15 640.72 1758.73 638.83 1757.64 636.92C1754.25 630.99 1748.4 630.1 1743.6 634.98C1741.14 637.49 1739.08 640.4 1736.85 643.12Z" fill="#E8BBF3"/>
<path d="M139.623 594.22C139.653 600.47 136.103 604.14 129.953 604.19C124.073 604.24 119.263 599.83 119.203 594.35C119.153 589.2 124.623 583.8 129.803 583.9C135.163 584 139.593 588.65 139.623 594.22Z" fill="#E8BBF3"/>
<path d="M141.594 635.16C135.854 635.13 130.984 630.36 131.194 624.98C131.384 620.01 136.644 614.95 141.644 614.92C147.174 614.88 151.584 619.62 151.574 625.57C151.564 631.61 147.834 635.19 141.594 635.16Z" fill="#E8BBF3"/>
<path d="M121.253 130.2C115.013 124.88 113.773 119.98 117.143 115.04C120.033 110.81 125.573 109.39 130.253 111.67C135.583 114.27 136.983 119.75 134.183 127.09C139.693 131.81 141.343 137.69 138.403 142.18C135.583 146.48 129.183 148.14 124.763 145.71C119.503 142.81 118.363 137.87 121.253 130.2Z" fill="#E8BBF3"/>
<path d="M1265.63 762.3C1265.59 768.45 1261.97 772.03 1255.76 772.03C1249.95 772.04 1245.17 767.45 1245.29 761.99C1245.41 756.87 1250.4 751.91 1255.56 751.79C1261.09 751.66 1265.67 756.44 1265.63 762.3Z" fill="#E8BBF3"/>
<path d="M1184.62 637.38C1184.62 643.56 1181.01 647.14 1174.79 647.15C1168.97 647.16 1164.09 642.52 1164.23 637.12C1164.37 631.98 1169.35 627.08 1174.53 626.99C1180.2 626.9 1184.62 631.45 1184.62 637.38Z" fill="#E8BBF3"/>
<path d="M673.613 385.89C673.553 391.84 669.713 395.44 663.473 395.39C658.003 395.35 653.223 390.78 653.153 385.53C653.093 380.44 658.653 375.02 663.823 375.12C669.433 375.22 673.673 379.89 673.613 385.89Z" fill="#E8BBF3"/>
<path d="M678.414 471.31C673.004 471.28 668.164 466.61 668.184 461.43C668.204 456.27 673.724 450.91 678.874 451.06C684.364 451.22 688.624 455.71 688.624 461.37C688.624 467.84 685.014 471.35 678.414 471.31Z" fill="#E8BBF3"/>
</svg>
