<svg width="440" height="794" viewBox="0 0 440 794" fill="none" xmlns="http://www.w3.org/2000/svg">
<path d="M40.4844 624.5C33.0844 622.2 25.6844 619.9 18.2844 617.8C16.3844 617.2 14.7844 616.5 13.3844 614.9C11.4844 612.6 8.88444 612.1 6.48444 613.1C3.98444 614.3 3.38443 616.6 3.38443 619.1C3.28443 626.1 3.58442 633.1 3.28442 640C2.88442 648.2 2.08443 656.4 1.38443 664.7C1.18443 667.4 0.884424 670.1 0.784424 672.9C0.584424 683.5 -0.0155701 694 0.38443 704.6C0.88443 716.9 4.38444 728.4 11.0844 738.9C12.7844 741.5 14.0844 744.4 15.4844 747.2C17.5844 751.5 17.4844 755.9 16.8844 760.5C15.7844 768.4 20.1844 773.3 28.8844 774.1C40.5844 775.1 51.6844 771.8 62.5844 768.2C76.7844 763.6 90.1844 757 103.384 750.1C109.184 747 115.184 744.4 121.084 741.5C122.384 740.9 123.684 740 124.884 739.2C126.384 738.2 127.284 738.7 128.084 740.1C135.284 753.7 142.484 767.4 149.784 781C151.384 784 153.184 787.1 155.584 789.6C158.984 793.2 163.784 793.5 168.484 793.1C171.484 792.8 174.384 792.6 177.284 792.2C184.584 791.3 191.984 790.5 199.184 789.2C212.584 786.9 225.184 782.1 237.084 775.6C244.484 771.6 251.484 767 258.484 762.3C265.084 757.8 271.484 753 277.784 748.2C283.484 743.8 289.084 739.1 294.684 734.5C295.684 733.7 296.684 732.8 297.784 732C299.384 730.7 300.884 730.2 302.984 731.3C305.484 732.5 307.984 731.2 309.084 728.5C310.184 725.8 309.484 722.7 307.084 721.9C301.484 720.1 298.084 715.6 293.984 711.9C287.184 705.8 280.884 699.2 273.984 693.2C266.884 687 259.284 681.5 250.384 678.1C250.084 678 249.884 677.7 248.984 677.2C250.584 676.9 251.684 676.8 252.684 676.6C253.884 676.3 254.984 675.9 256.184 675.6C269.884 672.4 281.884 659.2 283.484 645.2C283.784 642.7 283.884 640.3 283.984 637.8C284.184 632.5 284.184 627.2 284.584 621.9C284.884 617.6 283.584 613.7 281.484 610.2C276.884 602.6 271.984 595.2 267.184 587.7C264.884 584.1 261.784 581.3 258.284 578.9C257.384 578.3 256.684 577.3 256.184 576.4C254.484 573.1 251.484 571.8 248.184 571.2C240.984 569.8 233.684 569.8 226.484 570.7C216.284 571.9 206.284 574.1 196.484 577C179.384 582.2 163.384 589.7 148.484 599.6C148.284 599.7 147.984 599.8 147.784 599.9C143.684 602.8 143.484 602.8 142.184 598.1C141.284 594.6 141.184 591 140.584 587.4C139.384 579.4 138.184 571.4 136.884 563.4C135.484 555.4 133.884 547.5 132.484 539.5C130.984 531.1 130.884 522.5 130.884 514C130.884 505 130.584 496.1 130.384 487.1C130.184 478.8 129.884 470.5 129.684 462.2C129.584 458.7 129.384 455.3 129.384 451.8C129.184 442 129.284 432.2 128.784 422.4C128.284 413.9 127.484 405.3 126.184 396.8C124.384 385 122.084 373.2 119.684 361.6C117.784 352.7 115.084 343.9 113.084 335C110.284 322.9 107.684 310.7 105.284 298.5C103.884 291.4 102.584 284.2 101.784 276.9C100.584 267 99.8844 257 99.0844 247.1C98.4844 238.9 97.9844 230.6 97.4844 222.4C96.9844 215.2 96.5844 208.1 95.8844 200.9C95.1844 193 94.1844 185 93.3844 177.1C92.6844 170.8 92.0844 164.5 91.2844 158.2C90.2844 150.1 88.9844 142.1 87.8844 134.1C87.0844 128.6 86.4844 123.2 85.6844 117.7C84.7844 111.5 83.6844 105.4 82.7844 99.3004C82.0844 95.0004 81.5844 90.7004 80.9844 86.3004C80.2844 81.2004 79.6844 76.2004 79.0844 71.1004C78.7844 69.0004 78.5844 66.8004 78.4844 64.7004C78.0844 56.3004 77.3844 47.8004 77.5844 39.4004C77.7844 30.8004 77.9844 22.1004 80.5844 13.7004C80.8844 12.8004 81.0844 12.0004 81.3844 11.0004C85.8844 11.4004 90.2844 11.7004 94.7844 12.2004C98.9844 12.6004 103.084 13.2004 107.284 13.6004C114.184 14.3004 121.084 15.0004 127.884 15.6004C132.684 16.0004 137.584 16.3004 142.484 16.7004C148.484 17.2004 154.484 17.7004 160.384 18.2004C162.884 18.4004 165.284 18.5004 167.784 18.7004C174.184 19.1004 180.684 19.4004 187.084 19.8004C195.284 20.4004 203.484 21.2004 211.684 21.8004C216.584 22.2004 221.584 22.4004 226.484 22.9004C235.884 24.0004 245.384 24.9004 254.484 28.1004C254.984 28.3004 255.584 28.5004 256.084 28.8004C256.284 28.9004 256.384 29.2004 256.884 29.8004C254.884 32.9004 253.084 36.4004 250.684 39.4004C246.184 45.1004 243.084 51.0004 243.584 58.6004C244.084 65.1004 243.784 71.7004 244.184 78.3004C244.684 86.2004 245.484 94.1004 246.184 101.9C246.884 109.5 247.484 117.2 248.284 124.8C249.084 133.3 250.084 141.8 250.884 150.4C251.384 155.2 251.484 160 251.984 164.7C252.584 170.2 253.384 175.6 253.984 181.1C254.584 186.4 254.984 191.8 255.584 197.1C256.184 202.4 256.884 207.7 257.484 213C257.884 216.6 258.184 220.2 258.584 223.8C259.284 231.1 260.084 238.4 260.584 245.7C261.184 255.4 261.484 265.2 261.884 274.9C261.684 274.9 261.484 274.9 261.184 275C260.584 271.1 259.884 267.1 259.484 263.2C258.684 255.9 257.884 248.6 257.384 241.3C257.084 235.8 257.484 230.3 257.184 224.8C256.984 221.4 256.584 217.8 255.384 214.6C253.384 209.2 248.584 206.1 241.884 209.3C238.884 210.8 235.984 212.7 233.584 215C228.584 219.8 223.884 225 219.184 230.2C215.584 234.2 212.084 238.3 208.684 242.4C203.784 248.3 198.884 254.2 193.984 260.1C190.184 264.7 186.184 269.1 182.484 273.8C175.484 282.6 166.584 289.7 160.584 299.3C154.484 309.2 151.484 320 152.884 331.5C154.684 346.5 161.384 359.2 172.484 369.6C183.184 379.7 196.184 385.6 209.784 390.3C213.484 391.6 217.384 392.6 221.584 393.8C219.084 395 216.884 396.1 214.684 397.1C207.484 400.2 202.284 405.1 199.484 412.4C196.984 418.9 197.284 425.4 198.884 432C201.484 442.6 206.384 452.1 211.884 461.3C220.284 475.3 229.084 489 237.984 502.7C243.784 511.7 250.484 520.2 258.084 527.8C260.984 530.7 264.184 531.5 268.284 530.8C272.984 529.9 277.784 529.7 282.484 528.8C295.284 526.2 304.384 518.8 310.884 507.6C318.884 493.7 327.084 479.9 335.384 466.1C338.484 461 342.084 456.2 345.684 451C346.384 451.6 347.084 452.1 347.584 452.8C353.984 460 361.184 466.2 369.284 471.3C376.284 475.8 383.584 479.8 390.884 483.7C395.284 486.1 399.784 488.3 404.484 490C409.384 491.8 414.184 489.6 416.084 484.7C418.584 478 420.684 471.1 422.484 464.1C426.084 449.8 429.284 435.4 432.684 421.1C434.684 412.5 436.784 403.9 438.984 395.3C441.184 386.5 438.384 379.2 432.684 372.4C425.584 364.1 416.484 359 406.684 354.9C401.284 352.7 395.784 350.7 390.184 349.1C385.084 347.7 379.784 347 374.684 346.1C376.184 343.9 378.384 341.5 379.584 338.8C383.084 330.7 386.684 322.7 389.484 314.3C392.684 304.6 395.284 294.7 397.784 284.8C398.684 281.3 399.184 277.5 399.184 273.8C399.184 266.7 399.384 259.4 398.184 252.5C396.684 243.8 393.884 235.3 391.584 226.8C389.984 220.7 388.184 214.7 386.384 208.6C384.284 201.3 380.484 198.3 372.884 197C364.984 195.8 357.084 195.3 349.084 194.4C343.384 193.8 337.684 193.1 331.884 193.9C324.684 194.9 317.984 197 312.484 202.1C305.584 208.5 301.384 216.4 297.884 224.9C290.684 242 283.784 259.3 276.584 276.4C274.884 280.4 272.684 284.2 270.684 288.1C270.484 288.5 270.184 288.9 269.584 289.7C269.284 288.4 268.884 287.7 268.884 286.8C268.684 283.9 268.484 281 268.384 278.1C268.184 273.9 268.184 269.7 267.884 265.4C267.384 258.2 266.684 251 266.084 243.8C265.684 239.2 265.384 234.6 264.884 230C264.284 224.2 263.584 218.4 262.984 212.6C262.584 209 262.184 205.4 261.884 201.8C261.184 195.5 260.484 189.2 259.884 182.9C259.484 178.8 259.184 174.7 258.784 170.6C258.084 163.4 257.384 156.2 256.784 148.9C256.384 144.2 256.084 139.5 255.684 134.8C255.084 127.6 254.384 120.4 253.684 113.2C253.484 111 253.284 108.8 253.184 106.5C252.684 95.0004 251.884 83.6004 251.784 72.1004C251.784 66.0004 252.584 59.8004 253.884 53.8004C254.584 50.5004 257.084 47.6004 258.784 44.5004C262.284 38.2004 265.684 32.0004 269.084 25.7004C270.184 23.7004 269.384 21.8004 267.984 20.3004C266.384 18.5004 264.184 18.9004 261.984 19.3004C260.484 19.6004 258.984 19.7004 257.484 19.6004C252.484 19.2004 247.484 18.5004 242.484 18.0004C235.484 17.4004 228.484 17.0004 221.484 16.5004C217.884 16.3004 214.184 16.1004 210.584 15.9004C205.184 15.7004 199.784 15.7004 194.384 15.4004C184.984 14.8004 175.584 14.1004 166.184 13.5004C160.984 13.1004 155.784 12.8004 150.584 12.4004C143.584 11.8004 136.684 11.0004 129.684 10.3004C124.384 9.80041 118.984 9.3004 113.684 8.7004C107.584 7.9004 101.484 7.1004 95.4844 6.1004C88.6844 4.9004 81.9844 3.5004 75.2844 2.1004C74.0844 1.9004 72.9844 1.40041 71.7844 0.900406C69.1844 -0.0995939 66.3844 1.0004 65.3844 3.5004C64.2844 6.2004 65.3844 9.1004 67.9844 10.1004C71.1844 11.3004 71.8844 12.5004 71.1844 15.9004C71.0844 16.4004 70.7844 16.8004 70.7844 17.3004C70.8844 27.7004 70.9844 38.1004 71.1844 48.5004C71.2844 51.9004 71.4844 55.3004 71.8844 58.6004C72.4844 64.3004 73.0844 70.0004 73.8844 75.7004C75.0844 83.8004 76.2844 92.0004 77.5844 100.1C78.6844 106.7 79.9844 113.3 80.9844 120C81.9844 126.4 82.7844 132.9 83.6844 139.3C84.6844 146.4 85.6844 153.5 86.5844 160.6C87.2844 165.7 87.7844 170.9 88.2844 176C88.9844 182.4 89.6844 188.7 90.3844 195.1C90.6844 197.6 90.7844 200.2 90.9844 202.8C91.3844 209.4 91.6844 216 92.0844 222.6C92.6844 232.4 93.2844 242.2 94.1844 252C94.9844 261 96.0844 270 97.1844 279C98.5844 289.8 99.8844 300.7 101.784 311.4C103.284 319.8 105.784 328.1 107.784 336.5C110.384 347.6 113.184 358.6 115.584 369.8C117.284 377.8 118.584 385.9 119.684 394C120.684 400.8 121.384 407.7 121.784 414.6C122.384 425.6 122.584 436.6 122.884 447.7C123.184 459.2 123.284 470.6 123.484 482.1C123.684 495.2 123.484 508.4 124.184 521.5C124.684 531.3 126.284 541.1 127.584 550.9C128.384 557.1 129.684 563.1 130.184 569.5C128.184 566.2 126.084 562.9 124.384 559.4C120.984 552.6 117.784 545.8 114.684 538.9C111.984 532.8 107.984 528 102.584 524.2C97.0844 520.4 91.7844 516.3 86.0844 513C78.8844 508.7 70.5844 507 62.3844 505.7C51.9844 504.1 41.4844 502.9 31.5844 498.8C25.5844 496.3 21.3844 500.6 21.3844 505.9C21.2844 516.4 21.3844 526.9 21.8844 537.4C22.3844 546.2 23.3844 555 24.4844 563.7C26.3844 579.1 29.3844 594.2 34.3844 608.8C35.8844 613.8 38.2844 619.1 40.4844 624.5ZM262.884 318.4C265.484 318.6 267.284 317.2 267.984 314.4C268.384 312.9 268.584 311.4 268.684 309.8C268.884 306.5 269.584 303.3 271.284 300.4C273.684 296.3 275.984 292.1 278.084 287.8C280.984 281.8 283.884 275.8 286.584 269.7C289.784 262.5 292.684 255.2 295.584 247.8C300.184 236.3 304.184 224.5 311.584 214.2C317.284 206.3 324.584 201.6 334.584 201.8C339.984 201.9 345.384 202.3 350.784 202.8C356.784 203.3 362.684 204 368.684 204.8C373.584 205.5 377.084 207.7 378.484 213.1C380.184 219.6 382.684 225.9 384.484 232.4C386.384 239.1 388.384 245.8 389.384 252.6C390.284 258.3 389.784 264.2 390.084 270C390.684 280.4 389.084 290.4 385.784 300.2C382.684 309.4 379.184 318.4 375.484 327.4C373.284 332.8 369.984 337.5 364.884 340.8C362.584 342.3 362.284 344.8 363.484 347.4C364.184 348.9 364.684 350.6 364.884 352.3C365.284 355.9 368.384 358.2 371.784 356.9C377.884 354.6 383.984 355.6 389.984 357C399.584 359.2 408.484 363.1 416.284 369C425.684 376.1 432.484 384.6 429.884 397.6C428.184 406.2 427.084 414.9 425.284 423.5C423.284 433.2 420.884 442.8 418.284 452.4C415.884 461.3 414.084 470.3 409.684 478.5C408.184 481.4 407.284 482 404.184 480.7C396.984 477.7 389.784 474.5 382.784 471.1C370.484 465.2 359.784 457.1 350.584 446.9C349.584 445.8 349.484 444.9 350.384 443.9C356.184 436.7 361.884 429.4 367.784 422.4C372.484 416.8 373.584 411.7 368.684 406C366.484 403.5 364.084 401 361.484 398.9C354.384 393.2 346.584 388.6 338.284 385C333.484 382.9 329.184 384.5 327.484 388.7C326.784 390.5 326.184 392.5 326.184 394.4C325.884 401.5 326.084 408.6 327.684 415.6C329.884 425.6 333.884 434.7 339.784 443C341.284 445.2 341.084 446.4 339.884 448.2C335.484 454.8 330.984 461.5 326.684 468.2C319.584 479.5 312.684 490.9 305.584 502.2C301.584 508.4 296.984 514.1 290.184 517.5C283.784 520.7 276.984 521.8 269.884 521.5C267.084 521.4 264.684 520.8 262.684 518.9C258.284 514.7 253.684 510.5 249.684 505.9C245.384 501 241.484 495.7 237.884 490.3C232.384 482 227.084 473.6 221.984 465C215.084 453.1 207.884 441.1 205.984 427.1C205.184 420.7 206.284 414.7 211.184 410C217.084 404.5 224.384 401.5 231.884 399C234.684 398.1 237.584 397.2 240.484 397C244.584 396.8 248.784 397.3 252.884 397.4C255.984 397.4 258.184 395.2 258.384 392.2C258.484 389.5 256.184 386.6 253.384 386.5C251.284 386.4 249.084 386.6 247.084 387.1C239.384 389.1 231.584 389.1 223.984 387C216.384 384.9 208.784 382.7 201.484 380C191.584 376.3 182.684 370.8 175.384 363.1C172.284 359.8 169.484 356.2 167.284 352.3C161.584 342.8 158.784 332.6 160.484 321.3C161.884 311.5 166.584 303.6 173.084 296.4C179.084 289.8 184.984 283.2 190.684 276.3C199.584 265.5 208.084 254.4 216.884 243.4C220.184 239.3 223.684 235.3 227.284 231.5C232.284 226.3 237.184 221 243.984 217.9C246.384 216.8 246.884 217 247.284 219.5C247.984 223.8 248.384 228.1 248.884 232.5C249.684 239.6 250.184 246.8 251.084 253.9C252.384 264 253.684 274.1 255.284 284.2C256.584 292.1 257.284 299.9 257.284 307.9C257.284 310.8 256.084 312.9 254.384 315C253.684 315.8 252.884 316.5 252.084 317.3C250.384 319.2 250.684 322.5 252.484 324.5C254.184 326.4 257.784 326.6 259.284 324.7C260.584 322.8 261.584 320.7 262.884 318.4ZM11.7844 626.2C18.2844 627.7 24.7844 628.8 31.0844 630.7C38.6844 633 46.3844 635.5 52.2844 641.4C54.6844 643.9 57.3844 643.9 59.5844 641.6C61.8844 639.2 61.5844 636.5 59.1844 633.9C56.0844 630.6 52.9844 627.3 50.2844 623.7C42.3844 612.9 37.9844 600.5 34.8844 587.6C32.7844 578.9 31.3844 570.1 30.1844 561.2C29.0844 552.8 28.7844 544.3 28.0844 535.8C28.0844 535.2 27.9844 534.6 27.9844 534.1C27.1844 525.8 27.7844 517.6 29.0844 509.3C29.3844 507.8 29.9844 507.6 31.4844 507.8C42.2844 509.9 53.1844 511.7 63.9844 513.7C70.7844 515 77.4844 517 83.3844 520.7C87.6844 523.4 91.9844 526.2 95.7844 529.6C99.8844 533.2 103.784 537.2 106.184 542.4C109.684 549.9 113.384 557.3 117.584 564.4C121.784 571.7 126.384 578.7 129.484 586.6C131.884 592.9 133.784 599.1 132.184 606C131.384 609.5 131.484 613.3 131.584 616.9C131.684 620.2 133.284 621.7 136.184 622C139.584 622.3 140.984 621.5 142.284 618.3C142.584 617.5 142.884 616.7 143.384 616.1C147.784 610.9 152.284 605.7 157.984 601.7C165.084 596.8 172.384 592 180.584 589C188.884 585.9 197.284 582.9 205.884 580.3C213.884 578 222.084 576.8 230.484 576.8C235.084 576.8 239.684 577.6 244.284 578.4C245.284 578.6 246.584 579.8 246.984 580.8C247.784 583.3 249.484 584.3 251.684 585.5C254.684 587.1 257.884 589 259.984 591.5C265.184 597.5 269.484 604.2 272.884 611.4C274.484 614.9 276.084 618.4 275.584 622.5C275.284 624.7 275.284 626.9 275.284 629.1C275.284 634.4 276.084 639.7 275.484 644.8C273.984 656.4 263.484 666.1 251.384 667C246.384 667.3 241.984 668.2 238.084 671.4C237.384 672 235.984 672 234.984 671.8C231.984 671.2 228.984 670.2 225.884 669.8C223.084 669.5 220.584 671.5 219.984 673.8C219.384 676.2 220.584 678.9 223.484 680C226.484 681.1 229.784 681.8 232.984 682.4C235.184 682.8 237.584 682 239.684 682.6C251.484 685.8 262.084 691.3 271.184 699.5C276.284 704.1 281.184 709 286.084 713.8C289.084 716.7 291.884 719.8 294.784 722.8C285.384 732.9 275.584 742.1 264.984 750.3C253.684 759.1 241.884 767 228.784 772.8C220.384 776.6 211.684 779.7 202.584 781.2C197.084 782.1 191.484 783 185.984 783.2C178.884 783.5 171.784 783.4 164.684 783.1C163.284 783 161.584 781.8 160.584 780.6C158.384 777.8 156.384 774.7 154.484 771.6C149.684 763.5 144.984 755.4 140.484 747.1C138.184 743 136.284 738.8 134.284 734.6C134.884 734.2 135.184 733.9 135.484 733.8C142.084 730.3 148.784 726.9 155.284 723.1C158.484 721.3 161.484 718.9 164.284 716.5C166.084 715 166.484 712.8 165.984 710.2C165.184 706.1 162.384 704 158.984 702.7C153.684 700.7 148.384 701.3 143.384 703.8C136.584 707.2 129.884 710.8 123.284 714.3C121.084 715.5 119.984 717.4 119.884 720C119.784 723.7 121.284 726.7 123.184 729.7C123.984 731 123.884 731.8 122.484 732.4C116.984 735.1 111.584 737.9 106.084 740.6C97.4844 744.7 88.8844 748.6 80.2844 752.6C70.6844 757.1 60.9844 761.4 50.5844 763.9C44.4844 765.4 38.3844 766 32.1844 765.6C27.6844 765.3 25.9844 763 26.8844 758.5C27.1844 757.1 27.3844 755.7 27.2844 754.3C26.6844 748.4 24.4844 743 20.9844 738.2C10.7844 724 6.78443 707.9 6.88443 690.7C6.98443 681.5 7.78443 672.3 8.38443 663.1C8.68443 658.2 8.88443 653.4 9.38443 648.5C9.78443 641.5 10.7844 634.2 11.7844 626.2ZM345.384 439.7C343.384 436.1 341.584 433.1 339.984 430C336.984 424.2 335.184 417.9 334.284 411.4C333.584 406.2 333.384 400.9 334.584 395.7C335.084 393.6 335.984 393.1 337.584 394C343.184 397.1 348.784 400.2 354.184 403.6C356.584 405.1 358.384 407.5 360.284 409.6C362.684 412.4 362.684 413 360.784 416.1C357.884 420.7 355.084 425.3 352.084 429.8C350.184 433.1 347.884 436.1 345.384 439.7ZM155.284 711.9C147.584 718.5 139.184 723.3 130.484 727.9C130.084 726.9 129.884 726.4 129.684 725.9C128.484 722.7 128.584 722.7 131.684 721C134.184 719.6 136.584 718.1 139.084 716.7C141.684 715.2 144.284 713.5 147.084 712.2C149.484 711 152.084 710.4 155.284 711.9Z" fill="black"/>
<path d="M334.984 302.1C331.784 302.1 330.184 303.8 329.884 306.8C329.584 310.2 332.184 312.4 334.984 312.6C337.384 312.8 340.684 309.7 340.484 307.2C340.284 304.4 337.884 301.5 334.984 302.1Z" fill="black"/>
<path d="M260.184 347.801C259.484 350.701 262.584 353.101 265.284 353.301C267.784 353.501 270.684 350.401 270.684 347.901C270.684 345.201 268.184 342.801 265.484 342.801C262.084 342.701 260.184 344.501 260.184 347.801Z" fill="black"/>
<path d="M85.8844 632.801C87.2844 635.001 89.2844 638.201 91.4844 641.301C92.3844 642.501 93.9844 643.301 94.5844 644.601C98.3844 652.101 101.984 659.701 105.684 667.201C106.584 669.101 106.284 671.601 108.484 673.101C110.684 674.501 113.284 674.401 115.384 672.401C117.284 670.601 117.184 667.801 115.884 665.801C112.884 661.201 109.684 656.601 107.084 651.801C103.384 644.801 100.184 637.601 96.5844 630.601C95.6844 628.901 94.0844 627.201 92.3844 626.501C89.3844 625.001 85.7844 628.001 85.8844 632.801Z" fill="black"/>
<path d="M200.584 647.801C199.284 648.501 197.984 649.301 196.584 649.801C191.784 651.701 186.884 653.501 182.084 655.501C177.484 657.401 172.884 659.401 168.384 661.601C166.284 662.701 164.584 664.401 162.784 665.901C161.084 667.301 160.584 670.401 161.584 672.301C162.884 674.601 165.084 675.401 167.584 675.001C170.184 674.601 171.884 673.301 173.084 671.001C174.984 667.301 178.884 666.001 182.484 664.701C188.884 662.401 195.484 660.401 202.084 658.401C204.584 657.601 206.484 655.301 206.184 653.001C205.884 650.101 203.684 648.201 200.584 647.801Z" fill="black"/>
</svg>
