<svg width="518" height="579" viewBox="0 0 518 579" fill="none" xmlns="http://www.w3.org/2000/svg">
<path d="M437.601 481.8C437.901 484 438.201 485.7 440.201 487.1C444.501 489.9 448.501 493.2 452.601 496.4C455.601 498.8 458.601 501.2 461.501 503.7C463.001 504.9 464.001 506.6 464.401 508.4C464.701 509.7 465.401 510.7 465.901 511.8C467.601 515.2 469.901 518.1 472.101 521.2C473.001 522.4 473.301 524 473.901 525.5C474.201 526.2 474.501 526.9 474.901 527.6C476.501 530.4 478.301 533 479.301 536.1C479.901 538.1 481.301 539.8 482.301 541.6C483.101 543 484.001 544.2 485.301 545.2C486.801 546.4 487.601 548.4 488.701 550.1C489.201 550.9 489.601 551.8 490.301 552.4C491.601 553.4 492.201 554.5 492.301 556.2C492.301 556.9 493.001 557.7 493.601 558.3C494.701 559.5 496.401 560.4 496.501 562.4C496.501 562.6 496.701 562.9 496.801 563C499.401 564.5 499.901 567.8 502.201 569.5C502.501 569.7 502.601 570.3 502.601 570.8C502.601 573.4 502.601 576 502.601 578.8C500.001 578.8 497.401 578.8 494.901 578.8C493.301 576 491.701 573.1 489.301 570.8C488.901 570.4 488.401 570 488.301 569.6C488.201 567.8 486.801 566.9 485.701 566C484.601 565.1 484.001 564 483.901 562.6C483.901 562.1 483.801 561.4 483.501 561.1C481.301 558.7 479.801 555.8 477.801 553.2C477.601 552.9 477.201 552.7 476.901 552.5C475.801 551.8 475.101 551.1 474.701 549.7C474.201 548 473.001 546.4 472.101 544.8C471.801 544.2 471.201 543.6 471.001 543C470.301 539.8 468.301 537.2 466.701 534.4C465.901 533 465.201 531.5 464.601 530C463.701 527.5 462.001 525.5 460.401 523.4C459.801 522.7 459.401 521.9 459.001 521.1C458.801 520.8 458.801 520.3 458.601 520C457.401 518.3 456.601 516.6 456.001 514.6C455.001 511.6 452.301 509.8 450.001 508C448.601 506.9 446.901 506 445.701 504.6C445.301 504.2 444.901 503.9 444.401 503.6C440.101 500.5 435.901 497.3 431.601 494.2C430.601 493.4 429.801 492.6 429.701 491.2C429.501 489.7 428.801 488.4 428.401 486.9C427.901 484.8 427.401 482.8 426.801 480.4C424.101 480.7 421.001 479.5 418.101 481.4C418.001 481.5 417.801 481.5 417.601 481.5C412.101 481.7 407.201 484.4 401.901 485.1C400.601 485.3 399.401 485.5 398.101 485.5C396.701 485.5 395.301 485.8 394.301 486.7C391.001 489.9 386.801 490.2 382.701 490.7C378.301 491.2 374.001 491.5 369.601 491.9C361.401 492.7 353.301 494.1 345.001 493.4C341.101 493.1 337.301 494.4 333.401 495C329.001 495.7 324.601 496.3 320.201 497.3C314.101 498.7 307.901 498.7 301.601 498.7C260.401 498.6 219.301 498.7 178.101 498.7C172.501 498.7 167.001 498.2 161.401 497.5C154.401 496.7 147.401 496.4 140.401 495.9C137.501 495.7 134.701 495.5 131.801 495.3C128.101 495.1 124.501 494.8 120.801 494.7C117.901 494.6 115.001 494.7 112.201 494.5C110.601 494.4 109.101 494 107.501 493.7C106.501 493.5 105.501 493.4 104.301 493.3C104.601 496.8 103.201 499.7 101.801 502.5C99.0008 507.6 95.9008 512.5 93.1008 517.6C90.7008 521.9 87.8008 525.9 86.0008 530.5C85.7008 531.3 85.0008 531.8 84.5008 532.5C80.6008 538.2 76.4008 543.7 73.1008 549.7C70.9008 553.6 68.5008 557.2 65.5008 560.4C63.9008 562.2 62.2008 563.9 60.6008 565.5C60.3008 565.8 59.9008 565.8 59.6008 566C58.4008 566.8 57.2008 567.7 56.1008 568.6C55.7008 568.9 55.4008 569.4 55.1008 569.4C52.7008 569.3 51.1008 571.3 48.9008 571.8C46.7008 572.3 44.6008 572.9 42.5008 573.5C41.0008 574 39.6008 574.6 38.3008 575.4C37.0008 576.2 35.7008 576.5 34.3008 576.4C32.6008 576.3 30.8008 576.4 29.0008 576.4C29.0008 573.6 29.0008 571.1 29.0008 568.5C32.4008 566.4 36.1008 564.9 40.1008 564.1C41.9008 563.8 43.9008 563.5 45.0008 561.7C45.2008 561.4 46.0008 561.4 46.6008 561.4C47.8008 561.4 48.6008 561 49.4008 560.1C50.1008 559.3 51.2008 558.8 52.2008 558.1C53.0008 557.5 53.8008 556.9 54.6008 556.2C58.1008 552.9 61.5008 549.6 63.7008 545.3C67.5008 538 72.2008 531.3 77.2008 524.8C77.9008 523.9 78.5008 523 78.9008 522C81.1008 516.7 84.6008 512 87.4008 507C90.0008 502.3 92.6008 497.6 95.5008 492.6C93.2008 492.4 91.3008 492.2 89.4008 492C83.0008 491.5 76.5008 491.3 70.1008 490.4C65.8008 489.8 61.6008 488.5 57.4008 487.3C53.2008 486 49.1008 484.3 44.8008 483.1C41.0008 482.1 37.1008 481.6 33.3008 480.8C31.0008 480.3 28.7008 479.5 26.4008 479.1C24.1008 478.7 21.7008 478.7 19.0008 478.5C19.0008 480.7 19.0008 482.5 19.0008 484.6C16.2008 484.9 13.6008 484.7 10.7008 484.7C10.7008 483.4 10.6008 482.4 10.6008 481.3C10.6008 469.4 10.6008 457.5 10.6008 445.6C10.6008 444.3 10.2008 443 10.0008 441.7C9.80078 440.4 9.40078 439.1 9.30078 437.7C9.20078 435.1 9.20078 432.6 9.20078 430C9.20078 427 9.00078 424.1 8.40078 421.2C7.80078 418.3 7.90078 415.3 7.80078 412.4C7.60078 408.2 7.40078 404 7.20078 399.7C7.00078 395.2 6.60078 390.8 6.50078 386.3C6.40078 379.7 6.60078 373 6.40078 366.4C6.40078 363.4 5.90078 360.4 5.70078 357.4C5.70078 357 5.50078 356.6 5.50078 356.2C5.70078 348.8 3.60078 341.7 3.30078 334.3C3.00078 327 2.60078 319.6 2.60078 312.3C2.70078 293.8 2.50078 275.2 2.60078 256.7C2.70078 249.2 3.20078 241.7 3.60078 234.2C4.00078 227.7 4.40078 221.3 4.90078 214.8C5.20078 211.4 5.60078 208 6.40078 204.7C7.30078 201 7.80078 197.1 7.80078 193.3C7.90078 153.3 7.90078 113.4 7.90078 73.3996C7.90078 72.7996 7.80078 72.0996 7.80078 71.1996C5.50078 71.1996 3.20078 71.1996 0.800781 71.1996C0.800781 68.2996 0.800781 65.7996 0.800781 63.1996C1.00078 63.0996 1.20078 62.8996 1.40078 62.8996C4.40078 62.8996 7.00078 61.4996 9.70078 60.3996C10.3008 60.1996 10.9008 60.1996 11.6008 60.1996C14.8008 60.1996 18.0008 60.1996 21.2008 60.1996C22.4008 60.1996 23.6008 59.9996 24.7008 61.0996C25.1008 61.5996 26.2008 61.4996 27.0008 61.4996C34.9008 61.4996 42.8008 61.4996 50.7008 61.4996C52.2008 61.4996 53.6008 61.0996 54.8008 60.0996C55.7008 59.2996 56.9008 58.9996 58.2008 58.7996C60.3008 58.3996 62.4008 57.5996 64.5008 56.7996C68.1008 55.2996 71.4008 53.3996 75.1008 52.1996C80.2008 50.4996 84.7008 47.5996 89.4008 45.1996C90.8008 44.4996 92.2008 44.0996 93.7008 44.0996C98.7008 44.1996 103.801 44.1996 108.801 44.5996C112.101 44.7996 115.401 45.3996 118.401 47.0996C118.501 47.0996 118.501 47.1996 118.601 47.1996C124.801 48.6996 129.001 53.4996 134.501 56.3996C136.601 57.4996 138.701 58.4996 140.801 59.3996C144.401 60.8996 148.001 62.2996 151.601 63.5996C153.001 64.0996 154.501 64.4996 156.001 64.5996C159.801 64.9996 163.601 65.2996 167.501 65.4996C168.701 65.5996 169.901 65.6996 170.801 64.5996C171.101 64.2996 171.801 64.2996 172.401 64.2996C174.501 64.2996 176.601 64.1996 178.601 64.1996C202.801 64.1996 227.001 64.1996 251.301 64.1996C252.301 64.1996 253.201 64.1996 254.501 64.1996C253.201 62.8996 252.001 62.0996 250.501 61.6996C249.101 61.2996 247.701 60.5996 246.301 60.0996C245.301 59.7996 244.301 59.3996 243.301 59.3996C240.301 59.2996 237.601 58.4996 234.801 57.3996C232.801 56.5996 230.501 56.4996 228.301 55.9996C223.901 55.0996 219.401 54.0996 215.001 53.0996C214.401 52.9996 213.701 52.7996 213.101 52.7996C203.701 51.9996 195.001 48.5996 186.501 45.0996C180.601 42.6996 174.701 40.6996 168.601 38.9996C163.301 37.4996 157.901 35.9996 152.601 34.4996C151.301 34.0996 150.201 33.5996 149.401 32.2996C149.001 31.6996 148.101 31.0996 147.301 30.8996C140.201 28.8996 133.101 26.9996 125.901 25.0996C125.701 25.0996 125.601 25.0996 125.401 24.9996C122.201 23.1996 118.601 23.6996 115.101 23.6996C108.301 23.6996 101.501 23.6996 94.7008 23.6996C93.7008 23.6996 92.6008 23.6996 91.7008 23.6996C91.1008 21.6996 91.1008 18.2996 91.5008 15.3996C92.3008 15.2996 93.1008 15.1996 94.0008 15.1996C104.401 15.1996 114.801 15.0996 125.201 15.1996C127.001 15.1996 128.801 15.6996 130.501 16.1996C136.601 17.7996 142.601 19.5996 148.601 21.2996C150.701 21.8996 152.901 22.4996 155.001 23.1996C156.001 23.4996 156.701 24.0996 157.401 24.9996C158.001 25.6996 159.001 26.2996 159.901 26.5996C164.101 27.7996 168.301 28.8996 172.501 30.0996C177.201 31.3996 181.901 32.5996 186.401 34.1996C190.101 35.4996 193.601 37.3996 197.301 38.6996C203.201 40.6996 209.201 42.4996 215.301 44.1996C218.201 44.9996 221.301 44.9996 224.301 45.5996C229.701 46.5996 235.101 47.6996 240.401 48.8996C241.901 49.1996 243.301 49.9996 244.801 50.3996C246.001 50.6996 247.301 50.8996 248.501 51.0996C250.101 51.3996 251.801 51.6996 253.301 52.0996C257.601 53.2996 261.301 55.7996 265.301 57.7996C265.801 57.9996 266.301 58.2996 266.801 58.4996C269.201 59.4996 269.201 59.4996 270.101 61.9996C271.101 61.2996 272.001 60.5996 272.901 59.9996C277.501 57.3996 282.201 54.8996 286.801 52.3996C287.301 52.0996 288.001 51.7996 288.601 51.7996C292.201 51.6996 295.201 49.6996 298.401 48.2996C301.101 47.1996 303.601 45.6996 306.301 44.5996C308.701 43.6996 311.401 43.2996 313.801 42.3996C322.301 39.2996 330.801 36.1996 339.401 33.0996C345.301 30.8996 351.201 28.5996 357.301 26.7996C360.301 25.8996 363.601 25.9996 366.801 25.6996C367.801 25.5996 368.801 25.6996 369.701 24.8996C370.301 24.3996 371.301 24.2996 372.201 24.1996C375.101 23.7996 378.101 23.4996 381.001 23.0996C381.401 23.0996 381.901 23.0996 382.201 22.8996C383.701 21.3996 385.601 21.7996 387.401 21.7996C394.401 21.7996 401.501 21.5996 408.501 21.7996C412.801 21.8996 416.801 21.0996 420.801 19.5996C423.201 18.6996 425.701 17.8996 428.201 17.0996C428.901 16.8996 429.601 16.4996 430.301 16.4996C433.001 16.5996 435.101 15.1996 437.301 14.0996C438.901 13.2996 440.701 12.7996 442.301 11.9996C443.301 11.5996 444.401 11.1996 445.201 10.5996C447.401 8.89956 449.901 7.89956 452.501 6.89956C454.301 6.19956 456.001 5.19956 457.901 4.49956C460.701 3.39956 463.601 2.59956 466.301 1.59956C471.101 -0.100436 475.701 1.09956 480.501 0.699564C480.501 3.49956 480.501 5.99956 480.501 8.69956C480.101 8.79956 479.701 8.89956 479.301 8.89956C477.201 9.09956 475.101 9.39956 473.001 9.89956C470.001 10.5996 467.201 11.7996 464.301 12.8996C461.401 13.9996 458.501 15.2996 455.601 16.5996C455.001 16.7996 454.501 17.1996 454.001 17.5996C452.201 18.8996 450.201 19.8996 448.101 20.6996C446.101 21.3996 444.301 22.4996 442.401 23.3996C440.801 24.0996 439.301 24.7996 437.501 24.9996C435.601 25.1996 433.801 25.8996 432.001 26.3996C429.301 27.2996 426.601 28.0996 423.901 29.1996C419.501 30.8996 415.001 30.5996 410.501 30.4996C404.201 30.3996 397.901 30.3996 391.601 30.2996C391.401 30.2996 391.101 30.1996 390.901 30.2996C387.301 32.1996 383.101 31.4996 379.301 32.3996C378.301 32.5996 377.301 33.1996 376.301 33.6996C375.801 33.8996 375.301 34.1996 374.801 34.1996C373.901 34.2996 373.001 34.2996 372.201 34.2996C367.001 33.8996 362.201 35.4996 357.401 37.2996C345.101 41.8996 332.801 46.2996 320.501 50.7996C320.001 50.9996 319.401 51.1996 318.901 51.2996C314.501 51.8996 310.601 54.1996 306.701 55.9996C303.901 57.2996 300.901 58.4996 298.001 59.5996C296.601 60.0996 295.001 60.3996 293.501 60.6996C293.501 60.8996 293.501 60.9996 293.501 61.1996C294.001 61.2996 294.501 61.3996 294.901 61.4996C298.601 61.7996 302.201 60.6996 305.701 59.9996C316.701 57.9996 327.601 55.5996 338.601 53.8996C344.201 52.9996 349.901 52.8996 355.601 52.6996C363.901 52.3996 372.201 52.1996 380.501 52.1996C393.701 52.0996 406.901 52.2996 420.101 52.1996C426.501 52.0996 432.801 53.1996 439.101 54.1996C445.201 55.1996 451.401 56.1996 457.501 56.9996C463.801 57.7996 470.201 58.2996 476.601 58.8996C478.301 59.0996 480.001 58.9996 481.601 59.0996C487.501 59.0996 493.401 59.0996 499.301 59.0996C500.401 59.0996 501.501 59.1996 502.801 59.2996C502.901 60.0996 503.101 60.7996 503.101 61.3996C503.101 64.3996 503.801 67.1996 504.601 70.0996C505.101 71.8996 505.301 73.7996 505.701 75.6996C505.801 76.3996 506.201 76.9996 506.401 77.5996C506.701 78.4996 507.101 79.3996 507.201 80.2996C507.601 85.1996 508.801 89.7996 510.201 94.4996C510.601 95.8996 510.501 97.3996 511.001 98.6996C511.801 100.9 511.601 103.5 513.201 105.5C513.401 105.7 513.401 106.1 513.401 106.4C513.201 108.8 514.501 110.7 515.101 112.9C515.301 113.5 515.601 114.2 516.101 114.4C517.401 115.1 517.601 116.2 517.601 117.4C517.701 125.6 517.701 133.7 517.701 141.9C517.701 143.1 517.501 144.3 517.201 145.4C516.201 149.2 516.501 153 516.301 156.8C516.201 159 515.701 161.2 515.401 163.4C515.201 164.7 515.101 165.9 515.001 167.2C514.801 169.8 514.501 172.4 514.301 175.1C514.101 177.6 513.801 180 513.801 182.5C513.701 190.7 513.901 199 513.401 207.2C513.001 213.5 512.501 219.9 510.801 225.9C508.901 232.8 508.501 239.8 507.401 246.8C506.901 249.8 507.301 252.9 507.201 255.9C507.101 258 507.501 260.2 506.001 262C505.601 262.4 505.801 263.4 505.801 264.1C505.801 272.2 505.801 280.2 505.801 288.3C505.801 347.5 505.801 406.6 505.801 465.8C505.801 468.4 505.801 470.9 505.701 473.5C505.601 476.3 504.301 477.7 501.501 477.7C494.501 477.8 487.401 477.8 480.401 477.8C478.801 477.8 477.301 478 475.701 478.5C473.901 479.2 472.001 479.3 470.101 479.9C464.401 481.5 458.501 481.8 452.601 481.7C448.001 481.6 443.501 481.7 438.901 481.8C438.601 481.6 438.201 481.7 437.601 481.8ZM18.9008 470.4C22.3008 470.4 25.3008 470.3 28.4008 470.4C29.9008 470.4 31.4008 470.6 32.9008 470.9C35.5008 471.5 38.1008 472.2 40.7008 472.8C44.4008 473.6 48.1008 474 51.7008 475C55.4008 476 59.0008 477.6 62.7008 478.8C68.7008 480.8 74.8008 482.8 81.3008 482.4C82.2008 482.3 83.2008 482.5 84.2008 482.6C90.4008 483.2 96.6008 483.7 102.801 484.3C107.001 484.7 111.201 485.2 115.401 485.7C116.801 485.9 118.201 486.1 119.601 486.2C125.201 486.4 130.801 486.5 136.401 486.7C139.901 486.9 143.401 487.3 146.901 487.5C153.301 488 159.801 488.4 166.201 488.9C170.301 489.2 174.301 489.9 178.401 489.9C220.001 490 261.701 489.9 303.301 490C306.801 490 310.101 489.6 313.501 489C318.201 488.1 323.001 487.6 327.601 486.5C333.601 485.2 339.501 484.3 345.601 484.7C352.401 485.1 358.901 483.5 365.601 483.1C369.201 482.9 372.701 482.5 376.301 482.1C380.401 481.7 384.401 481.2 387.701 478.2C388.701 477.2 390.101 476.8 391.601 476.9C392.701 477 393.901 477 394.901 476.7C398.501 475.8 402.101 474.8 405.701 473.9C408.401 473.2 411.201 472.4 413.901 471.7C414.401 471.6 414.901 471.6 415.301 471.6C421.501 471.6 427.801 471.6 434.001 471.6C434.901 471.6 435.801 472 436.701 472.2C437.601 472.4 438.501 472.8 439.401 472.8C443.401 472.9 447.401 472.8 451.401 472.8C454.001 472.8 456.601 472.7 459.201 472C462.401 471.1 465.701 470.6 468.901 469.7C470.901 469.1 472.901 468.7 475.001 468.7C481.001 468.7 487.001 468.7 493.001 468.7C497.001 468.7 497.101 469.1 497.101 464.7C497.101 409.3 497.101 353.9 497.101 298.5C497.101 285.6 497.101 272.8 497.101 259.9C497.101 257.7 496.701 255.3 498.201 253.3C498.501 252.9 498.401 252.2 498.401 251.7C497.901 243.5 499.501 235.5 500.601 227.4C501.101 223.8 502.301 220.3 502.901 216.8C504.201 208.5 505.401 200.2 505.101 191.8C504.901 186.9 505.001 181.9 505.101 176.9C505.101 174.8 505.401 172.6 505.601 170.5C505.901 167.6 506.201 164.8 506.501 161.9C506.701 159.8 507.101 157.7 507.301 155.5C507.501 154.2 507.601 153 507.701 151.7C507.801 148.9 507.501 146 508.101 143.3C509.201 137.8 509.101 132.3 509.101 126.8C509.101 125.4 509.201 124 509.001 122.7C508.801 121.9 507.901 121.3 507.501 120.5C507.001 119.6 507.001 118.4 506.401 117.7C505.301 116.5 505.301 115.2 505.201 113.7C505.201 113.1 505.201 112.2 504.801 111.9C503.901 111.2 504.001 110.2 503.901 109.3C503.801 108.6 503.701 107.9 503.501 107.2C503.201 106.1 502.901 105.1 502.701 104C502.401 102.8 502.301 101.5 501.901 100.3C500.601 95.8996 499.401 91.4996 499.101 86.7996C499.101 85.9996 498.901 85.0996 498.501 84.4996C497.501 83.4996 497.501 82.2996 497.401 80.9996C497.301 79.9996 497.301 78.9996 497.001 78.1996C495.801 74.5996 494.801 70.8996 494.601 66.9996C494.001 66.8996 493.501 66.7996 493.101 66.7996C490.501 66.7996 487.801 66.8996 485.201 66.8996C481.701 66.8996 478.201 66.9996 474.701 66.7996C470.001 66.4996 465.301 65.9996 460.601 65.5996C451.801 64.7996 443.001 63.9996 434.301 62.2996C429.501 61.3996 424.501 60.4996 419.601 60.3996C407.101 60.0996 394.501 60.1996 382.001 60.2996C373.001 60.3996 363.901 60.6996 354.901 60.9996C350.701 61.1996 346.401 61.3996 342.301 62.0996C332.301 63.8996 322.301 65.8996 312.301 67.8996C307.701 68.7996 303.101 69.8996 298.301 69.5996C297.401 69.4996 296.501 69.6996 295.701 69.8996C289.601 71.8996 283.401 72.5996 277.101 72.2996C276.501 72.2996 275.701 72.0996 275.201 72.3996C272.401 73.5996 269.501 72.8996 266.701 73.0996C266.301 73.0996 265.801 73.1996 265.501 72.8996C264.401 71.7996 263.001 72.1996 261.701 72.1996C241.201 72.1996 220.601 72.1996 200.101 72.1996C193.401 72.1996 186.701 72.1996 180.001 72.1996C179.301 72.1996 178.301 72.0996 177.901 72.4996C176.801 73.5996 175.601 73.3996 174.301 73.4996C167.201 73.8996 160.101 73.4996 153.001 72.7996C150.101 72.4996 147.101 72.0996 144.401 71.1996C141.001 70.0996 137.701 68.4996 134.301 67.1996C130.201 65.6996 126.401 63.5996 122.801 61.0996C119.301 58.7996 116.001 56.3996 112.001 54.7996C108.001 53.2996 104.201 52.4996 100.001 52.3996C98.2008 52.3996 96.6008 52.7996 95.0008 53.6996C91.2008 55.6996 87.6008 58.1996 83.3008 59.4996C79.9008 60.4996 76.8008 62.2996 73.5008 63.5996C70.4008 64.8996 67.5008 66.6996 64.0008 66.9996C63.4008 66.9996 62.8008 67.3996 62.3008 67.7996C60.6008 69.1996 58.7008 69.5996 56.6008 69.5996C44.7008 69.5996 32.8008 69.5996 20.9008 69.5996C19.5008 69.5996 18.2008 69.1996 16.6008 68.9996C16.6008 69.5996 16.6008 70.2996 16.6008 70.9996C16.6008 111.8 16.6008 152.7 16.7008 193.5C16.7008 197.5 16.5008 201.5 15.8008 205.4C15.0008 209.5 14.2008 213.7 13.8008 217.9C13.2008 223.2 12.9008 228.6 12.6008 233.9C12.1008 241.7 11.5008 249.5 11.4008 257.3C11.2008 277 11.2008 296.8 11.4008 316.5C11.5008 323.7 12.3008 331 12.9008 338.2C13.0008 339.9 13.8008 341.6 13.8008 343.3C13.8008 347.2 14.3008 350.9 14.9008 354.7C15.1008 356 15.2008 357.4 15.2008 358.8C15.2008 368 15.2008 377.2 15.3008 386.4C15.3008 388.1 15.4008 389.7 15.6008 391.4C16.1008 397.4 16.9008 403.5 16.7008 409.6C16.6008 411.7 17.0008 413.9 17.2008 416C17.4008 418.4 17.8008 420.7 18.0008 423.1C18.1008 425.7 17.9008 428.4 18.0008 431C18.0008 432.2 18.3008 433.3 18.5008 434.5C18.7008 436 19.2008 437.4 19.2008 438.9C19.3008 448.3 19.2008 457.6 19.2008 467C18.9008 468.4 18.9008 469.3 18.9008 470.4Z" fill="white"/>
<path d="M54.1999 441.4C54.0999 440.5 54.0999 439.6 53.9999 438.7C53.8999 432.2 53.6999 425.7 53.8999 419.3C54.1999 410.5 53.1999 401.8 52.5999 393C52.0999 386.4 51.6999 379.8 51.2999 373.2C51.2999 372.7 51.2999 372.2 51.0999 371.8C49.8999 369.3 49.8999 366.5 49.8999 363.8C49.8999 349.4 49.9999 335 49.9999 320.6C49.9999 317 49.9999 313.4 49.8999 309.8C49.6999 302 50.4999 294.3 51.5999 286.7C52.5999 279.5 53.8999 272.4 54.8999 265.2C55.2999 262.1 55.0999 259 55.1999 255.9C55.1999 253.8 55.0999 251.8 56.2999 249.9C56.1999 246.1 57.9999 242.5 57.9999 238.7C57.9999 227.3 57.9999 215.8 57.8999 204.4C57.7999 198.7 58.7999 193.2 60.6999 187.8C62.0999 183.9 63.2999 179.9 64.7999 176C65.5999 173.8 66.9999 171.9 67.7999 169.7C68.6999 167.3 69.1999 164.7 69.8999 162.2C70.1999 161 70.4999 159.8 70.8999 158.6C70.9999 158.3 71.0999 158 71.0999 157.7C71.5999 154.3 71.9999 150.9 72.5999 147.6C72.8999 145.9 73.3999 144.2 74.0999 142.6C74.7999 141.3 74.9999 140.1 74.9999 138.8C74.9999 133.4 75.0999 128.1 75.0999 122.7C75.0999 121.9 75.1999 121.1 75.2999 120.3C77.9999 120.3 80.4999 120.3 83.1999 120.3C83.2999 121 83.4999 121.6 83.6999 122.5C84.5999 122.5 85.4999 122.5 86.2999 122.5C94.6999 122.5 103.1 122.6 111.5 122.6C113.1 122.6 114.8 122.2 116.4 121.8C124.6 119.8 132.7 117.6 140.9 115.8C151.9 113.4 162.6 109.7 173.6 107.1C183.1 104.9 192.6 102.9 202.3 102.2C207.6 101.8 212.9 101 218.2 100.5C220.9 100.2 223.6 100 226.3 100C248.2 100 270.1 100 292 100C295.1 100 298.1 100.2 301.2 101.2C303.4 102 305.9 101.8 308.3 102.3C309.7 102.6 310.9 103.3 312.3 103.7C313.8 104.1 315.4 104.4 316.9 104.7C320.2 105.3 323.5 105.9 326.8 106.4C327.8 106.6 328.9 106.7 329.9 106.7C342.1 106.7 354.4 106.6 366.6 106.6C369.9 106.6 373.2 106.7 376.3 107.9C377.5 108.4 378.5 109 379.7 109.5C380.1 109.7 380.5 110 381 110.1C383.7 110.4 385.3 112.3 387.2 113.9C387.4 114.1 387.6 114.5 387.8 114.5C391 115.4 393.5 118.1 397 118.5C401.9 119.1 406.8 120 411.8 119.7C413.8 119.6 415.7 120.1 417.6 120.7C420 121.4 422.5 121.9 425 122.5C425.5 122.6 425.9 122.8 426.3 123C431.1 124.5 435.9 126.2 440.8 127.5C444 128.3 447.4 128.6 450.8 129.1C451 127.9 451.1 126.9 451.4 125.7C453.8 125.7 456.2 125.7 458.6 125.7C458.8 125.7 459.1 125.8 459.2 126C460.1 126.8 461 127.7 462 128.7C461.9 131.3 462.3 134.3 461.7 137.2C460.9 137.4 460.3 137.5 459.6 137.7C459.6 138.6 459.6 139.4 459.6 140.1C459.6 144 459.6 147.9 459.6 151.8C459.6 155 459.8 158.2 460.6 161.4C461.8 166.1 462.3 171 463 175.8C464 183 464.9 190.2 465.9 197.4C466 198.2 466 199 466.3 199.8C467.4 203.4 467.4 207.2 467.6 210.9C467.7 214 468.4 217.1 468.9 220.1C470.6 229.9 472.5 239.7 474 249.5C474.5 252.9 474.3 256.5 474.3 260C474.3 272.5 474 285.1 474.2 297.6C474.3 304.5 473.6 311 470.9 317.4C469.7 320.2 468.5 323.1 467.8 326C466.7 330.2 464.9 334.1 463.4 338.2C462.6 340.2 462.1 342.3 462.1 344.5C462.1 345.8 462.1 347 461.3 348.1C460.9 348.6 461.1 349.5 461 350.2C460.7 353 460.2 355.7 460 358.5C459.8 361.8 459.4 365.1 459.8 368.3C460.1 370.5 461.5 372.5 462.4 374.6C465.9 382.8 469 391.1 468.9 400.2C468.8 414.7 468.8 429.1 468.8 443.6C468.8 444.7 468.5 445.9 468.4 447.2C466.1 447.3 464.1 447.4 462.1 447.4C448.5 447.4 434.9 447.5 421.3 447.3C416.2 447.2 411.3 448 406.4 449C395.9 451.1 385.5 453.5 374.9 454.6C370.9 455 366.8 455.2 362.9 456.4C362.3 456.6 361.6 456.6 361 456.6C351.7 456.7 342.5 456.7 333.2 456.8C327.2 456.9 321.6 455 316 453.3C310.8 451.7 305.7 449.9 300.4 448.9C295.3 447.9 289.9 447.7 284.7 447.4C280.7 447.2 276.6 447.7 272.6 446.2C271.7 445.9 270.5 446 269.5 446C229.5 446 189.6 446 149.6 446C147.8 446 145.9 446.1 144.1 445.9C142.9 445.8 141.7 445.4 140.4 445.1C138.9 444.9 137.4 444.5 135.9 444.5C115.7 444.5 95.4999 444.5 75.1999 444.5C70.9999 444.5 66.8999 444.4 62.7999 443.4C61.9999 443.2 61.1999 443.2 60.3999 443.1C58.7999 443 57.0999 443.3 55.7999 441.8C55.5999 441.6 54.8999 441.6 54.1999 441.4ZM460.2 438.9C460.2 437.6 460.2 436.6 460.2 435.7C460.2 425 460.2 414.3 460.3 403.6C460.3 400.3 459.8 397.1 458.8 394C457.1 388.3 455 382.6 452.1 377.3C451.4 376 451.1 374.5 451.1 373C451.1 368.2 451 363.4 451.1 358.6C451.2 356 451.6 353.4 451.8 350.8C452 348.7 452.2 346.7 452.4 344.6C452.5 343.7 452.4 342.6 452.8 341.8C453.6 340.2 453.7 338.6 453.7 337C453.7 336.1 453.9 335.3 454.2 334.4C455.6 330.5 457.1 326.6 458.4 322.6C459.2 320.3 459.6 317.8 460.4 315.5C461.6 312.2 462.9 308.9 464.3 305.6C465.3 303.2 465.5 300.7 465.5 298.2C465.5 285.8 465.6 273.4 465.6 261C465.6 258.1 465.6 255.1 465.1 252.2C463.6 243.2 461.8 234.2 460.2 225.2C459.6 221.7 459.2 218.1 458.8 214.5C458.5 212.1 458.4 209.6 458.1 207.1C456.7 197 455.3 186.9 453.8 176.8C453.3 173.6 453 170.3 452.1 167.2C451.2 164.5 451 161.9 451 159.2C451 152.9 451.1 146.6 451.1 140.3C451.1 139.4 451.1 138.6 451.1 137.7C450.5 137.6 450.2 137.5 449.9 137.5C445.8 137.5 441.8 137.4 437.8 136.2C437.3 136.1 436.9 136.1 436.4 136C434.8 135.7 433.1 135.4 431.5 135C426.2 133.7 421.2 131.4 415.9 130.3C414 129.9 412.1 129.2 410.2 128.7C409.3 128.5 408.3 128.3 407.4 128.2C403 127.8 398.6 127.6 394.3 127.1C390.7 126.7 386.8 126.6 383.9 123.8C383.7 123.6 383.5 123.5 383.3 123.5C381.6 123.2 380.4 122.2 379.2 121C377.9 119.8 376.6 118.6 374.7 118.3C374.1 118.2 373.6 117.8 373 117.5C369.8 115.8 366.5 114.8 362.8 114.9C350.6 115 338.3 115 326.1 115C323.3 115 320.5 114.7 317.8 113.9C316.4 113.5 315 113.4 313.6 113.1C311 112.7 308.2 112.6 305.9 111.6C303.4 110.5 300.8 110 298.1 109.6C296.8 109.4 295.6 109.2 294.3 109C292.6 108.7 290.9 108.3 289.2 108.3C269.4 108.2 249.6 108.3 229.7 108.3C227.7 108.3 225.7 108.5 223.7 108.7C220.3 109 216.9 109.5 213.5 109.8C209.4 110.2 205.3 110.2 201.3 110.9C192.7 112.5 184.1 114.2 175.6 116.3C167.4 118.3 159.5 121.1 151.2 122.9C143.5 124.6 135.9 126.5 128.3 128.5C121.8 130.3 115.2 131.2 108.5 130.9C101.1 130.6 93.5999 130.7 86.1999 130.6C85.3999 130.6 84.6999 130.7 83.6999 130.7C83.6999 131.7 83.5999 132.4 83.5999 133.2C83.5999 136.6 83.4999 140.1 83.5999 143.5C83.5999 145.7 83.1999 147.7 82.1999 149.6C81.4999 151 81.1999 152.8 80.7999 154.4C80.5999 155.1 80.6999 155.8 80.3999 156.5C79.0999 159.8 80.0999 163.7 78.2999 166.9C78.0999 170.9 76.7999 174.7 75.0999 178.3C74.3999 179.8 73.5999 181.2 72.9999 182.7C71.1999 187.2 69.5999 191.7 68.3999 196.3C67.5999 199.3 66.4999 202.3 66.4999 205.3C66.2999 216 66.2999 226.7 66.6999 237.4C66.8999 243.5 65.4999 249.4 64.8999 255.4C64.8999 255.8 64.6999 256.2 64.5999 256.6C64.3999 257.8 63.9999 259.1 63.9999 260.3C63.8999 262.9 64.0999 265.4 63.7999 268C62.9999 274.4 61.8999 280.8 60.9999 287.2C59.7999 295.4 58.6999 303.6 58.6999 312C58.7999 327.4 58.6999 342.9 58.6999 358.3C58.6999 360.6 58.4999 362.9 59.6999 365.1C59.9999 365.6 59.8999 366.4 59.8999 367C60.3999 375.1 60.8999 383.3 61.4999 391.4C62.0999 399 62.8999 406.7 62.7999 414.4C62.6999 420.1 62.6999 425.7 62.6999 431.4C62.6999 433.9 63.5999 434.8 65.9999 435C67.9999 435.2 69.9999 435.5 71.8999 435.7C73.9999 435.9 75.9999 436.3 78.0999 436.3C93.3999 436.3 108.8 436.3 124.1 436.3C129.7 436.3 135.3 436.1 140.9 436.2C142.9 436.2 145 436.7 147 437C148.2 437.2 149.5 437.6 150.7 437.6C191.5 437.6 232.4 437.6 273.2 437.6C275.8 437.6 278.4 437.7 281 438.6C281.9 438.9 282.9 438.9 283.8 439C285.8 439.1 287.8 439 289.8 439C296 439.2 302.1 439.6 308.1 441C313.4 442.2 318.6 444 323.9 445.6C328 446.8 332 448.7 336.4 448.5C344.5 448.1 352.6 448.9 360.7 447.3C366.9 446.1 373.2 445.8 379.4 444.8C386.7 443.6 394 442.1 401.2 440.6C405.3 439.7 409.3 439 413.5 439C428.1 439.1 442.8 439.1 457.4 439.1C458.2 438.9 459 438.9 460.2 438.9Z" fill="white"/>
<path d="M342.4 164.4C338.2 165.7 334.2 166.9 330.2 168.3C326 169.8 321.8 171.1 317.4 171.7C312.8 172.4 308.3 173.7 303.8 175.1C300.2 176.2 296.6 177 292.8 176.9C289.2 176.8 285.6 176.9 282 176.9C281.3 176.9 280.5 176.9 279.9 177.1C277 178.3 274 178.2 271 178.2C269.5 178.2 268 178.1 266.4 178.2C265 178.3 263.6 178.7 262.2 178.9C261.4 179 260.6 179.2 259.8 179.3C254.3 179.6 248.8 180.1 243.5 181.6C242.6 181.9 241.6 182 240.7 182C235.2 181.7 229.9 182.9 224.6 183.8C210.7 186 196.8 188 182.7 187.4C181.2 187.3 179.7 187.1 178.4 188.2C178.2 188.4 177.8 188.3 177.5 188.3C170.2 189.2 163.4 191.8 156.6 194.5C155.7 194.9 154.7 195.4 154.1 196.2C153.4 197.1 152.6 197.5 151.5 197.5C149 197.6 146.6 197.6 144.1 197.7C143.4 197.7 142.7 197.8 142.3 196.8C142.2 196.5 141.5 196.4 141 196.3C138.1 195.9 135.2 195.4 132.3 195.1C130.9 195 129.5 194.9 128.2 194.2C126.3 193.1 124.3 192.8 122.2 193.1C119.9 193.4 117.6 193.6 115.2 193.9C115.1 195.9 114.9 197.7 113.9 199.4C113.6 199.9 113.7 200.8 113.8 201.5C114.2 203.7 114.6 205.9 115.1 208.1C115.2 208.4 115.2 208.8 115.4 209C117.1 211.2 118.9 213.4 120.6 215.6C120.8 215.9 121.1 216.2 121.3 216.5C122.9 219.7 125.5 222 128.2 224.2C129.7 225.4 130.8 226.8 131.4 228.6C132.8 232.5 134.1 236.4 135.7 240.1C138.2 246 138 252.2 138.5 258.4C139.1 266 139.4 273.5 140.1 281.1C140.4 284.5 141.2 287.9 142 291.2C142.6 293.7 142.8 296.2 142.9 298.8C143 302.1 143.4 305.3 143.7 308.6C144.2 308.5 144.4 308.5 144.4 308.4C145.7 304.7 148.5 303.1 152.3 302.9C153.3 302.8 154.4 302.7 155.4 302.4C158.4 301.5 161.5 301.6 164.7 301.6C174.2 301.6 183.7 301.6 193.2 301.6C198 301.6 202.8 301.5 207.6 301.2C211.9 300.9 215.7 302.3 219.1 304.7C221.3 306.3 223.6 307.7 226.2 308.8C227.6 309.4 228.6 310.3 229.2 311.8C229.5 312.6 230.3 313.3 231.1 313.8C234.9 316.6 238.7 319.4 242.5 322C244.5 323.4 245.5 325 246 327.4C246.7 331 247.2 334.6 247.1 338.3C247 339.6 247.1 341 246.1 342.1C246 342.2 245.9 342.4 245.9 342.5C246.1 346.6 242.4 347.9 240.1 350.1C238.4 351.7 236.5 353 234.8 354.6C234 355.3 233.9 356.3 234.3 357.2C234.7 358.1 235.2 359.1 235.8 359.8C238.5 362.6 241.4 365.2 244.2 367.9C246.2 369.9 248.3 371.8 250.3 373.9C251.4 375.1 252.3 376.5 252.3 378.3C252.3 384.7 252.4 391.1 252.5 397.5C252.5 400 250.8 401.4 249 402.3C246.1 403.7 243.5 405.4 240.8 407.2C238.9 408.5 237 409.7 235.2 411.2C233.5 412.6 231.6 413 229.5 413C218.3 413 207.1 412.9 195.9 413C190.6 413 185.9 411.7 182.5 407.2C182.2 406.8 181.6 406.6 181.6 406.2C181.1 404.1 179.4 403.1 177.8 402C175.6 400.4 173.7 398.3 171.7 396.4C170.8 395.5 170.1 394.4 169.2 393.7C167.8 392.6 166.5 391.5 164.9 390.6C162.8 389.4 161.3 387.3 159.5 385.6C159.4 385.5 159.2 385.4 158.8 385.2C158.3 386.4 157.8 387.6 157.2 388.9C154.7 388.9 152.2 388.9 149.5 388.9C149.3 388.2 149 387.5 148.7 386.5C141.1 386.5 133.5 386.5 126.1 386.5C125.1 384.6 124.4 383 123.3 381.6C121.9 379.8 121.3 377.8 120.6 375.7C120.3 375 120.3 374.1 120.1 373.4C119.7 372.2 119.5 370.8 118.7 370C118 369.2 117.7 368.5 117.6 367.6C117.5 366.7 117.3 365.9 117.3 365C117 362.1 114.7 360.7 113 358.8C112.3 358 111.3 357.5 111.1 356.3C111 356 110.5 355.6 110.2 355.4C108.8 354.8 107.9 353.8 107.2 352.4C106.5 351.1 105.5 350.1 104.4 349C102 346.5 100.5 343.6 100.5 340C100.5 337.8 100.5 335.5 100.5 333.3C100.5 331.9 100.8 330.7 102 329.8C102.8 329.2 103.3 328.2 104.1 327.7C106.2 326.3 108.6 325.9 111 325.5C112.3 325.3 113.6 325 114.9 324.7C115.4 324.6 115.9 324.3 116.5 324.2C119.2 323.8 122 323.4 124.8 323C125.8 322.9 126.9 322.8 127.9 322.8C131.1 322.8 134.3 322.8 137.6 322.8C136.9 318.9 136.1 315.2 135.5 311.4C135.2 309.4 134.8 307.3 134.8 305.2C134.8 301.9 134.6 298.7 133.7 295.5C131.9 288.9 131.8 282.1 131.3 275.3C130.8 267.5 130.1 259.7 129.4 251.9C129.2 250.3 128.4 248.8 127.9 247.2C126.6 243.5 125.4 239.9 124 236.3C123.3 234.5 122.3 233.1 120.7 231.9C116.8 229 114.3 224.7 111.4 220.9C110.3 219.4 109 218 107.9 216.6C107.6 216.3 107.5 215.8 107.4 215.4C105.5 208.4 105.8 201.3 105.9 194.2C105.9 193.7 106 193.1 106.2 192.6C106.9 191.1 107.2 189.6 107.2 188C107.2 186.6 107.9 185.9 109.2 185.8C114.8 185.3 120.3 184.9 125.9 184.4C129.5 184.1 132.8 185.1 136.1 186.4C137 186.7 137.9 186.9 138.8 187.1C141.2 187.4 143.7 187.6 146.1 188C147.1 188.2 147.8 187.7 148.6 187.3C152 185.8 155.5 184.6 159 183.4C161.5 182.5 164 181.8 166.5 181.1C167.6 180.8 168.7 180.6 169.8 180.5C170.9 180.4 171.9 180.3 173 179.7C173.9 179.2 175.1 179.2 176.2 179.2C181.7 179.1 187.3 179.5 192.7 179C200.7 178.3 208.7 177.2 216.7 176.1C223.2 175.2 229.5 173.5 236.1 173.7C237.3 173.7 238.6 173.1 239.8 173C244.1 172.4 248.3 171.9 252.6 171.4C253.4 171.3 254.2 171.4 255 171.1C258.5 169.7 262.2 170 265.9 169.9C268.7 169.9 271.5 170.3 274.1 168.8C274.6 168.5 275.4 168.6 276 168.6C280.1 168.6 284.2 168.4 288.2 168.6C292 168.8 295.4 167.8 298.9 166.7C303.8 165.1 308.8 163.8 314 163.2C317.4 162.8 320.7 161.4 324 160.3C326.3 159.6 328.4 158.7 330.7 158.1C333.3 157.5 335.7 156.7 338 155.4C339.5 154.5 340.9 154.2 342.5 154.3C343.9 154.3 345.4 154.3 346.8 154.3C347.9 154.3 348.7 154.7 349.3 155.7C351 158.5 353.3 160.8 354.3 164C354.7 165.3 355.8 166.4 356.3 167.6C357.8 171.2 358.4 175 358.4 179C358.3 203.1 358.4 227.3 358.2 251.4C358.2 258.3 358.7 265.1 359.9 271.9C360.1 273 360.2 274.1 360.5 275.2C360.7 275.9 361.3 276.6 361.7 277.3C363.6 275.9 365.2 274.7 366.8 273.6C367.4 273.2 368.1 273.1 368.8 273.1C373.4 273 378.1 273 382.7 273C384.5 273 385.9 274.1 387.3 275.1C388.6 276.1 389.4 277.3 389.9 279C390.6 281.5 391.2 283.9 391.2 286.5C391.2 286.9 391.7 287.4 391.9 287.8C392.2 287.5 392.6 287.3 392.9 287C396.3 283.5 396.3 283.5 401.2 283.4C405.2 283.4 409.2 283.5 413.2 283.4C414.9 283.4 416.2 284.2 417.7 284.8C418 284.9 418.3 285.3 418.4 285.7C419 287.4 419.6 289.1 420.2 290.8C420.6 292 421.2 293.1 421.5 294.3C423.1 300.1 426.1 305.2 428.7 310.6C429.1 311.5 429.3 312.6 429.4 313.6C429.5 318.2 429.5 322.7 429.5 327.3C429.5 328.5 429.4 329.9 428.8 330.7C428.2 331.5 426.9 332 425.8 332.3C423.7 332.9 422 334 420.5 335.5C420.3 335.7 420.1 336.1 419.9 336.1C417.3 336.4 416.4 338.7 414.9 340.3C412.6 342.8 412 345.7 412.4 349C412.5 349.6 412.4 350.3 412.4 350.9C412.4 352.1 412.8 352.9 413.8 353.6C415.1 354.6 416.5 355.5 417.5 357C418.4 358.3 420.1 358.4 421.6 358.4C424.5 358.4 427.4 358.4 430.2 358.4C432.8 358.4 433.1 358.8 433.3 361.5C433.6 366.7 433.3 371.8 431.4 376.8C430.9 378 430.9 379.4 430.5 380.7C430.3 381.7 429.9 382.6 429.6 383.6C429.1 385.6 428.3 387.5 428.1 389.6C427.8 392.2 426.7 394.4 425.4 396.6C423.9 399.1 422.4 401.7 420.9 404.2C420.4 405 419.7 405.8 419.1 406.6C419 406.8 418.9 407.2 418.8 407.2C416.2 407.6 415.9 410.3 414.6 411.8C414.1 412.4 413.8 413.1 413.3 413.7C413.1 413.9 412.9 414.3 412.7 414.3C411.1 414.4 410.4 415.7 409.4 416.7C408.2 418 406.6 418.9 404.6 418.7C402.5 418.5 400.3 418.6 398.2 418.4C397.2 418.3 396.3 417.7 395.4 417.5C394.4 417.3 393.4 417.1 392.4 417C391.3 416.9 390 417.2 389.2 416C388.9 415.7 388.2 415.6 387.6 415.6C385.8 415.7 384.4 414.8 383.1 413.7C381.9 412.7 380.3 412.4 379.5 410.8C379.4 410.6 378.8 410.5 378.4 410.4C377.9 410.3 377.3 410.3 377 410C374.4 407.3 370.5 406.1 368.4 402.8C367 400.5 365.4 398.4 363.2 396.7C362.3 396 361.8 395 361.8 393.8C361.7 390 361.3 386.1 362.5 382.4C362.8 381.3 362.9 380.1 363.1 378.7C360.7 378.6 358.7 378.6 356.6 378.5C355 378.5 353.7 378.2 352.7 376.7C352.2 375.9 351.4 375.2 350.6 374.6C349.1 373.6 348.4 372.1 347.9 370.4C347.2 368.2 345.7 366.8 343.7 365.7C341.6 364.6 339.6 363.7 337.2 363.9C335.9 364 335.1 363.1 334.3 362.3C332.7 360.5 331 358.8 328.9 357.7C328.5 357.5 328.1 357.1 327.9 356.7C326.1 353 322.4 351 320 347.8C319.9 347.6 319.6 347.6 319.4 347.4C317.4 346.3 315.3 345.1 314 343.1C313.9 343 313.8 342.8 313.6 342.8C311.7 342.9 310.9 341.2 309.7 340.2C308.9 339.6 308.1 338.8 307.2 338.5C303.4 337.3 300.4 334.9 297.6 332.2C297 331.6 296.5 330.8 295.8 330.4C294.7 329.7 294.3 328.7 294.3 327.7C294.2 323.6 293.9 319.4 295.7 315.5C296.7 313.3 297.9 311.4 300.1 310.1C302.5 308.8 305 307.7 306.8 305.5C310.7 304 313.3 300.3 317.4 299C321.4 297.7 325.3 295.9 329.4 294.7C333.1 293.7 337.1 293.3 340.9 292.5C343.8 291.9 346.6 291.1 349.5 290.4C350.8 290.1 352.1 289.7 353.6 289.3C353.7 287.1 354.3 284.9 352.7 282.8C352.1 282.1 352.1 280.8 352 279.8C351.4 276.1 350.7 272.4 350.2 268.7C349.9 265.9 349.7 263 349.7 260.1C349.7 235.6 349.7 211 349.7 186.5C349.7 185.5 349.7 184.6 349.8 183.6C350.3 179.1 348.9 175 346.7 171.2C345 169.2 343.8 166.9 342.4 164.4ZM150 378.1C150.6 376.8 151.2 375.7 151.7 374.5C152.2 373.4 153 373 154.1 373C155.6 373 157.1 373 158.7 373C160.8 373.1 162.7 373.6 163.9 375.6C164.2 376 164.7 376.3 165.1 376.6C166 377.3 166.9 378 167.8 378.8C169.2 380 170.4 381.4 172 382.4C174 383.6 175.7 385.1 177.3 386.7C180.3 389.6 182.8 393 186.6 395C187.8 395.6 188.6 397 189.3 398.3C190.4 400.1 191.9 401.9 193.7 402.8C195.8 403.9 198.2 404.5 200.8 404.5C208.1 404.4 215.5 404.4 222.8 404.5C224.7 404.5 226.4 404.1 227.9 403C230.6 401 233.2 399 235.9 397.2C237.6 396.1 239.6 395.2 241.5 394.3C243.1 393.5 243.9 392.4 243.8 390.6C243.7 388.7 243.8 386.8 243.7 384.8C243.7 383.6 243.2 382.6 242.3 381.7C237.8 377.3 233.6 372.6 228.9 368.4C225.9 365.6 225.1 362.1 224.2 358.5C223.7 356.6 224.1 354.5 224.1 352.5C224.2 350.4 225.2 348.8 226.5 347.3C228.8 344.5 231.8 342.3 234.8 340.3C237.2 338.6 237.5 336.5 237.4 334C237.4 332.4 236.8 331.1 235.3 330.1C231.5 327.6 227.9 324.8 224.2 322.2C222.7 321.2 221.4 320.1 220.7 318.4C220.4 317.8 219.7 317.2 219 316.9C216 315.7 213.5 313.8 210.8 312.1C209.1 311 207.3 309.8 205 309.8C192.9 309.9 180.7 309.9 168.6 310C166.2 310 163.9 310.4 161.5 310.7C160.4 310.8 159.3 311 158.2 311.2C155.2 311.9 152.7 313 152.6 316C152.6 317 152.3 318.2 151.6 318.9C150.4 320.1 150.7 321.3 150.9 322.6C151.7 322.7 152.4 322.9 153.2 323C153.2 325.6 153.2 328.1 153.2 330.7C152.4 330.9 151.6 331.1 150.9 331.3C150.8 332.5 150.7 333.5 150.5 334.8C148.6 334.8 146.8 334.7 145.1 334.8C143.2 335 141.8 334.3 141.1 332.6C140.5 331.3 139.6 331.1 138.3 331.1C132 331.1 125.8 331.4 119.8 333.6C119.7 333.7 119.5 333.7 119.3 333.7C117 333.5 115 334.3 112.8 334.9C109.8 335.7 109 338 111.1 340.4C112.5 342 114 343.5 115.2 345.3C115.7 346.2 116.8 346.7 117.6 347.4C118.1 347.8 118.9 348.2 119 348.8C119.2 350.3 120.2 351.1 121.3 351.9C124.2 354.2 125.7 357.3 125.8 361C125.8 361.7 126.1 362.2 126.6 362.8C127.4 363.8 128.1 365.1 128.2 366.4C128.7 370 130 373.1 132.1 376C133.7 378.3 133.7 378.3 136.4 378.3C140.2 378.3 143.9 378.3 147.7 378.3C148.5 378.2 149.3 378.2 150 378.1ZM420.6 322.3C420.9 320.2 420.7 318 419.4 315.8C417.9 313.3 416.7 310.7 415.6 308C414.4 305.1 413.4 302.1 412.3 299.2C412 298.3 411.9 297.4 411.5 296.5C410.9 295.1 410.3 293.5 409.3 292.5C407.9 291.1 405.9 291.7 404.1 291.6C402.9 291.6 402.4 292.5 401.7 293.2C399.5 295.4 397.3 297.7 395 299.8C394 300.7 393.2 301.4 393.3 302.9C390.6 302.9 388 303 385.3 302.9C385.3 300.4 384.6 298.5 383.6 296.5C383 295.3 382.7 293.9 382.6 292.6C382.5 290.1 381.9 287.8 381.3 285.4C380.7 282.9 378.9 281.9 376.8 281.1C375.1 280.5 370.2 283 369.7 284.7C369.3 286.1 368.4 286.9 367.5 287.9C365.9 289.4 364.7 291.2 363.9 293.2C363.2 294.9 362.7 296.7 362 298.7C361.5 298.7 360.8 298.8 360.1 298.8C357.3 298.6 354.6 299.3 351.9 300C350.1 300.5 348.2 301 346.3 301.2C338.2 302.1 330.5 304.3 323.1 307.9C321.8 308.5 320.5 309.3 319.3 310.2C315.8 312.9 312.3 315.4 308.4 317.6C306.7 318.6 304.9 319.5 304 321.6C303.6 322.6 303.7 323.5 304.3 324.2C306.7 326.6 309.1 329 312.5 330.1C314.6 330.7 316.3 332.1 317.9 333.6C318.3 334 318.8 334.6 319.4 334.6C320.3 334.7 320.8 335.2 321.3 335.8C322.7 337.3 324.2 338.6 326 339.5C326.3 339.6 326.6 339.7 326.8 340C329.6 343.3 333.3 345.6 335.4 349.5C335.6 349.9 336 350.3 336.4 350.5C338.4 351.4 339.8 353 341.2 354.7C341.7 355.3 342.6 355.9 343.4 355.9C346 355.8 348.1 356.8 350.3 357.9C353 359.3 354.9 361.2 355.8 364.1C356.1 365.1 356.5 366 357.3 366.7C358.1 367.3 358.8 368 359.4 368.8C360.5 370.5 362 370.7 363.9 370.3C363.9 369.3 364 368.4 364 367.5C364.2 365.9 364.7 365.4 366.2 365.3C367.9 365.3 369.6 365.3 371.2 365.3C372.7 365.3 373.4 366 373.5 367.4C373.6 369.1 373.6 370.8 373.5 372.4C373.4 373.5 373.2 374.6 372.9 375.6C372.6 376.7 371.9 377.8 371.8 378.9C371.3 382 371 385.1 370.7 388.1C370.6 388.6 370.9 389.3 371.3 389.8C372.8 391.7 374.7 393.4 376 395.4C377.9 398.5 381.6 399.4 383.9 402C384.2 402.3 384.8 402.2 385.3 402.4C386.1 402.8 386.8 403.2 387.5 403.7C389.5 405.4 391.3 407.5 394.3 407.4C394.8 407.4 395.4 407.5 395.9 407.8C398.6 409.1 401.2 409.6 403.4 406.9C403.5 406.8 403.6 406.6 403.7 406.6C405.9 406.3 406.4 404.4 407.3 402.9C408.2 401.4 408.8 399.6 410.8 399.2C411 399.2 411.2 399 411.3 398.8C412.3 396.9 414 395.7 414.5 393.4C414.8 392.2 415.8 391.2 416.6 390.1C417.9 388.2 418.9 386.2 419.4 384C420 381.4 420.8 378.9 421.5 376.3C421.7 375.7 421.8 375.1 421.9 374.4C422.3 372.6 422.6 370.8 423 369C423.1 368.4 423.3 367.8 423.5 367C422.5 367 421.7 367 420.9 367C418.7 367 416.6 367.1 414.4 366.9C412.4 366.7 410.3 366.4 409.1 364.7C408.2 363.5 407.2 362.5 405.9 361.7C404.1 360.6 403.3 359 403.4 356.8C403.5 351.6 403.5 346.4 403.4 341.2C403.4 338.5 403.5 336 405.8 334.1C406.3 333.7 406.4 333 406.8 332.5C408.3 330.7 409.4 328.4 412.1 328C412.4 328 412.6 327.5 412.9 327.2C415.1 325 418.1 324.2 420.6 322.3Z" fill="white"/>
</svg>
