<svg width="495" height="542" viewBox="0 0 495 542" fill="none" xmlns="http://www.w3.org/2000/svg">
<path d="M196.658 500.2C190.858 500.1 185.258 500.6 179.658 499.4C174.558 498.4 169.258 497.8 164.058 497.7C152.558 497.5 141.058 497.7 129.558 497.7C127.758 497.7 125.858 497.7 124.058 497.6C122.258 497.6 120.558 497.5 118.958 496.6C118.658 496.4 118.158 496.3 117.858 496.3C116.058 496.3 114.558 495.6 113.158 494.5C112.658 494.1 111.958 494 111.158 493.7C109.558 499.7 105.758 504.3 102.058 508.7C99.8584 511.4 98.1584 514.2 96.5584 517.2C96.0584 518.1 95.6584 519 95.0584 519.8C92.1584 523.1 89.0585 526.2 86.4585 529.7C83.5585 533.5 79.4584 535.9 76.1584 539.1C74.5584 540.6 72.9584 541.5 70.7584 541.2C69.6584 541.1 68.4585 541.3 67.4585 541.1C66.4585 540.9 65.4585 540.5 64.4585 540C62.4585 539 60.5584 537.6 58.2584 537.1C55.8584 536.6 53.6584 535.8 51.5584 534.3C49.0584 532.5 46.3584 531.1 43.1584 530.3C42.9584 529.5 42.6584 528.6 42.5584 527.6C42.4584 523.6 42.4584 519.6 42.4584 515.6C42.4584 513.5 43.2584 511.7 44.7584 510.2C45.5584 509.4 46.1584 508.3 46.5584 507.2C47.9584 503.8 50.4584 501.4 53.2584 499.2C56.0584 497.1 58.8584 494.9 61.1584 492.3C62.5584 490.7 63.9585 489.3 64.9585 487.4C65.7585 485.8 67.5584 484.8 68.7584 483.5C69.2584 483 69.9584 482.3 70.0584 481.6C70.4584 477.9 72.0584 474.7 73.5584 471.4C75.2584 467.8 76.9584 464.1 77.5584 460.1C77.7584 458.7 78.4585 457.5 79.9585 457C80.6585 456.8 81.2584 456.1 81.5584 455.4C82.2584 453.9 82.7584 452.3 83.3584 450.8C83.6584 450.1 84.0584 449.5 84.5584 448.9C85.8584 447 87.1585 445.1 88.4585 443.1C89.6585 441.2 90.8584 439.4 92.1584 437.4C90.8584 436.2 89.3585 435.8 87.9585 435.8C82.2585 435.8 76.6585 435.7 70.9585 436.1C68.0585 436.3 65.1584 437.1 62.1584 437.1C60.7584 437.1 59.4584 437.8 58.0584 438.3C54.2584 439.6 50.4584 441 46.7584 442.4C44.5584 443.2 42.3584 444.1 40.1584 445.1C36.7584 446.6 33.1584 446 29.3584 446.1C29.2584 445.1 29.2584 444.2 29.2584 443.4C29.0584 438.1 29.0584 432.9 28.7584 427.6C28.4584 422.4 27.1584 417.4 25.7584 412.4C25.6584 412 25.3584 411.6 25.0584 411.2C24.4584 410.3 23.7584 409.5 23.9584 408.2C23.9584 408.1 23.9584 407.9 23.8584 407.7C21.4584 403.9 21.4584 399.2 19.8584 395.1C18.3584 391.4 16.9584 387.6 15.4584 383.9C13.8584 380 11.8584 376.2 11.2584 371.9C11.1584 370.9 10.7584 369.8 10.0584 369.1C7.25844 366 6.05844 362.1 5.45844 358.1C4.75844 353.8 3.15844 349.6 2.25844 345.4C1.05844 340.1 0.258446 334.7 0.158446 329.3C-0.141554 313.8 0.0584459 298.3 0.158446 282.8C0.158446 281.5 0.258443 280.3 0.358443 278.8C1.55844 278.6 2.55845 278.4 3.65845 278.3C6.95845 278.2 10.2584 278.2 13.4584 278.3C14.5584 278.3 15.4584 278.2 16.3584 277.5C16.8584 277 17.4584 276.6 18.1584 276.4C21.8584 275.1 24.1584 272.2 26.9584 269.7C28.3584 268.4 29.0584 266.8 29.7584 265.1C30.2584 263.7 30.9584 262.5 32.5584 261.9C33.2584 261.7 33.9584 260.8 34.2584 260.1C35.3584 257.2 37.1584 254.8 39.1584 252.5C42.1584 249.1 44.3584 245.2 46.2584 241.1C47.8584 237.6 49.8584 234.4 51.8584 231.2C53.9584 227.9 55.8584 224.6 57.7584 221.2C59.7584 217.7 61.6585 214.1 63.4585 210.5C64.2585 208.9 64.8584 207.2 65.3584 205.4C66.2584 202.3 67.1584 199.2 67.7584 196C68.2584 193.5 69.9584 191.2 71.1584 188.9C71.5584 188.1 72.2584 187.4 72.6584 186.5C73.5584 184.5 74.9584 183.2 76.8584 182C78.9584 180.7 80.5584 178.6 82.3584 176.8C83.5584 175.7 84.8584 174.5 86.1584 173.5C86.9584 172.9 87.7584 172.5 88.2584 171.4C88.5584 170.6 89.1584 169.7 90.3584 169.4C91.1584 169.2 92.0584 168.5 92.6584 167.9C96.6584 163.2 101.558 159.5 106.158 155.4C109.658 152.3 112.458 148.7 115.658 145.4C120.558 140.2 125.458 135 130.458 129.9C131.958 128.4 133.458 126.9 134.558 125C135.558 123.3 137.058 121.9 138.458 120.5C140.158 118.7 141.558 116.6 142.658 114.4C142.758 114.3 142.758 114 142.858 114C145.758 111.8 145.358 108.2 146.358 105.2C146.758 103.9 147.158 102.7 148.158 101.8C149.358 100.7 150.258 99.3 150.858 97.8C151.658 95.7 153.158 94 154.858 92.5C155.858 91.7 156.958 90.8 157.558 89.7C159.558 86.1 162.658 83.5 165.458 80.6C169.658 76.3 174.158 72.1 178.458 67.8C179.258 67 179.858 66.1 180.258 65.1C180.858 63.8 181.858 63.2 183.058 62.5C184.158 61.9 185.358 61.1 186.158 60.1C188.658 56.9 191.858 54.7 195.458 53.1C197.858 52 199.158 50.2 200.358 48.1C201.058 46.9 201.658 45.8 203.058 45.3C203.458 45.2 203.758 44.7 204.058 44.3C206.658 40.4 209.358 36.6 212.758 33.4C213.458 32.7 213.758 31.7 214.258 30.9C214.558 30.4 214.958 29.9 215.358 29.5C218.758 26.2 222.158 22.8 225.958 19.9C228.858 17.7 231.358 14.8 233.958 12.3C234.458 11.8 234.958 11.1 235.558 10.6C236.758 9.7 237.458 8.5 237.258 7.2C237.958 6.6 238.458 6.1 239.158 5.7C239.558 5.4 240.158 5.3 240.658 5.3C242.658 5.3 244.658 5.3 246.758 5.3C246.858 4 246.958 2.9 247.058 1.5C249.658 1.3 252.258 1.4 255.158 1.5C255.158 3 255.158 4.3 255.158 5.7C255.158 8.4 255.358 11.1 255.158 13.8C254.958 16.1 256.158 17.2 257.958 18.1C260.158 19.2 262.458 20.3 264.358 21.8C266.058 23.1 267.758 24.6 268.558 26.9C269.058 28.2 269.658 29.4 270.058 30.7C270.358 31.6 270.958 32.4 271.558 33.1C273.458 35.1 275.358 37.1 277.458 39C278.558 40 280.058 40.7 281.458 41.3C282.958 41.9 284.158 42.7 285.158 43.9C286.158 45 287.558 45.5 288.858 46.3C290.058 47 291.158 47.7 292.358 48.5C292.958 48.9 293.358 49.5 294.058 49.8C295.358 50.4 296.058 51.2 296.158 52.7C296.158 53.5 296.658 54.3 297.158 55C298.358 56.6 299.858 58 299.958 60.2C299.958 60.4 299.958 60.6 300.058 60.6C302.858 62.9 303.658 66.6 306.258 69.1C307.658 70.4 308.458 72.4 309.458 74.1C310.958 76.4 312.458 78.6 313.858 80.9C315.658 83.9 317.258 87.1 318.858 90.2C320.658 93.7 323.058 96.7 325.558 99.7C327.258 101.8 329.458 103.6 331.358 105.6C333.058 107.4 333.858 109.7 335.058 111.8C335.758 112.9 336.458 114 337.158 115.1C337.458 115.6 337.858 116.1 338.158 116.6C338.958 118.4 339.858 120.3 340.558 122.1C341.058 123.4 341.158 124.9 341.558 126.3C341.958 127.7 342.558 129 342.758 130.4C343.158 132.4 343.358 134.5 343.558 136.5C343.658 138.1 344.058 139.5 345.058 140.8C346.358 140 347.058 139.1 347.158 137.6C347.158 136.7 347.558 135.7 347.858 134.9C350.458 128.1 349.658 121.1 348.758 114.1C348.158 109.7 346.458 105.6 344.658 101.5C343.758 99.4 343.058 97.2 342.658 95C341.458 88.7 340.458 82.3 339.458 75.9C339.258 74.9 339.258 73.8 338.958 72.8C336.758 64.1 336.258 55.2 336.458 46.2C336.558 39.4 336.458 32.6 336.558 25.8C336.558 24.8 336.558 23.8 336.558 22.6C339.358 22.6 341.958 22.6 344.658 22.6C344.658 23.6 344.758 24.5 344.758 25.4C344.758 32.5 344.658 39.6 344.858 46.7C344.958 53.1 345.558 59.4 347.158 65.7C348.158 69.5 348.458 73.6 349.058 77.5C349.758 81.7 350.358 85.9 351.358 90C352.058 92.7 353.258 95.3 354.358 97.9C356.458 102.7 357.458 107.7 357.658 112.9C357.858 119.7 357.958 126.5 357.958 133.3C357.958 135.1 357.458 136.9 357.058 138.7C356.458 141.1 355.958 143.5 355.058 145.8C354.558 147.1 353.358 148.1 352.358 149.1C351.158 150.5 349.858 151.7 348.658 152.9C348.758 153.4 348.758 153.6 348.758 153.7C354.258 161.5 356.858 170.6 359.958 179.5C363.158 188.7 366.058 198 369.158 207.2C370.958 212.3 373.058 217.2 374.958 222.2C375.658 224.1 376.158 226.1 376.758 228.3C378.258 228.1 379.258 226.8 380.458 225.8C381.758 224.7 382.758 223.4 383.958 222.1C384.858 221.1 386.058 220.7 387.258 220.1C389.058 219.2 390.658 217.9 392.058 216.4C393.558 214.8 394.958 213.1 395.558 210.9C395.758 210.3 396.158 209.7 396.558 209.4C399.758 207 401.758 203.5 403.858 200.2C405.458 197.6 408.058 195.9 409.658 193.4C411.358 190.9 413.258 188.4 414.958 185.9C416.058 184.2 416.958 182.4 418.458 181.1C419.058 180.6 419.358 179.8 419.658 179.1C420.058 177.7 420.958 177 422.358 176.8C423.558 176.6 424.258 176 424.858 174.9C425.758 173 427.058 171.2 428.258 169.4C429.158 168.2 428.758 167.3 428.058 166.4C427.258 165.3 426.358 164.2 425.558 163.1C424.658 161.9 423.758 160.8 422.358 160.1C421.558 159.7 420.658 158.9 420.258 158.1C419.158 155.8 417.358 154.2 415.258 153C413.058 151.6 412.058 149.5 410.658 147.6C410.658 147.5 410.558 147.5 410.558 147.4C410.558 144.4 410.458 141.3 410.758 138.3C410.958 136.5 412.058 134.7 412.258 132.9C412.758 130 414.058 127.6 415.958 125.5C416.558 124.9 416.858 124.2 417.158 123.3C418.658 119 420.358 114.7 421.958 110.5C424.158 108.7 424.658 106.2 425.458 103.7C426.658 100 428.458 96.5 430.058 92.9C432.658 87 435.158 81.1 437.858 75.2C438.958 72.8 440.458 70.5 441.458 68.1C443.858 61.7 446.058 55.2 448.358 48.7C449.558 45.3 450.558 41.8 452.058 38.4C453.558 35 455.458 31.8 457.158 28.6C460.458 22.5 463.158 16.1 465.658 9.6C466.858 6.5 467.758 3.3 468.858 0C471.158 0 473.758 0 476.258 0C476.858 1.9 476.858 7.3 476.158 9.4C474.758 13.5 473.258 17.6 471.758 21.6C468.758 29.5 464.458 36.9 460.858 44.5C459.658 47 458.658 49.5 457.658 52.1C455.058 59.5 452.558 66.9 449.858 74.2C448.858 76.8 447.258 79.2 446.158 81.8C442.758 89.5 439.358 97.2 435.958 104.8C435.358 106.2 434.758 107.5 434.158 108.9C433.858 109.6 433.558 110.4 433.358 111.1C433.058 112.3 431.258 116 430.558 117.1C430.058 117.9 429.558 118.7 429.258 119.6C428.058 122.6 426.758 125.6 425.858 128.7C425.258 130.7 424.758 132.5 423.158 133.9C421.258 135.8 420.758 138.3 420.258 140.8C419.858 142.6 420.958 143.7 422.358 144.7C423.858 145.9 425.258 147.2 426.658 148.5C427.258 149 427.658 149.7 428.158 150.3C428.658 150.9 429.058 151.7 429.658 152C431.558 152.8 432.658 154.4 433.858 155.9C434.758 157 435.658 158 436.458 159.2C436.958 160 436.958 161 437.458 161.8C439.558 165.6 438.558 169.7 438.258 173.7C438.158 174.5 437.558 175.2 437.058 175.9C435.458 178.4 433.858 180.8 432.258 183.3C431.658 184.2 430.958 185 430.158 185.9C428.858 185.8 428.058 186.5 427.058 187.6C423.658 191.1 422.158 195.8 418.858 199.4C417.458 200.9 416.058 202.4 414.658 204C413.758 205 412.858 206.1 412.058 207.2C409.758 210.7 407.358 214.1 404.458 217.1C404.158 217.4 403.958 217.8 403.758 218.2C402.658 220 401.558 221.8 400.358 223.4C399.658 224.4 398.758 225.4 397.758 225.9C396.758 226.4 396.458 227.1 396.058 228.2C393.558 227.8 391.858 229.1 390.458 230.9C388.158 233.9 384.958 235.8 382.058 238.1C381.058 238.9 380.058 239.6 378.858 240.5C380.458 243.9 382.158 247.1 383.558 250.5C384.958 254 386.158 257.5 387.058 261.1C388.158 265.6 390.058 269.8 392.058 273.8C394.758 279.2 396.958 284.9 400.058 290.1C401.058 291.8 401.358 293.7 401.958 295.6C402.658 298 403.858 300.3 405.058 302.4C407.558 306.6 410.158 310.7 412.858 315C416.058 315 419.458 315 422.758 315C423.058 315 423.458 315 423.658 314.9C426.358 313 429.758 312.8 432.658 311.4C437.458 309 442.658 308.5 447.758 307.3C449.158 307 450.658 307 452.058 307C456.558 307 461.058 307.1 465.458 307.2C466.558 307.2 467.758 307.6 468.958 307.8C470.158 313.6 471.158 319.2 472.458 324.6C473.758 330.4 475.258 336.1 477.758 341.5C477.958 341.8 478.058 342.2 478.058 342.6C477.958 344.7 478.658 346.7 479.558 348.5C480.258 350 480.558 351.6 480.858 353.3C481.258 355.5 481.958 357.6 482.558 359.7C483.058 361.5 483.758 363.3 484.258 365.1C484.658 366.6 484.958 368.2 485.258 369.7C485.758 372.8 486.158 376 486.758 379.2C487.058 380.9 487.458 382.7 488.358 384.1C489.458 386.1 490.158 388.1 490.758 390.2C491.158 391.8 491.858 393.3 492.358 394.8C492.558 395.4 492.458 396.1 492.558 396.7C492.658 397.9 492.658 399.1 493.058 400.2C494.058 402.8 494.058 405.5 494.058 408.2C494.058 417.1 494.058 425.9 494.058 434.8C494.058 435.4 494.058 436.1 493.958 436.7C493.858 437.7 492.658 438.8 491.658 438.9C489.558 438.9 487.358 438.9 484.958 438.9C484.958 435.9 484.358 433.1 485.358 430.3C485.558 429.7 485.558 429.1 485.558 428.4C485.558 422.6 485.558 416.7 485.558 410.9C485.558 409.9 485.358 408.8 485.158 407.8C485.058 407.3 484.758 406.7 484.758 406.2C484.858 403.1 483.358 400.4 482.758 397.5C482.258 395.1 481.458 392.9 480.258 390.7C479.158 388.7 478.758 386.2 478.258 383.9C477.758 381.2 477.558 378.4 477.058 375.6C476.758 373.8 476.558 372 475.458 370.4C474.958 369.7 474.958 368.7 474.758 367.9C474.258 365.7 474.258 363.3 472.858 361.3C472.558 360.8 472.658 360.1 472.558 359.4C472.158 357.9 471.858 356.3 471.358 354.9C470.658 353.1 469.958 351.2 469.758 349.2C469.558 347.4 468.658 345.8 468.058 344C465.558 336.8 463.758 329.4 462.458 321.9C462.158 320.2 461.558 318.5 461.358 316.8C461.158 315.5 460.558 315 459.258 315.1C456.558 315.2 453.858 315.1 451.158 315.8C449.058 316.4 446.958 316.6 444.858 317.2C442.858 317.8 440.858 318.6 438.958 319.4C436.258 320.4 433.358 321.1 430.858 322.5C429.858 323.1 428.558 323.1 427.358 323.2C424.958 323.3 422.558 323.2 420.158 323.2C419.358 323.2 418.558 323.2 417.658 323.2C417.658 323.8 417.658 324.1 417.758 324.5C418.758 327.8 419.758 331.2 420.758 334.5C421.158 335.7 421.658 336.7 422.758 337.5C423.758 338.3 424.258 339.8 424.658 341.1C425.358 343.3 425.658 345.6 426.258 347.8C426.558 349 427.158 350.1 427.558 351.3C427.658 351.5 427.758 351.8 427.758 352C427.858 355.8 430.158 359 430.958 362.6C431.858 366.2 432.958 369.8 433.858 373.4C434.658 376.6 435.258 379.8 435.858 383C436.958 388.8 438.158 394.5 440.358 400C440.758 400.9 441.158 401.8 441.158 402.7C441.258 409.8 444.458 416.2 445.658 423.1C446.058 425.3 446.458 427.5 447.058 429.6C448.158 433.7 449.258 437.9 450.458 442C451.958 447.2 453.558 452.3 454.958 457.6C456.158 462.4 457.058 467.4 458.258 472.3C459.058 475.9 460.058 479.4 461.058 482.9C461.458 484.3 462.258 485.6 462.758 487.1C463.358 489.1 463.958 491.2 464.358 493.3C464.658 494.8 464.658 496.3 464.958 497.8C465.158 498.8 465.658 499.7 465.958 500.6C466.758 502.8 467.458 504.9 468.258 507.1C468.558 507.9 468.658 508.8 469.058 509.6C471.258 513.8 470.358 518.3 470.058 522.7C470.058 522.9 469.858 523.1 469.758 523.4C463.858 524.5 458.358 523.4 453.258 520.1C452.258 519.4 451.258 518.5 450.158 518.1C448.558 517.4 446.858 517 444.958 516.4C444.358 513.6 441.658 512.9 439.158 512C438.558 511.8 437.858 511.7 437.258 511.8C434.258 512.5 432.158 510.7 430.458 508.8C427.958 506 424.858 504.1 421.658 502.2C419.958 501.2 418.258 500.5 416.558 499.8C414.258 498.8 412.158 497.5 410.058 496.3C407.758 495 405.358 493.9 402.658 493.3C400.558 492.8 398.458 492 396.558 491C393.558 489.5 390.758 487.7 387.758 486.1C387.258 485.8 386.658 485.7 386.158 485.7C384.658 485.7 383.658 484.9 382.758 483.9C381.858 482.8 380.758 482.1 379.558 481.4C376.858 479.7 374.058 478 371.858 475.5C370.758 474.3 369.458 473.4 368.058 472.5C365.758 471 363.658 469.1 361.458 467.5C359.258 465.9 356.958 464.4 354.758 462.7C353.658 461.9 352.158 461.5 350.858 461C348.958 460.4 347.158 459.4 345.458 458.3C343.958 457.3 341.858 457.2 340.058 456.6C335.458 455 330.758 455.4 326.058 455.4C315.558 455.4 315.558 455.4 305.858 458.7C301.358 460.3 296.758 461.7 292.258 463.6C288.858 465 285.658 466.8 282.558 468.7C278.358 471.3 274.158 474 270.658 477.7C269.958 478.5 268.558 478.9 267.358 478.9C261.958 479 256.558 479.4 251.358 478.8C246.858 478.3 242.358 476.8 238.058 475.3C233.058 473.6 227.958 471.9 222.858 470.8C221.358 470.5 220.558 470.7 219.558 471.9C218.558 473.1 217.258 473.9 216.258 475.1C214.658 476.9 213.158 478.9 211.658 480.8C211.358 481.1 211.158 481.7 210.758 481.8C207.758 482.6 206.758 485.2 205.858 487.7C205.158 489.8 204.458 491.5 202.058 492.3C201.258 492.6 200.458 493.6 199.958 494.4C198.758 496.3 197.758 498.2 196.658 500.2ZM300.858 327.8C299.858 327.5 299.158 327.3 298.458 327.1C296.158 326.5 294.658 325.1 293.858 323C292.558 319.4 291.258 315.8 289.958 312.1C288.158 307 287.058 301.6 284.758 296.6C282.258 291.2 281.158 285.3 280.658 279.3C280.258 274.1 279.758 268.8 278.558 263.7C277.358 258.5 276.858 253.2 276.958 247.8C276.958 245.4 276.758 243 276.658 240.6C276.258 233.5 275.658 226.4 275.658 219.3C275.558 204.4 275.658 189.4 275.658 174.5C275.658 171.7 275.458 168.9 274.758 166.1C273.858 162.7 273.958 159 273.158 155.6C273.158 155.5 273.158 155.4 273.158 155.4C272.958 154.2 272.958 153 272.658 151.9C271.258 147.5 270.958 143 270.458 138.5C270.258 137 269.958 135.7 269.158 134.3C267.958 132 266.958 129.6 265.958 127.2C264.558 123.9 263.258 120.7 261.958 117.4C261.658 116.5 261.258 115.6 261.258 114.7C260.958 111.1 260.058 107.6 258.558 104.4C257.458 102.2 257.158 99.9 256.858 97.6C256.758 96.9 256.758 96.2 256.658 95.5C255.858 88 255.058 80.6 254.158 73.1C253.458 67.3 252.658 61.6 252.058 55.8C251.258 46.8 249.458 38 247.858 29.1C247.358 26 246.258 23.8 243.158 22.5C241.158 21.7 240.358 21.5 238.658 23.1C236.858 24.7 235.158 26.3 233.358 27.8C229.758 30.9 226.158 33.9 222.958 37.3C222.658 37.6 222.458 38 222.258 38.4C221.758 39.2 221.458 40.2 220.858 40.8C217.358 44.2 214.358 48 211.758 52.1C211.458 52.6 211.158 53.2 210.758 53.3C209.158 53.8 208.658 55.1 208.058 56.4C206.958 58.6 205.358 60.2 202.958 61.2C199.658 62.7 196.558 64.5 194.158 67.5C192.858 69.1 191.258 70.7 189.158 71.5C188.758 71.6 188.458 72.1 188.258 72.5C186.058 76.2 182.658 78.9 179.758 82C174.758 87.4 168.558 91.7 164.858 98.3C161.458 101 158.858 104.3 157.258 108.4C155.258 109.8 154.558 111.9 154.058 114.2C153.858 115.2 153.658 116.2 153.458 117.2C153.258 118 153.158 118.8 152.758 119.4C151.558 121.3 150.058 123 148.958 124.9C146.958 128.7 142.858 130.8 141.358 135C141.358 135.1 141.058 135.1 140.958 135.2C139.058 137.1 137.058 138.9 135.258 140.9C130.958 145.4 126.858 150 122.558 154.6C119.158 158.2 115.958 162 112.058 165.1C108.658 167.7 105.658 170.8 102.458 173.7C101.158 174.9 100.158 176.4 98.6584 177.3C97.2584 178.2 95.8584 178.9 95.3584 180.7C95.3584 180.9 95.0584 181 94.8584 181.1C91.4584 182.6 89.3584 185.7 86.7584 188.2C85.8584 189.1 84.9584 190.1 83.8584 190.7C82.6584 191.4 81.5584 192 81.1584 193.4C80.8584 194.3 80.1584 195.2 79.6584 196C77.6584 199.2 75.5584 202.3 75.5584 206.3C75.5584 206.8 75.4584 207.2 75.2584 207.7C74.6584 209.6 74.0585 211.5 73.4585 213.3C72.8585 214.9 72.2584 216.6 71.5584 218.1C70.4584 220.3 69.2584 222.3 68.0584 224.5C65.3584 229.2 62.8584 234 60.0584 238.6C58.0584 241.8 56.1585 244.9 54.4585 248.3C52.1585 253.2 49.3584 257.8 45.6584 261.8C44.2584 263.3 43.2584 264.9 42.5584 266.7C41.9584 268.3 41.2584 269.8 39.3584 270.4C38.7584 270.6 38.3584 271.3 37.9584 271.9C37.6584 272.3 37.5584 272.9 37.2584 273.4C35.6584 277 32.7584 279.4 29.7584 281.8C27.4584 283.7 24.6584 285 22.0584 286.5C21.5584 286.8 20.8584 286.7 20.1584 286.7C17.1584 286.8 14.0584 286.8 11.0584 286.8C10.2584 286.8 9.45844 286.9 8.45844 286.9C8.45844 287.9 8.45844 288.8 8.45844 289.6C8.45844 300.9 8.35844 312.1 8.45844 323.4C8.55844 327.7 8.95844 332 9.75844 336.2C10.4584 340.3 11.8584 344.3 12.9584 348.4C13.4584 350.2 13.7584 352.1 14.1584 354C14.7584 356.5 15.5584 358.8 17.2584 360.8C18.2584 362 19.0584 363.6 19.3584 365.2C19.9584 369.2 21.7584 372.7 23.1584 376.4C25.3584 381.8 27.8584 387.1 29.1584 392.8C29.9584 396.2 30.7584 399.7 32.4584 402.8C34.3584 406.3 35.0584 410.1 35.8584 413.8C37.1584 420.1 37.7584 426.6 37.6584 433.1C37.6584 433.6 37.7584 434.1 37.9584 435C42.1584 433.4 46.1584 432.1 50.1584 430.5C52.6584 429.5 55.1585 428.5 57.9585 428.6C59.1585 428.7 60.3584 428.6 61.5584 428.3C65.5584 427.3 69.6584 427.3 73.6584 427.3C78.6584 427.3 83.5584 427.2 88.5584 427.3C91.0584 427.3 93.6585 427.1 95.9585 427.9C102.858 430.1 109.558 432.7 116.358 435C118.158 435.6 119.958 436.1 121.758 436.6C123.358 437 125.058 437.2 126.658 437.7C131.158 439.1 135.658 440.8 140.158 442.2C143.958 443.3 147.858 444 151.758 445.1C153.958 445.7 156.058 446 158.358 446.1C159.958 446.1 161.558 446.4 163.058 446.7C164.558 447 165.858 447.8 167.358 448.1C169.658 448.5 171.958 448.5 174.258 449.1C178.358 450.1 182.558 450.5 186.758 450.9C188.658 451.1 190.658 451.2 192.358 451.9C194.858 453.1 197.458 453.6 200.058 454.3C202.358 454.9 204.558 455.7 206.858 456.4C208.058 456.8 209.158 457.8 210.258 457.7C213.758 457.5 216.658 458.8 219.658 460.3C221.558 461.2 223.758 461.5 225.858 462.1C231.058 463.5 236.358 464.6 241.458 466.3C246.258 468 251.058 469.5 256.058 470.7C259.158 471.5 262.358 471.7 265.058 469C268.858 465.2 273.458 462.6 278.058 459.8C281.958 457.4 285.958 455.4 290.458 454.4C290.958 454.3 291.458 454 292.058 453.9C297.058 452.1 301.958 450.3 306.958 448.6C308.658 448 310.458 447.5 312.258 447.5C321.258 447.4 330.158 447.5 339.158 447.6C340.458 447.6 341.858 447.7 343.158 448C345.858 448.6 348.558 449.3 351.258 450C351.858 450.2 352.558 450.4 352.958 450.8C354.558 452.4 356.658 453.2 358.758 453.8C361.258 454.5 363.358 455.7 365.158 457.5C365.458 457.8 365.858 458.1 366.258 458.3C367.058 458.8 367.958 459.2 368.758 459.8C369.958 460.6 371.158 461.5 372.258 462.4C374.258 463.9 376.258 465.4 378.258 467C380.258 468.6 381.858 470.5 384.058 471.9C386.658 473.6 389.558 474.8 391.358 477.4C391.558 477.7 392.158 477.7 392.758 477.9C391.858 476.8 391.258 475.9 390.458 475.1C388.158 472.8 386.558 469.8 383.258 468.7C383.058 468.6 382.858 468.3 382.658 468C381.758 466.6 380.858 465.1 379.958 463.6C378.958 462.1 377.958 460.6 376.358 459.7C374.958 458.9 373.658 457.9 372.458 456.8C369.558 454.2 367.058 451.1 364.858 447.8C361.258 442.6 357.658 437.4 354.258 432.1C350.958 427.1 347.658 422.2 344.858 416.9C339.558 406.9 334.658 396.8 329.658 386.7C327.758 382.9 325.758 379 323.658 375.3C321.558 371.5 319.058 367.9 317.058 364.1C313.458 357.4 309.958 350.6 306.758 343.7C304.058 338.2 300.558 333.7 300.858 327.8ZM400.858 316.8C400.658 316.3 400.458 315.7 400.158 315.1C398.858 312.9 397.558 310.7 396.158 308.5C394.558 306 392.958 303.4 392.958 300.3C392.958 299.9 392.758 299.6 392.558 299.2C391.058 296.3 389.658 293.3 388.058 290.4C386.458 287.6 385.658 284.4 383.858 281.6C381.658 278 380.458 273.8 379.058 269.8C377.458 265.2 376.558 260.4 374.258 256C372.158 251.9 370.558 247.5 368.658 243.1C367.958 243.3 367.058 243.2 366.458 243.6C364.258 245 361.958 246.4 359.958 248C358.358 249.2 356.958 250.7 355.758 252.2C354.458 253.8 352.558 254.9 351.858 257C350.958 259.7 349.858 262.5 348.858 265.2C348.658 265.8 348.258 266.3 347.858 266.8C347.158 267.8 346.358 268.6 345.858 269.7C344.658 272.1 343.158 274.5 343.158 277.4C343.158 278.3 342.658 279.2 342.158 280C341.358 281.4 340.358 282.6 339.658 284C338.058 287 336.158 289.9 335.258 293.3C334.858 294.7 333.858 296.2 332.458 296.4C330.158 296.7 327.758 296.5 325.158 296.5C325.158 294.6 325.258 292.9 325.158 291.3C325.058 289.8 325.358 288.6 326.358 287.5C326.758 287.1 326.958 286.6 327.158 286.1C328.558 283.2 329.658 280.2 331.258 277.5C332.858 274.8 335.058 272.5 334.958 269.1C334.958 268.7 335.158 268.2 335.358 267.7C336.158 266 336.958 264.3 337.958 262.7C340.058 259.3 341.858 255.8 343.058 252C343.958 249.3 345.358 247.1 347.458 245.3C350.258 242.9 352.258 239.7 355.858 238.2C356.158 238.1 356.358 237.9 356.558 237.6C357.458 236.5 358.758 236 360.058 235.5C362.558 234.6 365.058 233.6 367.658 232.5C367.358 231.5 367.158 230.5 366.858 229.6C364.858 224.5 362.758 219.4 360.958 214.2C357.158 203.1 353.558 191.8 349.658 180.7C347.158 173.4 344.558 166.1 339.758 159.8C338.858 160.8 337.958 161.7 337.058 162.6C334.458 165.5 332.458 168.8 330.658 172.2C327.858 177.3 324.758 182.2 322.758 187.6C320.658 193.1 318.658 198.5 316.358 203.9C314.958 207.2 314.258 210.5 314.358 214C314.358 214.8 314.258 215.6 314.258 216.4C311.558 216.4 308.958 216.4 306.358 216.4C306.258 215.9 306.158 215.6 306.158 215.3C306.158 211.1 306.258 206.8 306.358 202.6C306.358 201.8 306.758 201.1 306.958 200.3C308.058 197.3 309.358 194.3 310.458 191.2C313.558 182.4 317.358 173.9 322.058 165.8C324.258 162.1 326.258 158.2 329.158 155C331.158 152.8 333.358 150.9 335.458 149C336.158 148.3 336.758 147.6 336.058 146.6C334.958 145.1 335.058 143.3 334.958 141.6C334.958 140.2 334.958 138.7 334.458 137.4C333.058 133.7 332.858 129.6 330.758 126C329.958 124.5 329.458 122.9 328.358 121.5C327.658 120.6 327.258 119.5 326.658 118.5C325.558 116.6 324.758 114.5 323.258 113C317.758 107.8 312.958 102.2 309.858 95.3C309.058 93.6 308.058 92 307.158 90.4C305.558 87.6 304.058 84.7 301.958 82.2C300.158 80.1 298.958 77.6 297.358 75.2C296.358 73.7 295.058 72.2 294.258 70.6C293.658 69.5 293.058 68.9 291.858 68.6C291.958 66.2 290.958 64.3 289.558 62.6C288.558 61.5 287.658 60.4 287.558 58.8C287.558 58.4 287.058 58 286.658 57.7C283.458 54.6 278.958 53.5 275.958 50.2C275.858 50.1 275.758 50 275.558 49.9C271.358 48.5 268.658 45.1 265.558 42.3C262.958 39.9 261.558 36.9 260.358 33.8C259.858 32.6 259.258 31.9 258.258 31C258.158 31.6 258.058 31.9 258.158 32.2C258.958 38 259.758 43.9 260.558 49.7C261.658 58.5 262.758 67.3 263.758 76.1C264.458 81.8 264.958 87.5 265.558 93.2C265.658 94.1 265.758 95 266.158 95.7C268.058 99.1 268.758 102.8 269.458 106.5C269.858 108.5 270.258 110.3 271.158 112.1C271.858 113.4 272.358 114.8 272.858 116.2C274.258 120.1 275.458 124.1 277.858 127.6C278.358 128.4 278.558 129.4 278.758 130.3C279.758 136.8 280.658 143.4 281.658 149.9C281.758 150.6 282.058 151.3 282.258 151.9C282.458 152.6 282.758 153.3 282.758 154C283.058 156.6 282.758 159.1 283.758 161.7C284.458 163.3 284.258 165.3 284.258 167.1C284.258 183.1 284.158 199.1 284.158 215.1C284.158 219 284.358 222.9 284.558 226.8C284.858 233.1 285.358 239.4 285.458 245.7C285.558 249.7 286.158 253.6 286.858 257.6C287.558 261.5 288.058 265.5 288.558 269.4C289.158 275 289.558 280.7 291.558 286C292.658 289.1 294.058 292.1 295.058 295.3C297.258 301.9 299.358 308.5 301.458 315.2C301.558 315.4 301.758 315.6 301.758 315.8C302.458 317.8 303.958 318.8 306.058 318.9C306.858 319 307.658 319 308.458 319.1C308.658 320.2 309.058 321.1 308.958 322C308.858 324.6 309.858 327 310.958 329.2C313.658 334.6 316.358 339.9 319.058 345.3C321.858 350.7 324.558 356.2 327.458 361.6C330.158 366.5 333.358 371 335.858 376.1C339.558 383.8 343.658 391.3 347.258 399.1C350.058 404.9 352.958 410.7 356.558 416.1C361.458 423.4 366.158 430.9 371.058 438.2C374.458 443.3 378.258 448.1 383.658 451.4C384.958 452.2 385.958 453.6 386.858 455C388.558 457.5 389.458 460.5 392.758 461.6C393.158 461.7 393.358 462.2 393.658 462.6C397.358 466.8 401.058 471 404.558 475.3C408.658 480.2 412.758 485.1 418.058 488.7C419.658 489.8 421.158 490.8 423.258 490.6C423.858 490.6 424.558 490.7 425.058 491C427.458 492.5 429.758 494.2 432.158 495.8C434.458 497.4 436.658 498.9 439.158 499.8C439.858 500.1 440.758 500.1 441.058 500.6C442.758 502.7 445.158 503.5 447.458 504.7C449.458 505.7 451.658 506.4 452.258 508.3C454.358 509.2 456.058 509.9 457.758 510.6C458.458 509.8 457.958 509.1 457.458 508.5C456.458 507.1 456.158 505.5 455.958 503.8C455.458 499.8 455.158 495.7 452.958 492.2C452.858 492 452.858 491.7 452.758 491.5C451.458 486.7 450.158 481.9 448.958 477C447.758 472 446.858 466.9 445.558 461.9C444.358 457.1 442.758 452.5 441.458 447.8C440.358 444.1 439.258 440.5 438.458 436.8C436.858 429.6 435.458 422.3 432.958 415.4C432.658 414.6 432.558 413.7 432.558 412.8C432.658 410.5 432.158 408.2 431.458 406C430.258 402.3 429.058 398.6 428.358 394.8C426.558 385.8 424.658 376.8 421.758 368C421.158 366.1 419.758 364.4 419.658 362.5C419.458 359.3 417.758 356.6 417.358 353.6C417.158 352 416.558 350.4 416.158 348.7C415.758 347.3 415.658 345.7 413.858 345.2C413.658 345.1 413.558 344.7 413.458 344.4C412.758 342.3 411.958 340.3 411.358 338.2C410.158 333.9 408.758 329.8 406.458 325.7C404.358 326.4 402.258 326.8 400.458 327.9C394.158 331.7 388.058 335.7 381.858 339.8C380.758 340.5 379.758 341.4 378.958 342.4C377.158 344.8 374.858 346.5 372.158 347.8C368.458 349.7 364.658 351.6 361.158 354C358.358 355.9 355.458 356.4 352.258 356.4C349.258 356.4 346.258 356.4 343.058 356.4C343.058 353.5 343.058 350.9 343.058 348C344.858 348 346.558 348.1 348.158 348C349.458 347.9 350.858 347.6 351.958 347C355.958 344.9 359.958 342.7 363.858 340.4C366.458 338.9 369.358 337.8 370.858 334.9C371.258 334.2 372.058 333.7 372.758 333.3C377.558 330.1 382.458 326.9 387.258 323.7C390.858 321.3 394.558 318.9 398.858 317.8C399.658 317.6 400.158 317.2 400.858 316.8ZM126.158 447.9C122.358 447 118.758 444.7 114.458 444.7C114.058 444.7 113.558 444.5 113.158 444.3C109.558 443 106.058 441.7 102.458 440.4C101.958 441 101.258 441.5 100.958 442.2C99.4585 445.6 97.5584 448.7 95.5584 451.7C94.6584 453.1 93.6584 454.5 92.7584 455.9C92.3584 456.5 91.8584 457.1 91.5584 457.8C90.9584 459.2 90.5584 460.8 89.8584 462.2C89.1584 463.4 88.4585 464.7 86.9585 465.3C86.3585 465.5 85.7584 466.4 85.6584 467.1C84.9584 471.4 82.9584 475.3 81.1584 479.2C79.8584 482 78.6584 485 78.2584 488.2C78.1584 489.1 77.3584 489.9 76.7584 490.7C75.5584 492.1 73.8585 493.2 72.9585 494.7C71.6585 497.1 69.8584 498.9 68.0584 500.7C66.2584 502.5 64.4584 504.2 62.3584 505.7C58.8584 508.3 55.3584 511 53.8584 515.5C53.5584 516.5 52.7584 517.3 52.0584 518.1C50.9584 519.3 50.5584 520.6 50.8584 522.1C53.1584 523.3 55.3584 524.5 57.5584 525.6C59.7584 526.7 61.8584 527.8 64.0584 528.7C65.5584 529.3 67.1584 529.7 69.0584 530.2C71.1584 528.7 73.7584 527.2 75.7584 524.9C78.2584 521.9 81.1584 519.3 83.6584 516.3C85.5584 514 87.7584 511.9 88.8584 508.9C89.5584 507 90.5585 504.9 91.9585 503.5C93.5585 501.9 94.9584 500.2 96.2584 498.4C98.8584 494.9 101.658 491.6 102.658 487.2C102.958 485.7 104.158 485.3 105.558 485.3C109.358 485.3 113.058 485.2 116.858 485.3C117.958 485.3 119.058 486 120.158 486.4C121.058 486.8 121.958 487.6 122.858 487.7C124.358 487.9 125.758 488.2 127.158 488.8C127.758 489.1 128.558 489.1 129.258 489.1C140.158 489.1 150.958 489.1 161.858 489C167.458 489 173.058 488.8 178.558 490.1C179.258 490.3 179.958 490.3 180.658 490.4C183.358 490.7 186.058 490.9 188.958 491.2C190.058 490.5 191.058 489.2 191.658 487.6C192.258 485.9 193.558 484.7 195.158 484C196.558 483.4 197.058 482.6 197.458 481.3C198.458 478.1 199.858 475.3 203.158 473.8C203.458 473.6 203.858 473.4 204.058 473.1C205.658 470.9 207.358 468.7 209.158 466.2C207.858 466 206.658 466 205.558 465.7C203.758 465.4 201.758 465.3 200.358 464.5C198.058 463.2 195.658 462.7 193.258 462C191.158 461.4 189.058 461 187.058 460.4C184.958 459.8 183.058 460.2 181.258 461.4C180.058 462.2 178.658 462.8 177.258 463.1C176.058 463.4 175.258 463.9 174.558 464.8C173.958 465.5 173.258 466.2 172.458 466.5C170.658 467.3 169.158 468.2 168.258 470C168.158 470.3 167.958 470.7 167.758 470.8C165.958 471 164.658 472.8 162.558 472.5C161.158 472.2 159.658 472.5 158.258 472.5C151.158 472.5 144.058 472.5 136.958 471.4C131.458 470.6 125.958 469.4 120.358 469.7C119.558 469.8 118.658 469.4 117.758 469.3C117.758 466.8 117.758 464.6 117.758 462.4C117.758 461.3 118.058 460.4 119.058 459.8C120.058 459.2 120.458 458.4 120.458 457.2C120.458 456.8 120.658 456.3 120.958 455.9C122.458 453.4 124.258 450.8 126.158 447.9ZM166.158 457.1C165.858 457 165.458 456.8 165.158 456.8C162.258 456.9 159.558 455.8 156.758 455.1C155.758 454.8 154.758 454.3 153.758 454.3C149.658 454.5 145.858 453.5 142.058 452.2C140.758 451.7 139.358 451.5 138.158 451.3C137.558 452.2 137.358 453.3 136.758 453.6C135.158 454.5 134.758 456.6 132.858 457.1C132.458 457.2 132.158 457.9 131.858 458.4C131.258 459.3 130.758 460.3 130.158 461.4C134.758 462.1 139.258 462.8 143.858 463.4C147.958 463.9 152.158 464 156.258 464.3C157.858 464.4 159.658 463.7 160.358 462.6C161.558 460.8 163.158 459.8 164.958 458.9C165.558 458.4 166.258 458.1 166.158 457.1Z" fill="black"/>
</svg>
