<svg width="1251" height="704" viewBox="0 0 1251 704" fill="none" xmlns="http://www.w3.org/2000/svg">
<path d="M509.274 250.601V301.514H538.125V310H500.788V250.601H509.274Z" fill="#E6DA01"/>
<path d="M611.125 268.601V277.087H582.274V292.615H607.731V301.101H582.274V319.514H611.125V328H573.788V268.601H611.125Z" fill="#E6DA01"/>
<path d="M216.125 471.966C216.125 480.452 209.336 487.24 200.851 487.24H187.274V511H178.788V451.601H200.851C209.336 451.601 216.125 458.39 216.125 466.875V471.966ZM187.274 478.755H200.851C204.669 478.755 207.639 475.785 207.639 471.966V466.875C207.639 463.057 204.669 460.087 200.851 460.087H187.274V478.755Z" fill="#E6DA01"/>
<path d="M263.274 562H254.788V542.483L269.214 502.601H277.699L292.125 542.483V562H283.639V548.253H263.274V562ZM264.801 539.768H282.112L273.542 516.008H273.372L264.801 539.768Z" fill="#E6DA01"/>
<path d="M376.639 466.875C376.639 463.057 373.669 460.087 369.851 460.087H363.062C359.244 460.087 356.274 463.141 356.274 466.875V495.641C356.274 499.375 359.329 502.43 363.062 502.43H369.851C373.585 502.43 376.639 499.375 376.639 495.641V490.974H385.125V495.641C385.125 504.042 378.336 511 369.851 511H363.062C354.662 511 347.788 504.042 347.788 495.641V466.875C347.788 458.39 354.662 451.601 363.062 451.601H369.851C378.336 451.601 385.125 458.39 385.125 466.875V471.542H376.639V466.875Z" fill="#E6DA01"/>
<path d="M423.788 484.601H461.125V493.087H446.699V535.514H461.125V544H423.788V535.514H438.214V493.087H423.788V484.601Z" fill="#E6DA01"/>
<path d="M643.788 469.601H681.125V478.087H666.699V520.514H681.125V529H643.788V520.514H658.214V478.087H643.788V469.601Z" fill="#E6DA01"/>
<path d="M850.125 499.958L842.658 504.116L835.784 493H834.851H828.062C819.662 493 812.788 486.042 812.788 477.641V448.875C812.788 440.39 819.662 433.601 828.062 433.601H834.851C843.336 433.601 850.125 440.39 850.125 448.875V477.641C850.125 482.648 847.749 487.145 844.015 489.945L850.125 499.958ZM821.274 477.641C821.274 481.375 824.329 484.43 828.062 484.43H834.851C838.585 484.43 841.639 481.375 841.639 477.641V448.875C841.639 445.057 838.669 442.087 834.851 442.087H828.062C824.244 442.087 821.274 445.141 821.274 448.875V477.641Z" fill="#E6DA01"/>
<path d="M901.125 597.641C901.125 606.042 894.252 613 885.851 613H879.062C870.577 613 863.788 606.042 863.788 597.641V553.601H872.274V597.641C872.274 601.375 875.329 604.43 879.062 604.43H885.851C889.585 604.43 892.639 601.375 892.639 597.641V553.601H901.125V597.641Z" fill="#E6DA01"/>
<path d="M971.125 502.601V511.087H942.274V526.615H967.731V535.101H942.274V553.514H971.125V562H933.788V502.601H971.125Z" fill="#E6DA01"/>
<path d="M611.125 433.601V442.087H582.274V460.161H607.731V468.646H582.274V493H573.788V433.601H611.125Z" fill="#E6DA01"/>
<path d="M28.0544 260.688C22.1216 261.683 17.9131 259.608 15.5203 253.92C10.1154 241.091 3.51407 228.6 1.04385 214.789C-0.20885 207.788 -0.314415 200.308 0.621593 193.258C2.33174 180.336 5.8576 167.641 7.34255 154.698C8.34893 145.947 7.20883 136.942 6.92733 128.051C6.8288 124.804 6.29394 121.565 6.20949 118.319C5.90687 106.35 5.23829 94.3601 5.66759 82.4054C5.89983 75.8212 7.84926 69.2652 9.36235 62.7727C10.9247 56.0543 12.6419 49.3572 14.7673 42.8012C16.1115 38.6587 18.9758 35.6312 23.7825 35.1936C29.0607 34.7138 32.4529 37.7342 34.8668 41.7214C36.7459 44.8265 37.7522 48.4539 38.822 51.0509C47.6894 49.9923 56.6342 49.216 65.4735 47.7693C71.8074 46.7319 78.0498 45.01 84.2289 43.2387C97.1148 39.5408 110.015 36.2451 123.541 35.8076C135.407 35.4195 147.286 34.7843 159.102 33.6834C173.572 32.3355 187.718 29.2375 201.729 25.2008C211.533 22.3709 221.745 20.9101 231.801 18.9977C242.203 17.0146 252.703 15.4762 263.056 13.2673C272.514 11.249 281.543 12.3852 290.186 16.196C304.817 22.6462 319.279 29.4774 333.819 36.1322C336.24 37.2402 338.633 38.4328 341.124 39.3573C347.261 41.6509 348.647 46.5132 344.545 51.6578C344.347 51.9048 344.291 52.2576 343.939 53.1186C352.476 51.1638 360.597 49.1243 368.789 47.48C381.647 44.89 394.533 42.413 407.454 40.1759C419.488 38.0941 431.565 36.224 443.67 34.5514C452.509 33.3376 461.412 32.6108 470.286 31.651C483.165 30.2607 496.03 28.6235 508.937 27.5155C526.017 26.0547 542.528 22.0604 559.094 17.8897C569.672 15.2292 580.665 14.0648 591.524 12.7098C600.377 11.6089 609.315 11.0514 618.225 10.5504C633.285 9.70351 648.36 9.04015 663.428 8.40501C681.641 7.63579 699.868 7.16297 718.075 6.21732C729.427 5.62453 740.75 4.41777 752.081 3.44389C762.482 2.54765 772.863 1.34795 783.272 0.705754C792.371 0.141188 801.506 0.0353323 810.627 4.69212e-05C813.351 -0.00701015 816.102 0.783382 818.791 1.42557C822.084 2.21597 823.4 4.85531 823.773 7.86867C824.132 10.8185 821.662 15.5962 819.199 15.7514C813.597 16.1113 813.505 20.3173 813.4 23.8318C813.083 34.7702 812.457 45.8004 813.519 56.6471C814.603 67.7479 816.841 78.8628 819.86 89.6107C823.253 101.692 828.151 113.344 832.233 125.235C833.105 127.775 834.231 127.839 836.279 126.745C853.62 117.408 870.848 107.853 888.379 98.8978C902.166 91.8548 916.29 85.4893 930.337 78.9757C941.985 73.577 953.836 68.6088 965.427 63.0902C980.164 56.0684 994.873 48.962 1009.32 41.3615C1018.1 36.7391 1026.33 31.0653 1034.87 25.963C1042.83 21.2065 1050.86 16.563 1058.88 11.9124C1061.52 10.381 1065.88 11.0796 1067.58 13.1897C1070.03 16.2172 1070.08 19.407 1067.72 22.3992C1067.37 22.8438 1066.98 23.2601 1066.07 24.3046C1073.02 35.2501 1079.9 46.3367 1087.02 57.2752C1096.24 71.4176 1105.93 85.2565 1114.82 99.6035C1118.93 106.251 1121.4 113.901 1125.01 120.895C1128.41 127.479 1132.3 133.802 1136.01 140.217C1136.29 140.69 1136.84 141.007 1138.06 142.129C1140.66 131.381 1143.34 121.311 1145.49 111.135C1146.84 104.699 1147.61 98.1074 1148.26 91.5514C1148.55 88.5804 1148.16 85.4752 1147.62 82.5113C1147.04 79.3426 1148.16 76.9785 1150.43 75.186C1152.66 73.4288 1155.27 73.1536 1157.91 74.565C1160.51 75.9694 1162.13 78.0794 1161.59 81.0857C1160.52 87.0984 1159.31 93.0898 1157.96 99.046C1154.79 112.984 1151.57 126.914 1148.23 140.81C1147.29 144.726 1146.13 148.636 1144.54 152.327C1143.58 154.578 1143.6 156.18 1144.58 158.438C1151.24 173.731 1158.24 188.812 1166.88 203.131C1171.42 210.661 1174.75 218.924 1179.17 226.539C1183.79 234.52 1188.78 242.333 1194.16 249.82C1197.42 254.372 1202.16 256.623 1208.25 256.793C1213.92 256.948 1219.8 258.07 1225.11 260.06C1230.42 262.057 1235.81 262.071 1241.14 263.116C1243.6 263.596 1246.11 265.522 1247.86 267.456C1249.83 269.643 1249.64 272.6 1248 275.204C1245.91 278.521 1242.38 279.22 1239.36 278.098C1233.22 275.797 1227.88 277.773 1222.88 280.526C1210.75 287.201 1198.87 294.315 1186.92 301.323C1179.74 305.536 1172.69 310.017 1165.43 314.089C1163.05 315.423 1162.26 316.827 1162.28 319.509C1162.36 330.708 1162.21 341.964 1166.92 352.43C1172.55 364.928 1178.66 377.2 1184.35 389.663C1191.23 404.73 1197.8 419.931 1204.67 434.991C1206.68 439.387 1209.25 443.53 1211.41 447.538C1214.98 443.515 1218.07 439.627 1221.58 436.155C1225.52 432.245 1230.49 431.152 1235.71 432.993C1242.79 435.499 1248.05 439.832 1250.45 447.496C1252.56 454.249 1248.39 462.273 1241.11 465.054C1233.98 467.778 1226.55 468.554 1219.04 466.79C1217.09 466.331 1216 466.846 1215.59 468.568C1214.19 474.503 1212.46 480.417 1211.74 486.451C1210.99 492.802 1211.47 499.288 1211.01 505.688C1210.58 511.609 1206.92 515.575 1201.96 518.433C1188.34 526.288 1174.6 533.938 1161.12 542.025C1153.07 546.852 1145.14 546.535 1136.67 543.564C1128.48 540.691 1119.86 539.852 1111.25 540.67C1104.58 541.305 1099.3 545.398 1094.15 549.343C1089.47 552.928 1085 556.81 1080.22 560.268C1078.79 561.298 1076.61 561.806 1074.81 561.714C1071.51 561.545 1069.58 562.244 1068.36 565.786C1061.29 586.28 1052.2 605.856 1041.31 624.614C1033.66 637.811 1026.52 651.318 1018.75 664.437C1013.37 673.519 1004.88 679.207 995.478 683.611C984.64 688.678 973.225 691.79 961.423 693.456C956.032 694.218 950.578 694.719 945.138 694.938C934.919 695.347 924.686 695.77 914.475 695.622C896.022 695.361 877.935 697.633 860.151 702.46C848.356 705.664 837.701 704.331 829.826 694.027C826.778 690.047 823.942 685.573 822.352 680.873C818.699 670.097 815.56 659.116 812.788 648.072C808.952 632.8 805.644 617.395 802.09 601.982C797.488 605.708 793.209 609.335 788.754 612.73C784.567 615.92 779.865 616.816 774.693 615.32C767.887 613.344 761.159 611.248 756.627 605.278C752.707 600.112 751.476 593.838 750.87 587.684C749.35 572.286 748.33 556.831 747.274 541.383C746.817 534.742 746.303 528.045 746.641 521.418C747.07 513.091 748.365 504.813 749.259 496.514C749.329 495.865 749.209 495.187 749.167 494.263C745.367 504.496 741.623 514.418 737.991 524.382C731.306 542.745 725.084 561.319 715.752 578.56C709.271 590.542 702.05 602.222 691.972 611.53C682.281 620.478 672.295 629.603 659.135 633.04C650.591 635.27 641.646 636.251 632.814 637.049C624.235 637.818 615.564 637.952 606.936 637.804C592.192 637.55 577.322 636.576 564.183 629.201C554.956 624.021 546.595 617.268 537.946 611.071C535.49 609.314 533.456 606.985 531.099 605.087C530.423 604.544 529.135 604.127 528.389 604.388C518.403 607.966 508.381 611.467 498.564 615.475C495.692 616.647 493.208 619.131 490.963 621.424C488.211 624.233 489.196 631.819 492.638 635.193C497.501 639.963 502.35 644.818 504.75 651.283C506.15 655.051 507.065 659.285 506.952 663.28C506.748 670.358 499.718 673.526 493.651 669.751C488.767 666.709 486.051 661.925 484.15 656.837C482.271 651.798 481.349 646.399 479.703 641.262C479.28 639.942 477.929 638.509 476.648 637.952C467.394 633.936 457.858 633.767 448.716 637.853C439.335 642.045 430.355 647.126 421.135 651.699C403.802 660.302 386.489 668.961 369.029 677.295C362.476 680.421 355.495 681.042 348.042 680.449C338.731 679.708 329.28 680.534 319.899 680.915C314.698 681.127 309.469 681.522 304.331 682.348C293.409 684.105 282.536 686.187 271.649 688.163C269.84 688.495 267.961 688.749 266.286 689.461C263.224 690.76 260.916 689.906 258.798 687.626C256.989 685.679 256.152 683.562 257.123 680.936C258.284 677.803 260.621 675.961 263.795 675.481C275.097 673.766 286.406 672.052 297.751 670.626C305.577 669.638 313.473 669.144 321.334 668.41C325.951 667.98 330.561 667.225 335.191 667.119C340.188 667.013 345.241 667.182 350.196 667.803C357.163 668.678 363.603 667.013 369.718 664.197C385.278 657.02 400.761 649.681 416.139 642.123C423.514 638.502 430.524 634.127 437.807 630.309C447.182 625.404 457.189 623.146 467.774 624.056C470.504 624.289 473.186 625.143 476.064 625.75C476.705 615.976 482.996 610.239 490.892 606.562C500.281 602.187 510.169 598.898 519.845 595.137C520.472 594.897 521.091 594.643 521.534 594.466C520.014 589.978 517.987 585.765 517.248 581.34C516.39 576.21 516.425 570.888 516.51 565.659C516.573 561.855 517.621 558.066 517.748 554.255C518.339 536.697 518.558 519.125 519.332 501.581C519.705 493.134 520.901 484.715 521.929 476.303C523.019 467.34 524.349 458.406 525.546 449.451C525.616 448.9 525.433 448.314 525.405 448.081C516.749 447.538 508.282 447.009 499.985 446.494C501.674 451.13 503.849 455.879 505.137 460.855C509.014 475.893 507.642 490.424 500.893 504.594C496.832 513.112 493.701 522.082 490.245 530.882C486.839 539.562 481.427 546.506 473.805 551.997C452.242 567.522 428.426 578.482 403.45 587.021C384.448 593.521 365.348 599.745 346.142 605.588C337.556 608.199 328.583 608.863 319.73 606.146C314.599 604.572 310.349 601.664 307.076 597.063C303.022 602.702 299.25 608.347 295.07 613.675C290.312 619.737 283.31 622.751 276.547 625.722C253.245 635.962 230.57 647.309 209.985 662.447C203.264 667.387 195.529 669.222 187.605 670.238C165.472 673.068 143.704 677.62 122.169 683.35C110.156 686.547 97.9101 688.092 85.5731 687.097C76.1848 686.335 67.4793 683.315 61.5536 674.917C59.7097 672.306 56.7609 670.499 54.4244 668.213C53.0169 666.829 51.8486 665.206 50.5256 663.738C48.7802 661.812 47.2531 660.047 44.1776 659.546C38.4349 658.615 33.7478 650.506 35.3102 644.451C36.2391 640.859 35.5424 638.523 32.9033 635.969C28.8426 632.045 27.4984 626.625 26.6468 621.255C25.6686 615.08 24.7889 608.848 24.5355 602.617C24.0359 590.331 23.7051 578.023 23.8318 565.737C24.0429 545.942 24.7396 526.154 25.1337 506.359C25.2815 499.146 25.0704 491.927 25.183 484.715C25.2745 479.118 25.8938 473.529 25.7742 467.947C25.6475 462.026 24.5566 456.112 24.5637 450.199C24.5707 444.285 24.7326 438.194 26.1612 432.514C27.055 428.971 30.1023 425.767 32.7485 422.937C35.831 419.641 39.5679 416.96 42.9319 413.918C43.7554 413.17 44.6843 412.105 44.818 411.088C45.7048 404.405 50.3989 401.138 55.656 398.068C66.0295 392.006 76.1637 385.549 86.5795 379.571C94.1872 375.21 102.393 372.592 111.296 372.169C117.052 371.893 122.788 370.934 128.517 370.207C133.929 369.515 139.298 374.871 138.405 380.602C137.645 385.478 136.265 390.263 135.062 395.534C136.033 395.153 136.941 394.878 137.778 394.469C150.369 388.287 162.945 382.077 175.528 375.881C186.936 370.263 199.006 367.793 211.709 367.207C224.574 366.615 237.46 365.493 250.205 363.686C265.976 361.456 281.572 358.005 297.329 355.613C307.083 354.131 316.929 352.987 326.88 354.575C337.183 356.22 346.853 354.674 355.748 348.591C363.427 343.34 372.041 341.513 381.204 344.103C386.58 345.62 390.895 348.958 394.976 352.663C398.333 355.704 401.803 358.619 406.004 362.267C403.041 345.267 400.184 329.325 397.559 313.348C397.067 310.349 395.363 309.509 392.921 309.382C386.989 309.064 381.049 308.726 375.116 308.74C373.413 308.74 371.358 309.488 370.063 310.603C362.674 316.968 350.956 313.115 347.416 302.988C343.179 290.864 344.017 278.86 348.028 266.891C348.345 265.946 348.626 264.993 348.556 263.913C345.811 267.639 343.313 271.584 340.273 275.049C333.636 282.629 324.677 286.602 315.556 290.222C299.116 296.75 282.564 303.009 266.251 309.848C247.158 317.85 227.67 324.653 208.099 331.358C188.977 337.914 170.363 345.973 151.72 353.841C144.26 356.989 137.272 361.287 130.171 365.246C123.33 369.056 115.842 370.256 108.277 371.413C96.2914 373.248 84.3344 375.238 72.3775 377.271C62.2503 378.993 52.1794 381.046 42.0241 382.585C35.465 383.58 29.8349 380.969 26.7805 375.175C22.3327 366.735 17.8005 358.125 15.0629 349.057C13.2964 343.213 14.5069 336.403 14.711 330.038C14.8658 325.183 16.0411 320.327 15.8933 315.493C15.5977 305.889 17.3008 296.834 20.9956 287.978C22.382 284.647 22.4031 280.772 23.3462 277.23C24.6129 272.438 26.1683 267.731 27.5758 262.975C27.8151 262.368 27.8714 261.704 28.0544 260.688ZM47.8865 645.919C48.2454 645.715 48.6043 645.517 48.9632 645.312C51.8627 646.935 55.8883 647.853 57.4506 650.33C61.455 656.674 66.3532 662.115 71.8919 666.942C74.9533 669.617 78.6832 671.84 82.4906 673.272C88.0011 675.34 93.8775 674.91 99.6976 674.098C106.686 673.124 113.801 672.884 120.719 671.593C140.361 667.923 159.933 663.844 179.547 659.984C188.21 658.283 196.669 656.279 204.355 651.494C213.503 645.792 222.835 640.351 232.364 635.312C244.884 628.686 257.749 622.73 270.283 616.131C275.055 613.619 280.256 610.93 283.613 606.929C290.861 598.298 298.195 589.456 300.531 577.804C301.136 574.784 303.191 572.582 306.26 571.905C309.3 571.234 311.932 572.54 313.459 575.13C314.402 576.732 314.839 578.828 314.902 580.726C315.148 587.656 318.808 593.175 325.606 594.304C330.652 595.137 336.219 595.334 341.124 594.099C358.817 589.646 376.439 584.833 393.878 579.463C417.131 572.3 438.645 561.347 459.11 548.165C469.582 541.425 477.289 532.929 481.152 520.896C483.13 514.735 485.79 508.758 488.577 502.908C493.686 492.195 496.621 481.271 494.686 469.21C492.476 455.449 485.776 445.47 471.722 441.85C466.725 440.566 461.63 439.366 456.894 437.383C449.771 434.398 442.48 433.191 434.859 433.431C427.335 433.664 420.073 434.652 414.414 440.424C413.978 440.869 413.169 441.01 412.507 441.173C408.96 442.048 405.878 440.46 404.041 436.847C402 432.831 403.084 428.025 406.251 425.068C407.644 423.77 408.953 421.928 409.368 420.121C411.086 412.613 410.523 404.998 408.629 397.666C406.089 387.842 405.125 377.186 395.652 370.489C391.964 367.878 389.051 364.201 385.525 361.329C383.231 359.452 380.627 357.723 377.882 356.671C371.738 354.328 366.291 357.102 361.153 360.052C352.152 365.217 342.87 368.725 332.215 367.214C327.063 366.481 321.764 365.422 316.668 365.909C304.268 367.102 291.797 368.386 279.636 370.955C259.825 375.147 239.747 376.537 219.69 378.365C207.437 379.48 195.184 380.764 183.945 386.036C166.429 394.25 149.06 402.796 131.853 411.639C126.356 414.462 118.404 413.276 117.974 408.251C117.763 405.774 118.27 403.071 119.1 400.7C121.001 395.252 123.295 389.945 125.533 384.335C113.315 383.389 102.112 384.13 91.9914 390.079C81.9909 395.958 72.1734 402.175 62.4474 408.498C60.7865 409.578 59.9771 411.956 58.7596 413.728C56.2261 417.397 54.1781 421.575 51.0252 424.595C46.4156 429.006 41.4963 433.064 39.1246 439.175C36.7318 445.336 37.4215 451.822 38.0337 458.18C38.7305 465.449 40.5954 472.619 39.0824 480.029C38.3645 483.543 37.8367 487.149 37.7311 490.727C37.52 497.721 37.8085 504.728 37.6256 511.715C37.2807 524.919 36.4995 538.108 36.3517 551.312C36.1195 571.721 35.4228 592.158 37.7382 612.504C38.1886 616.47 39.4483 620.344 40.3351 624.261C40.694 624.233 41.0529 624.205 41.4189 624.183C43.0516 619.356 44.9658 614.6 46.2326 609.681C47.3094 605.51 50.047 603.231 54.903 603.57C58.3796 603.81 60.7161 606.618 60.9131 610.479C61.2861 618.037 59.9138 625.334 57.2395 632.306C55.7264 636.251 54.0937 640.358 49.5825 642.292C48.6676 642.687 48.4354 644.67 47.8865 645.919ZM22.748 61.7494C17.2586 75.1296 16.4 89.0955 18.0046 103.407C19.1588 113.696 20.4255 124.028 20.6507 134.36C20.9745 149.377 18.6732 164.147 14.8306 178.727C11.8115 190.188 11.3751 201.882 13.6835 213.646C15.8229 224.528 21.1645 234.09 25.5701 244.048C25.8656 244.718 27.4491 245.318 28.2936 245.17C32.6359 244.393 36.9429 243.857 38.9627 238.621C39.948 236.052 43.1783 234.803 46.1552 235.643C49.3995 236.553 51.5531 238.769 51.7853 242.417C51.8346 243.194 51.9612 244.033 52.3061 244.718C55.4941 250.978 52.9536 255.692 46.0004 256.524C45.0362 256.637 43.7202 257.294 43.3261 258.084C39.4483 265.804 36.2884 273.722 36.1758 282.621C36.1406 285.522 35.4017 288.585 34.2545 291.259C31.2494 298.253 28.3922 305.112 29.11 313.059C29.4267 316.58 28.2725 320.214 27.991 323.814C27.5476 329.473 26.8861 335.154 27.0128 340.807C27.2309 350.623 32.657 358.626 37.1822 366.833C37.9352 368.202 40.4688 369.381 42.1297 369.318C48.0413 369.092 53.967 368.562 59.8082 367.645C71.3289 365.831 82.8284 363.82 94.2786 361.625C102.33 360.087 110.627 358.993 118.221 356.128C128.348 352.303 137.856 346.869 147.701 342.275C156.245 338.288 163.987 332.515 173.516 330.673C176.098 330.172 178.625 329.262 181.116 328.372C190.8 324.929 200.273 320.744 210.161 318.076C226.565 313.644 242.639 308.429 258.277 301.781C275.181 294.597 292.163 287.59 309.159 280.617C317.576 277.159 326.035 273.61 331.799 266.27C341.216 254.273 348.964 241.204 354.58 226.962C356.255 222.714 357.86 218.374 357.304 214.584C353.222 213.166 349.921 211.924 346.557 210.915C345.53 210.604 344.228 210.703 343.193 211.035C339.759 212.128 336.233 212.855 333.439 210.096C330.701 207.386 330.645 203.759 332.102 200.329C335.142 193.166 340.723 188.367 347.268 184.528C350.745 182.489 354.939 181.084 357.529 178.226C363.511 171.628 368.536 164.183 374.258 157.337C382.055 148.008 389.93 138.714 398.178 129.787C404.808 122.61 412.38 116.286 418.918 109.032C424.007 103.386 426.878 96.5125 427.251 88.5592C427.786 77.1267 419.742 65.8989 411.55 64.5863C406.645 63.803 401.43 64.6498 396.391 65.0944C389.121 65.7366 381.893 67.0916 374.616 67.3527C368.888 67.5573 363.124 66.4 357.36 66.153C345.459 65.6519 333.756 67.2045 322.172 69.865C318.583 70.6907 314.923 71.5375 311.271 71.6504C306.83 71.7845 303.001 67.8537 303.219 64.177C303.466 60.0627 306.992 57.3246 311.601 57.0211C320.617 56.4213 329.604 55.5321 338.943 54.7347C335.937 52.2717 333.756 50.2464 331.349 48.5386C319.512 40.1618 306.759 33.4717 293.205 28.3553C284.971 25.2432 276.441 23.4507 267.63 24.728C258.516 26.0477 249.515 28.3695 240.373 29.2939C227.895 30.5501 215.664 32.639 203.707 36.4286C186.296 41.9543 168.413 44.7912 150.193 45.6593C141.361 46.0827 132.535 46.6473 123.703 47.0636C110.522 47.6917 98.0227 51.4178 85.4816 55.1298C77.8598 57.3881 70.1958 60.091 62.3699 60.9025C51.9331 61.9893 42.0452 63.8665 33.0089 69.4557C29.8349 71.4176 25.2182 69.4416 23.8318 65.8848C23.3251 64.5228 23.0858 63.0549 22.748 61.7494ZM864.549 279.975C862.825 283.038 861.178 285.804 859.708 288.662C859.264 289.516 859.138 290.617 859.138 291.605C859.102 301.527 859.039 311.45 859.159 321.365C859.215 326.241 858.377 331.654 860.172 335.874C864.148 345.246 862.797 354.843 863.1 364.342C863.283 369.995 856.801 372.691 851.945 369.593C850.108 368.421 848.215 366.869 846.188 366.565C836.005 365.027 825.723 364.385 815.483 365.754C807.502 366.819 799.655 368.979 791.661 369.804C783.884 370.609 779.387 374.222 776.079 381.35C768.873 396.854 760.202 411.766 756.74 428.703C755.677 433.897 754.136 439.987 759.66 444.482C765.051 448.865 767.162 455.216 766.656 461.645C765.917 471.045 764.207 480.431 762.187 489.662C759.604 501.475 757.148 513.268 757.746 525.42C758.52 541.15 759.203 556.901 760.667 572.575C761.356 579.978 763.285 587.374 765.544 594.494C767.634 601.093 778.627 604.254 784.377 600.493C786.896 598.842 789.57 597.275 791.632 595.144C793.8 592.9 796.58 590.147 796.847 587.402C797.27 582.991 798.874 579.576 801.612 576.52C804.68 573.097 809.318 572.166 812.232 574.071C815.272 576.054 816.947 581.411 814.35 584.671C810.662 589.307 812.049 594.014 812.745 598.693C814.343 609.335 816.335 619.914 818.235 630.514C821.12 646.597 824.681 662.532 831.747 677.351C838.419 691.346 844.823 694.218 857.202 691.458C875.873 687.295 894.755 685.855 913.785 685.319C925.798 684.98 937.84 684.832 949.797 683.809C958.39 683.075 967.067 681.748 975.357 679.447C990.46 675.255 1003.8 667.916 1012.02 653.724C1016.45 646.067 1020.52 638.206 1024.7 630.401C1032.97 614.939 1041.34 599.526 1049.37 583.937C1052.19 578.433 1054.12 572.462 1056.32 567.064C1053.67 566.513 1050.98 566.668 1049.21 565.462C1043.75 561.721 1044.96 555.659 1050.34 552.074C1053.01 550.289 1056.52 549.583 1059.75 548.892C1061.86 548.433 1062.83 547.685 1063.43 545.54C1069.94 522.413 1079.58 500.586 1090.69 479.344C1094.53 472.012 1097.64 464.306 1101.08 456.769C1093.35 459.013 1087.82 463.748 1082.58 468.737C1076.92 474.136 1071.74 480.05 1066.26 485.653C1063.04 488.935 1059.18 489.139 1055.99 486.451C1053.36 484.221 1052.67 479.09 1055.54 476.543C1059.32 473.155 1058.64 469.055 1058.2 465.202C1056.61 451.165 1053.68 437.362 1049.17 423.96C1044.75 410.834 1040.29 397.687 1032.47 386.064C1031.83 385.118 1030.46 384.504 1029.29 384.109C1026.82 383.269 1024.12 383.001 1021.81 381.886C1020.14 381.075 1019.02 381.018 1017.47 381.936C1004.67 389.536 991.642 396.769 979.045 404.702C965.378 413.311 952.105 422.549 938.656 431.504C932.505 435.605 925.545 438.879 920.386 443.988C914.383 449.93 909.717 457.305 904.939 464.376C902.672 467.728 900.554 470.791 896.627 472.259C894.917 472.894 893.58 473.811 893.263 476.077C893.066 477.467 891.834 479.02 890.631 479.902C888.02 481.821 885.064 482.231 882.256 480.142C878.885 477.636 877.02 473.522 878.576 470.403C880.039 467.467 882.488 465.032 884.593 462.259C880.426 457.439 880.898 454.249 886.774 449.98C887.548 449.415 888.449 448.618 888.668 447.771C889.322 445.209 889.758 442.577 890.117 439.952C892.039 426.077 894.255 412.224 895.705 398.301C897.092 384.991 898.154 371.611 898.443 358.245C898.689 346.728 898.098 335.147 896.965 323.679C896.465 318.584 894.699 313.044 891.82 308.867C884.262 297.9 874.747 288.585 864.549 279.975ZM901.877 440.707C907.409 437.82 911.075 434.228 913.405 428.914C916.255 422.422 919.767 416.233 925.277 411.441C931.513 406.028 937.65 400.496 943.8 394.984C949.797 389.607 955.652 384.067 961.761 378.823C972.324 369.769 984.619 363.481 997.097 357.631C999.862 356.333 1003.78 356.086 1006.72 356.911C1010.45 357.963 1014.07 360.207 1017.14 362.684C1020.53 365.422 1023.47 367.342 1027.68 364.526C1029.2 363.51 1031.11 363.107 1032.81 362.331C1044.59 356.961 1056.45 351.703 1068.14 346.135C1083.6 338.782 1098.83 330.934 1114.36 323.764C1125.59 318.584 1137.19 314.209 1148.56 309.339C1149.45 308.958 1150.43 307.568 1150.47 306.601C1150.94 296.552 1149.67 286.637 1146.92 277.004C1143.12 263.687 1136.43 251.627 1129.76 239.616C1121.39 224.563 1112.61 209.651 1110.1 192.256C1108.65 182.213 1109.72 174.514 1118.85 167.831C1122.48 165.178 1125.6 161.833 1128.9 158.735C1130.4 157.323 1130.74 155.771 1129.55 153.774C1126.36 148.424 1123.58 142.828 1120.26 137.563C1115.84 130.535 1111.13 123.788 1108.29 115.792C1105.56 108.107 1102.59 100.26 1098.21 93.4568C1084.77 72.5749 1070.56 52.1871 1056.78 31.5098C1055.25 29.2092 1054 29.2092 1052 30.3878C1048.13 32.6672 1044.25 34.9325 1040.34 37.1343C1029.68 43.1328 1019.27 49.6253 1008.29 54.9605C984.288 66.6258 960.001 77.7125 935.806 88.9826C925.341 93.859 914.721 98.4179 904.333 103.45C892.081 109.385 879.976 115.637 867.85 121.833C858.286 126.724 848.806 131.777 839.235 136.653C837.286 137.648 837.018 138.587 837.701 140.711C841.987 153.964 844.696 167.57 845.611 181.465C846.364 192.891 846.533 204.352 847.138 215.791C847.406 220.893 847.969 225.996 848.651 231.063C849.658 238.508 850.868 245.925 852.037 253.349C852.642 257.195 853.338 261.027 854.056 265.233C859.201 261.958 863.367 263.236 867.167 266.567C871.714 270.547 876.281 274.506 880.652 278.677C885.662 283.454 890.096 288.895 895.424 293.249C905.297 301.323 908.197 312.169 908.211 323.976C908.225 338.457 907.507 352.938 906.895 367.412C906.346 380.207 905.523 392.987 904.784 405.767C904.587 409.133 904.298 412.493 904.017 415.852C903.32 423.946 902.623 432.02 901.877 440.707ZM658.396 223.074C654.926 224.401 652.005 225.671 648.979 226.624C645.735 227.647 641.386 225.318 640.421 222.269C639.317 218.79 641.632 214.288 644.616 212.862C650.302 210.138 655.827 207.076 661.358 204.048C662.013 203.688 662.667 202.757 662.766 202.016C663.561 196.052 664.638 190.082 664.842 184.084C665.18 174.084 665.215 164.049 664.828 154.049C664.575 147.486 662.569 141.466 657.15 136.851C650 130.76 643.785 123.598 640.731 114.649C637.74 105.891 624.08 102.539 617.296 104.212C612.285 105.447 607.492 108.121 603.009 110.824C592.031 117.458 581.446 124.755 570.355 131.184C566.709 133.301 565.14 135.213 565.478 139.419C565.984 145.601 562.479 147.528 558.735 148.445C555.899 149.137 552.345 146.251 551.001 142.235C549.291 137.119 545.927 133.52 541.374 130.859C526.222 122.003 510.274 121.262 493.855 126.357C483.545 129.554 473.868 134.183 464.677 139.892C452.115 147.69 440.468 156.73 430.418 167.514C419.812 178.883 409.798 190.83 399.959 202.877C391.26 213.526 383.252 224.612 378.206 237.724C375.116 245.755 371.274 253.807 366.171 260.667C359.528 269.594 356.333 278.945 357.255 289.855C357.55 293.383 358.015 296.919 360.647 299.77C366.46 296.736 372.16 294.181 378.684 294.703C384.244 295.148 389.811 295.536 395.349 296.157C402.802 296.99 407.517 298.211 409.938 306.99C410.853 310.313 411.043 313.835 411.473 317.286C412.423 324.886 413.141 332.522 414.267 340.101C415.47 348.21 416.223 356.516 418.623 364.293C423.887 381.385 434.169 395.852 444.704 410.044C445.669 411.342 448.209 412.556 449.673 412.239C461.144 409.733 472.475 406.529 483.974 404.158C495.164 401.851 506.488 400.164 517.79 398.421C523.048 397.609 528.445 397.638 533.681 396.706C543.787 394.906 553.774 392.408 563.901 390.7C583.374 387.419 602.883 384.3 622.433 381.498C632.187 380.101 642.061 379.522 651.879 378.633C662.745 377.652 673.66 377.052 684.484 375.711C697.602 374.081 710.65 371.837 723.416 369.91C719.947 354.208 716.491 338.591 712.987 322.748C711.213 322.748 709.285 322.423 707.504 322.811C703.197 323.743 698.89 324.378 696.807 329.565C695.153 333.686 692.324 337.377 689.755 341.082C685.906 346.629 678.354 343.242 676.356 338.803C674.216 334.067 675.729 327.935 680.353 323.284C684.885 318.718 691.515 315.973 692.873 308.634C693.14 307.187 693.943 305.839 694.534 304.456C702.416 286.115 706.273 267.046 705.02 247.802C702.177 245.932 699.531 244.704 697.56 242.777C694.337 239.623 691.839 235.72 688.538 232.672C683.928 228.409 678.368 225.622 672.232 223.907C670.901 232.573 668.818 234.796 663.118 233.885C658.952 233.215 656.995 229.143 658.396 223.074ZM542.661 600.02C544.034 601.206 545.765 602.681 547.482 604.17C555.174 610.81 563.521 616.385 572.853 620.493C586.098 626.322 600.272 626.054 614.227 626.653C622.44 627.006 630.724 625.92 638.972 625.397C646.544 624.917 653.948 623.294 660.598 619.702C672.358 613.351 682.661 605.038 691.107 594.565C701.002 582.286 709.489 569.04 715.337 554.41C721.91 537.96 727.794 521.221 733.438 504.425C736.739 494.602 739.251 484.482 741.616 474.376C743.059 468.215 743.354 461.8 744.522 455.562C745.289 451.448 745.43 447.587 743.854 443.607C743.15 441.836 742.84 439.648 743.15 437.785C744.17 431.681 744.473 425.689 743.924 419.444C742.995 408.823 740.905 398.583 736.528 388.929C735.183 385.958 732.798 383.206 730.243 381.152C729.061 380.199 726.323 381.046 724.31 381.286C716.379 382.211 708.44 383.086 700.537 384.222C692.092 385.436 683.731 387.362 675.258 388.202C662.062 389.515 648.789 389.988 635.58 391.18C627.887 391.879 620.237 393.149 612.616 394.42C601.7 396.247 590.834 398.35 579.933 400.263C571.642 401.716 563.31 402.909 555.041 404.49C547.341 405.958 539.769 408.131 532.035 409.345C525.63 410.347 518.994 409.91 512.604 410.997C499.324 413.255 486.135 416.028 472.939 418.738C468.442 419.663 464.03 421.032 458.773 422.408C462.123 424.052 464.536 425.464 467.105 426.466C484.573 433.304 502.871 434.976 521.408 434.991C525.799 434.998 528.277 432.408 528.396 427.997C528.467 425.534 528.305 423.057 528.431 420.594C528.713 415.167 534.237 411.279 538.798 413.22C542.267 414.694 543.802 418.773 542.802 423.368C540.944 431.921 538.995 440.46 537.44 449.069C535.983 457.136 534.899 465.28 533.836 473.409C532.788 481.447 531.45 489.499 531.162 497.58C530.571 514.1 530.655 530.642 530.346 547.17C530.268 551.467 529.79 555.751 529.431 560.042C528.783 567.953 528.058 575.885 530.817 583.556C531.598 585.729 532.992 587.677 534.223 589.936C536.771 588.115 538.573 586.64 540.543 585.454C545.462 582.49 550.213 579.011 555.491 576.922C561.783 574.431 568.518 572.977 575.14 571.432C590.208 567.903 605.367 564.77 620.399 561.114C626.402 559.654 632.187 557.268 638.057 555.25C640.928 554.262 643.462 554.544 645.798 556.647C648.353 558.948 648.543 561.841 647.48 564.657C646.495 567.282 644.384 568.722 641.252 568.877C635.938 569.145 630.583 569.526 625.347 570.451C615.03 572.279 604.741 574.311 594.522 576.612C575.752 580.825 556.934 585.031 542.661 600.02ZM355.073 251.937C355.467 252.142 355.861 252.347 356.255 252.551C358.979 247.393 362.019 242.375 364.363 237.047C369.542 225.269 374.25 213.194 382.794 203.371C392.52 192.192 402.366 181.07 412.817 170.591C422.986 160.393 433.669 150.64 444.733 141.417C455.824 132.172 467.802 123.993 481.378 118.707C494.278 113.682 507.403 110.027 521.64 111.925C532.893 113.428 543.246 116.724 552.535 123.294C553.028 123.64 553.837 123.986 554.337 123.823C558.222 122.546 562.121 121.269 565.914 119.744C577.519 115.087 587.569 107.825 597.393 100.302C607.499 92.5605 618.105 88.6368 631.026 92.2147C641.372 95.0799 649.387 99.8434 652.97 110.683C654.842 116.336 658.339 121.29 663.083 124.995C671.683 131.706 676.067 140.16 675.406 151.24C674.737 162.538 674.42 173.865 673.928 185.177C673.773 188.692 673.555 192.206 673.351 195.862C685.652 188.473 697.476 181.049 709.616 174.197C719.074 168.862 728.624 163.421 738.695 159.49C752.742 154.006 767.282 149.772 781.674 145.199C793.969 141.29 806.362 137.698 818.678 133.873C822.971 132.539 822.901 132.433 821.507 128.114C817.482 115.637 812.851 103.316 809.663 90.634C806.609 78.4746 804.645 65.9907 802.956 53.5491C801.316 41.4674 800.092 29.2798 801.464 17.0358C801.647 15.3844 801.9 13.7472 802.161 11.8136C801.035 11.8136 800.338 11.7783 799.648 11.8206C786.741 12.5052 773.834 13.232 760.927 13.8742C750.237 14.4106 739.54 14.8622 728.843 15.328C717.807 15.8149 706.772 16.3513 695.73 16.7253C685.448 17.0711 675.152 17.0499 664.884 17.5016C653.624 17.9956 642.371 18.673 631.139 19.5834C619.02 20.5643 606.887 21.5806 594.832 23.1684C584.451 24.5304 574.042 26.1465 563.894 28.6658C543.886 33.634 523.808 37.7906 503.138 38.6304C495.481 38.9409 487.81 39.3502 480.181 40.0489C466.303 41.3121 452.425 42.5965 438.596 44.3114C426.005 45.871 413.464 47.8822 400.944 49.9641C394.033 51.1144 387.214 52.8151 380.352 54.2618C383.097 54.6923 385.701 54.3606 388.291 53.8949C393.977 52.8716 399.607 51.2696 405.336 50.8392C414.21 50.1758 421.466 54.0289 427.68 60.3097C441.193 73.9793 442.206 92.9204 432.564 108.651C427.631 116.696 420.987 123.315 413.999 129.723C405.695 137.331 397.918 145.566 390.388 153.95C383.969 161.085 378.192 168.805 372.217 176.335C371.703 176.977 371.414 178.516 371.808 179.052C375.44 183.999 373.863 188.41 370.647 192.672C368.43 195.615 366.087 198.459 363.8 201.345C369.507 205.248 370.626 210.689 369.514 217.026C367.713 227.343 363.279 236.588 358.148 245.572C356.973 247.604 356.086 249.806 355.073 251.937ZM812.14 332.487C814.772 327.519 816.954 321.88 820.423 317.194C826.708 308.69 833.809 300.8 840.46 292.565C843.352 288.987 847.103 286.298 845.358 280.074C842.571 270.116 841.142 259.749 839.538 249.496C838.447 242.516 838.003 235.424 837.307 228.381C836.371 218.91 835.357 209.447 834.569 199.962C833.521 187.429 833.049 174.832 831.55 162.362C830.734 155.608 828.284 149.059 826.736 143.054C810.085 147.86 794.096 152.539 778.064 157.083C762.546 161.48 747 165.806 732.572 173.23C722.811 178.254 712.937 183.138 703.613 188.897C692.69 195.65 682.31 203.286 671.591 210.611C672.393 211.5 672.52 211.79 672.71 211.832C684.625 214.725 694.654 220.914 703.43 229.334C704.035 229.912 705.133 230.554 705.808 230.385C713.149 228.529 717.111 233.554 716.85 240.032C716.456 249.75 716.555 259.552 715.288 269.164C713.986 279.065 711.403 288.81 709.144 298.57C708.314 302.17 706.815 305.606 705.738 308.768C709.278 308.768 712.501 308.761 715.724 308.768C721.122 308.782 724.148 310.956 725.303 316.375C726.288 321.005 726.316 325.86 727.456 330.44C730.32 341.957 733.572 353.376 736.668 364.836C737.464 367.772 739.448 368.478 742.249 368.005C745.543 367.44 748.886 367.158 752.172 366.572C758.872 365.38 765.565 364.131 772.23 362.74C773.299 362.515 774.608 361.654 775.101 360.715C778.507 354.23 781.92 347.73 784.89 341.04C786.03 338.464 787.649 335.691 785.967 332.43C783.616 327.871 784.116 324.265 786.973 321.527C789.162 319.431 794.131 319.29 797.685 321.739C802.766 325.232 807.573 329.064 812.14 332.487ZM1150.23 321.576C1141.43 325.098 1132.7 328.379 1124.14 332.077C1113.89 336.509 1103.67 341.061 1093.67 346.022C1085.61 350.023 1078.07 355.069 1069.99 359.014C1059.96 363.912 1049.6 368.146 1039.29 372.705C1053.19 401.702 1062.5 432.379 1070.01 464.179C1071.01 463.423 1071.93 462.824 1072.74 462.111C1077.74 457.75 1082.58 453.177 1087.76 449.041C1092.21 445.499 1097.47 442.902 1101.58 439.055C1105.21 435.661 1110.3 436.353 1112.86 440.121C1115.8 444.468 1115.47 449.394 1114.07 453.713C1111.46 461.786 1108.43 469.86 1104.47 477.34C1095.6 494.115 1086.68 510.826 1080.32 528.758C1078.14 534.897 1076.24 541.129 1074.22 547.325C1080.01 544.036 1085.17 540.338 1090.3 536.577C1096.14 532.279 1102.3 528.603 1109.73 528.137C1119.65 527.523 1129.46 528.631 1139.04 531.256C1146.13 533.197 1152.73 533.098 1159.27 529.068C1170.41 522.202 1181.78 515.695 1193.07 509.069C1196.99 506.768 1198.61 503.444 1198.45 498.878C1198 486.147 1200.6 473.981 1205.4 462.21C1205.87 461.059 1205.42 459.168 1204.75 457.99C1203.04 454.99 1200.51 452.407 1199.11 449.295C1194.22 438.449 1190.03 427.284 1184.91 416.55C1176.9 399.733 1168.36 383.171 1160.05 366.502C1155.93 358.231 1152.01 349.861 1151.25 340.475C1150.75 334.322 1150.57 328.132 1150.23 321.576ZM1136.36 168.798C1133.19 171.783 1130.31 174.677 1127.22 177.337C1124.79 179.433 1122.92 181.6 1122.16 184.952C1120.57 192.009 1122.7 198.536 1124.72 204.965C1129.2 219.221 1137.9 231.401 1144.89 244.414C1150.33 254.534 1155.7 264.746 1158.08 276.087C1159.91 284.851 1160.99 293.772 1162.51 303.263C1179.96 292.395 1197.49 281.464 1215.03 270.533C1213.01 269.855 1211.25 269.665 1209.55 269.883C1198.66 271.288 1191.05 265.586 1185.36 257.541C1178.98 248.501 1173.49 238.797 1167.96 229.178C1160.75 216.631 1153.71 203.977 1146.93 191.19C1143.04 183.851 1139.81 176.159 1136.36 168.798ZM848.145 302.791C847.814 302.713 847.49 302.642 847.159 302.565C838.721 311.083 830.663 319.953 826.061 331.245C824.308 335.549 823.414 340.256 822.535 344.858C821.944 347.935 824.125 352.437 825.864 352.465C833.619 352.564 841.382 352.508 849.517 352.508C849.299 349.981 849.848 346.813 848.673 344.547C844.675 336.855 845.942 329.078 846.927 321.104C847.68 315.042 847.765 308.895 848.145 302.791ZM939.282 416.247C962.753 402.211 983.985 384.674 1008.81 372.479C1005.7 369.24 1002.64 369.473 999.623 370.792C993.796 373.333 987.905 375.768 982.304 378.746C965.139 387.871 952.598 402.458 939.282 416.247ZM746.373 378.894C748.78 387.242 751.236 395.796 753.805 404.702C758.471 394.857 762.954 385.386 767.528 375.725C760.301 376.805 753.362 377.842 746.373 378.894ZM800.078 338.838C796.397 345.535 792.878 351.943 789.092 358.824C796.601 357.285 803.554 355.86 810.873 354.357C808.614 347.928 804.905 343.002 800.078 338.838ZM423.106 419.945C426.794 418.724 430.545 417.475 434.676 416.106C429.982 409.479 425.562 403.234 420.678 396.332C421.522 404.596 422.289 412.034 423.106 419.945ZM1222.34 453.854C1222.6 454.39 1222.85 454.92 1223.11 455.456C1227.4 454.517 1231.7 453.593 1235.98 452.626C1238.03 452.16 1237.74 450.827 1236.97 449.479C1234.58 445.294 1230.47 444.666 1227.09 448.11C1225.36 449.881 1223.91 451.935 1222.34 453.854Z" fill="black"/>
<path d="M98.2627 419.345C98.2838 423.756 95.7855 426.346 91.4573 426.381C87.3192 426.417 83.9341 423.304 83.8918 419.437C83.8567 415.803 87.7063 411.992 91.3518 412.062C95.1239 412.133 98.2416 415.415 98.2627 419.345Z" fill="black"/>
<path d="M99.6499 448.237C95.6103 448.216 92.183 444.849 92.3308 441.053C92.4645 437.545 96.1663 433.974 99.6851 433.953C103.577 433.925 106.681 437.27 106.674 441.469C106.666 445.732 104.041 448.258 99.6499 448.237Z" fill="black"/>
<path d="M85.334 91.8828C80.9425 88.1285 80.0698 84.6705 82.4415 81.1843C84.4754 78.1992 88.3742 77.1971 91.6679 78.8061C95.4189 80.6409 96.4042 84.5082 94.4337 89.6881C98.3114 93.019 99.4726 97.1686 97.4035 100.337C95.4189 103.372 90.9148 104.543 87.8042 102.828C84.1024 100.782 83.3001 97.2956 85.334 91.8828Z" fill="black"/>
<path d="M890.708 537.96C890.68 542.3 888.132 544.826 883.762 544.826C879.673 544.833 876.309 541.594 876.393 537.741C876.478 534.128 879.989 530.628 883.621 530.543C887.513 530.451 890.736 533.824 890.708 537.96Z" fill="black"/>
<path d="M833.697 449.803C833.697 454.164 831.156 456.691 826.779 456.698C822.683 456.705 819.248 453.43 819.347 449.619C819.445 445.992 822.95 442.534 826.596 442.471C830.586 442.407 833.697 445.618 833.697 449.803Z" fill="black"/>
<path d="M474.066 272.325C474.024 276.524 471.322 279.065 466.93 279.029C463.081 279.001 459.717 275.776 459.667 272.071C459.625 268.479 463.538 264.654 467.176 264.725C471.125 264.795 474.109 268.091 474.066 272.325Z" fill="black"/>
<path d="M477.444 332.607C473.636 332.586 470.23 329.29 470.244 325.635C470.258 321.993 474.143 318.211 477.767 318.317C481.631 318.43 484.629 321.598 484.629 325.592C484.629 330.158 482.089 332.635 477.444 332.607Z" fill="black"/>
</svg>
